<?xml version="1.0" encoding="utf-8"?>
<!-- Generator: Adobe Illustrator 22.1.0, SVG Export Plug-In . SVG Version: 6.00 Build 0)  -->
<svg version="1.0" id="Capa_1" xmlns="http://www.w3.org/2000/svg" xmlns:xlink="http://www.w3.org/1999/xlink" x="0px" y="0px"
	 width="32px" height="32px" viewBox="0 0 32 32" style="enable-background:new 0 0 32 32;" xml:space="preserve">
<g>
	<g>
		<g>
			<path d="M15.9,22.6c-3.3,0-6-2.7-6-6c0-3.3,2.7-6,6-6c3.3,0,6,2.7,6,6C21.9,19.9,19.2,22.6,15.9,22.6z M15.9,12.3
				c-2.4,0-4.3,1.9-4.3,4.3c0,2.4,1.9,4.3,4.3,4.3c2.4,0,4.3-1.9,4.3-4.3C20.2,14.2,18.2,12.3,15.9,12.3z"/>
		</g>
	</g>
	<g>
		<circle cx="22.6" cy="10.2" r="1.4"/>
	</g>
	<g>
		<path d="M20.3,28.4h-8.6c-4.2,0-7.7-3.4-7.7-7.7V12c0-4.2,3.4-7.7,7.7-7.7h8.6c4.2,0,7.7,3.4,7.7,7.7v8.6
			C28,24.9,24.6,28.4,20.3,28.4z M11.7,6.1c-3.3,0-6,2.7-6,6v8.6c0,3.3,2.7,6,6,6h8.6c3.3,0,6-2.7,6-6V12c0-3.3-2.7-6-6-6H11.7z"/>
	</g>
</g>
</svg>
