<?xml version="1.0" encoding="utf-8"?>
<!-- Generator: Adobe Illustrator 22.1.0, SVG Export Plug-In . SVG Version: 6.00 Build 0)  -->
<svg version="1.0" xmlns="http://www.w3.org/2000/svg" xmlns:xlink="http://www.w3.org/1999/xlink" x="0px" y="0px" width="32px"
	 height="32px" viewBox="0 0 32 32" style="enable-background:new 0 0 32 32;" xml:space="preserve">
<g id="Black">
</g>
<g id="White">
	<g>
		<path style="fill:#FFFFFF;" d="M14.3,25.3c-6.1,0-11-5-11-11s5-11,11-11c6.1,0,11,5,11,11S20.4,25.3,14.3,25.3z M14.3,4.8
			C9,4.8,4.8,9,4.8,14.3s4.3,9.5,9.5,9.5c5.3,0,9.5-4.3,9.5-9.5S19.5,4.8,14.3,4.8z"/>
	</g>
	<g>
		<path style="fill:#FFFFFF;" d="M28,28.8c-0.2,0-0.4-0.1-0.5-0.2L21,22.1c-0.3-0.3-0.3-0.8,0-1.1s0.8-0.3,1.1,0l6.4,6.4
			c0.3,0.3,0.3,0.8,0,1.1C28.4,28.7,28.2,28.8,28,28.8z"/>
	</g>
</g>
<g id="Color">
</g>
<g id="Capa_1">
</g>
</svg>
