<?xml version="1.0" encoding="utf-8"?>
<!-- Generator: Adobe Illustrator 22.1.0, SVG Export Plug-In . SVG Version: 6.00 Build 0)  -->
<svg version="1.0" xmlns="http://www.w3.org/2000/svg" xmlns:xlink="http://www.w3.org/1999/xlink" x="0px" y="0px" width="32px"
	 height="32px" viewBox="0 0 32 32" style="enable-background:new 0 0 32 32;" xml:space="preserve">
<g id="Black">
</g>
<g id="White">
</g>
<g id="Color">
</g>
<g id="Capa_1">
	<g id="_001-heart-outline_1_" transform="translate(-1707.168 -58.821)">
		<path id="Shape_2_" style="fill:#FFFFFF;" d="M1723.2,86.5c-0.2,0-0.5-0.1-0.6-0.3c-0.9-1.3-1.8-2.4-3-3.5c-0.6-0.6-1.1-1-1.4-1.3
			l-0.1-0.1c-0.3-0.3-0.8-0.7-1.4-1.3c-0.6-0.5-1.1-0.9-1.4-1.2c-0.3-0.2-0.7-0.6-1.2-1.2c-0.4-0.4-0.8-0.8-1.2-1.3
			c-0.3-0.4-0.6-0.8-0.9-1.3c-0.3-0.5-0.6-1-0.8-1.5c-0.4-1.1-0.6-2.3-0.6-3.5c0-1.8,0.7-3.6,2-4.9c1.3-1.3,3.1-2,4.9-2
			c1.1,0,2.2,0.3,3.2,0.8c1,0.5,1.8,1.2,2.5,2.1c1.3-1.8,3.4-2.8,5.6-2.8c1.8,0,3.6,0.7,4.9,2c1.3,1.3,2,3.1,2,4.9
			c0,0.6-0.1,1.2-0.2,1.8c-0.2,1.1-0.6,2.1-1.2,3.1c-0.4,0.6-0.7,1-0.9,1.3c-0.4,0.4-0.8,0.9-1.2,1.3c-0.5,0.5-0.9,0.9-1.2,1.2
			c-0.2,0.1-0.3,0.3-0.5,0.5c-0.2,0.2-0.5,0.4-0.8,0.7c-1,0.9-1.7,1.5-2.1,1.9c-0.5,0.5-1.1,1.1-1.8,1.9c-0.7,0.8-1.3,1.6-1.9,2.5
			C1723.7,86.4,1723.4,86.5,1723.2,86.5z M1717.6,64.6c-1.5,0-2.9,0.6-3.9,1.6c-1,1-1.6,2.4-1.6,3.8c0,0.7,0.1,1.5,0.3,2.2l0.3,0.9
			c0.2,0.5,0.5,1,0.8,1.5c0.1,0.1,0.1,0.2,0.2,0.3c0.2,0.3,0.4,0.6,0.7,0.8l0.2,0.2c0.2,0.2,0.4,0.4,0.5,0.6
			c0.2,0.2,0.4,0.4,0.8,0.8l0.8,0.8l0.9,0.8c0.9,0.8,1.5,1.3,1.9,1.7c0.4,0.4,0.9,0.9,1.7,1.7c0.7,0.7,1.3,1.4,1.9,2.2
			c0.6-0.8,1.2-1.5,1.8-2.2c0.7-0.8,1.3-1.4,1.8-1.8c0.5-0.5,1.2-1.1,1.9-1.7c1.5-1.3,2.5-2.3,3.1-3c1.2-1.2,2-2.7,2.3-4.4
			c0.1-0.4,0.1-0.9,0.1-1.4c0-1.4-0.6-2.8-1.6-3.8c-1.8-1.8-4.6-2.1-6.8-0.7c-0.9,0.6-1.6,1.3-2,2.3c-0.1,0.3-0.4,0.4-0.7,0.4
			c-0.3,0-0.5-0.2-0.7-0.4c-0.4-0.9-1.1-1.7-2-2.3C1719.6,64.9,1718.6,64.6,1717.6,64.6z"/>
	</g>
</g>
</svg>
