<?xml version="1.0" encoding="utf-8"?>
<!-- Generator: Adobe Illustrator 22.1.0, SVG Export Plug-In . SVG Version: 6.00 Build 0)  -->
<svg version="1.0" xmlns="http://www.w3.org/2000/svg" xmlns:xlink="http://www.w3.org/1999/xlink" x="0px" y="0px" width="32px"
	 height="32px" viewBox="0 0 32 32" style="enable-background:new 0 0 32 32;" xml:space="preserve">
<g id="Black">
</g>
<g id="White">
</g>
<g id="Color">
	<path style="fill:#FFFFFF;" d="M25.8,7.2c-2.5-2.8-6.1-4.4-9.8-4.4C8.7,2.8,2.8,8.7,2.8,16c0,3.8,1.6,7.3,4.4,9.8v0L7.4,26
		c0,0,0.1,0.1,0.1,0.1c0.2,0.2,0.5,0.4,0.7,0.6c0.1,0,0.1,0.1,0.2,0.1C8.7,27,9,27.2,9.3,27.3c0,0,0.1,0.1,0.1,0.1
		c0.3,0.2,0.6,0.3,0.9,0.5h0c0.7,0.3,1.4,0.6,2.1,0.8l0,0c0.4,0.1,0.7,0.2,1.1,0.2l0.1,0c0.4,0.1,0.7,0.1,1.1,0.1l0.1,0
		c0.4,0,0.7,0,1.1,0s0.7,0,1.1,0l0.1,0c0.4,0,0.7-0.1,1.1-0.1l0.1,0c0.4-0.1,0.7-0.1,1.1-0.2l0,0c0.7-0.2,1.5-0.5,2.2-0.8h0
		c0.3-0.2,0.6-0.3,0.9-0.5c0,0,0.1-0.1,0.1-0.1c0.3-0.2,0.6-0.3,0.8-0.5c0.1,0,0.1-0.1,0.2-0.1c0.3-0.2,0.5-0.4,0.7-0.6
		c0,0,0.1-0.1,0.1-0.1l0.2-0.2v0C30.2,21,30.7,12.6,25.8,7.2z M23.7,25.3L23.7,25.3c-0.3,0.2-0.5,0.4-0.7,0.6
		c-0.1,0-0.1,0.1-0.2,0.1c-0.2,0.2-0.5,0.3-0.8,0.5l-0.1,0.1c-0.3,0.2-0.5,0.3-0.8,0.4L21,27c-0.9,0.4-1.9,0.7-2.9,0.9l-0.1,0
		C17.7,28,17.4,28,17.1,28L17,28c-0.3,0-0.6,0-1,0s-0.6,0-1,0l-0.1,0c-0.3,0-0.6-0.1-0.9-0.1l-0.1,0c-1-0.2-1.9-0.5-2.9-0.9l-0.1,0
		c-0.3-0.1-0.6-0.3-0.8-0.4L10,26.5c-0.3-0.1-0.5-0.3-0.8-0.5c-0.1,0-0.1-0.1-0.2-0.1c-0.2-0.2-0.4-0.3-0.7-0.5l-0.1-0.1v-2.2
		c0-3.3,2.7-6,6-6l3.3,0c3.3,0,6,2.7,6,6V25.3z M11.6,11.6c0-2.4,2-4.4,4.4-4.4c2.4,0,4.4,2,4.4,4.4c0,2.4-2,4.4-4.4,4.4
		C13.6,16,11.6,14,11.6,11.6z M24.8,24.3v-1.1c0-3.4-2.4-6.3-5.7-7c2.5-1.7,3.2-5.1,1.5-7.6c-1.7-2.5-5.1-3.2-7.6-1.5
		c-2.5,1.7-3.2,5.1-1.5,7.6c0.4,0.6,0.9,1.1,1.5,1.5c-3.3,0.7-5.7,3.6-5.7,7v1.1C2.6,19.4,2.9,11.8,7.7,7.2
		c4.9-4.6,12.5-4.4,17.1,0.5C29.2,12.4,29.2,19.6,24.8,24.3z"/>
</g>
<g id="Capa_1">
</g>
</svg>
