<?xml version="1.0" encoding="utf-8"?>
<!-- Generator: Adobe Illustrator 22.1.0, SVG Export Plug-In . SVG Version: 6.00 Build 0)  -->
<svg version="1.0" id="Capa_1" xmlns="http://www.w3.org/2000/svg" xmlns:xlink="http://www.w3.org/1999/xlink" x="0px" y="0px"
	 width="32px" height="32px" viewBox="0 0 32 32" style="enable-background:new 0 0 32 32;" xml:space="preserve">
<g>
	<path style="fill:#FFFFFF;" d="M16,12.2c-2.1,0-3.8,1.7-3.8,3.8c0,2.1,1.7,3.8,3.8,3.8s3.8-1.7,3.8-3.8
		C19.8,13.9,18.1,12.2,16,12.2z"/>
	<path style="fill:#FFFFFF;" d="M27.3,11.3c-0.1-1.2-0.2-2-0.5-2.8c-0.3-0.8-0.7-1.4-1.3-2c-0.6-0.6-1.3-1-2-1.3
		c-0.7-0.3-1.6-0.5-2.8-0.5c-1.2-0.1-1.6-0.1-4.7-0.1s-3.5,0-4.7,0.1c-1.2,0.1-2,0.2-2.8,0.5c-0.8,0.3-1.4,0.7-2,1.3
		c-0.6,0.6-1,1.3-1.3,2c-0.3,0.7-0.5,1.6-0.5,2.8c-0.1,1.2-0.1,1.6-0.1,4.7c0,3.1,0,3.5,0.1,4.7c0.1,1.2,0.2,2,0.5,2.8
		c0.3,0.8,0.7,1.4,1.3,2c0.6,0.6,1.3,1,2,1.3c0.7,0.3,1.6,0.5,2.8,0.5c1.2,0.1,1.6,0.1,4.7,0.1c3.1,0,3.5,0,4.7-0.1
		c1.2-0.1,2-0.2,2.8-0.5c0.8-0.3,1.4-0.7,2-1.3c0.6-0.6,1-1.3,1.3-2c0.3-0.7,0.5-1.6,0.5-2.8c0.1-1.2,0.1-1.6,0.1-4.7
		C27.4,12.9,27.4,12.5,27.3,11.3z M16,21.9c-3.2,0-5.9-2.6-5.9-5.9s2.6-5.9,5.9-5.9s5.9,2.6,5.9,5.9C21.9,19.2,19.2,21.8,16,21.9z
		 M22.1,11.3c-0.8,0-1.4-0.6-1.4-1.4c0-0.8,0.6-1.4,1.4-1.4c0.8,0,1.4,0.6,1.4,1.4C23.5,10.6,22.9,11.3,22.1,11.3z"/>
</g>
</svg>
