<?xml version="1.0" encoding="utf-8"?>
<!-- Generator: Adobe Illustrator 22.1.0, SVG Export Plug-In . SVG Version: 6.00 Build 0)  -->
<svg version="1.0" xmlns="http://www.w3.org/2000/svg" xmlns:xlink="http://www.w3.org/1999/xlink" x="0px" y="0px" width="32px"
	 height="32px" viewBox="0 0 32 32" style="enable-background:new 0 0 32 32;" xml:space="preserve">
<g id="Black">
</g>
<g id="White">
</g>
<g id="Color">
	<path id="Shape_3_" style="fill:#FFFFFF;" d="M22.7,29.3H9.3c-2.1,0.1-3.9-1.5-4-3.6c0,0,0,0,0,0c0,0,0,0,0,0L6.8,8.5
		c0-0.4,0.3-0.7,0.7-0.7h3.1c0.1-2.9,2.5-5.2,5.4-5.2c2.8,0.1,5.1,2.3,5.2,5.2h3.1c0.4,0,0.7,0.3,0.7,0.7l1.5,17.2c0,0,0,0,0,0.1
		C26.6,27.9,24.8,29.5,22.7,29.3z M8.3,9.3L6.8,25.8c0.2,1.2,1.3,2.1,2.5,2h13.4c1.3,0.1,2.4-0.8,2.5-2L23.7,9.3h-2.5v2.2
		c0,0.4-0.3,0.7-0.7,0.7s-0.7-0.3-0.7-0.7V9.3h-7.6v2.2c0,0.4-0.3,0.7-0.7,0.7s-0.7-0.3-0.7-0.7V9.3H8.3z M16,4.1
		c-2.1,0-3.7,1.7-3.8,3.7h7.6C19.7,5.8,18.1,4.1,16,4.1L16,4.1z"/>
</g>
<g id="Capa_1">
</g>
</svg>
