<svg id="Capa_1" data-name="Capa 1" xmlns="http://www.w3.org/2000/svg" viewBox="0 0 200 150"><title>logos_marcas</title><path d="M79.37,44.44a3.07,3.07,0,0,0,.74-.1l8.57,29.11h0c1,3.25,5.68,5.72,11.37,5.72s10.42-2.47,11.38-5.72h0L120,44.36a3.3,3.3,0,0,0,.65.08,3,3,0,1,0-1.29-.3l-9.93,21.27L111,36.75h.07a3,3,0,1,0-.84-.12l-6.6,28-3.18-30.87a3,3,0,1,0-.85,0L96.45,64.58l-6.59-28a3,3,0,1,0-.8.12h0l1.59,28.65L80.75,44.1a3,3,0,1,0-1.38.34ZM100,71c5.21,0,9.43,1.33,9.43,3s-4.22,3-9.43,3-9.44-1.31-9.44-3,4.23-3,9.44-3Zm0,0" style="fill:#f6f5f5"/><path d="M66.75,91.38A15.43,15.43,0,1,0,82.38,106.8,15.6,15.6,0,0,0,66.75,91.38Zm6.49,24.33a7.39,7.39,0,0,1-1.8,1.9,6.55,6.55,0,0,1-3.87,1.51,7.54,7.54,0,0,1-.82.06,7.72,7.72,0,0,1-.84-.06A6.64,6.64,0,0,1,62,117.61a7.56,7.56,0,0,1-1.8-1.9,15.27,15.27,0,0,1-2.64-8.88A15.51,15.51,0,0,1,60,98.38a7.69,7.69,0,0,1,3.65-3.29.05.05,0,0,0,0,0l.23-.08a5.85,5.85,0,0,1,.63-.23,8,8,0,0,1,4.49,0l.64.22a.92.92,0,0,0,.23.09s0,0,0,0a7.67,7.67,0,0,1,3.64,3.29,15.42,15.42,0,0,1,2.35,8.45,15.2,15.2,0,0,1-2.65,8.88Zm0,0" style="fill:#f6f5f5"/><path d="M113.35,110h-2.17v4.34a4.82,4.82,0,0,1-4.81,4.71H97.2V94.64h4.19V92.46H86.29v2.18h4.19v24.43H86.29v2.18h27.08v-7.11h0Zm0,0" style="fill:#f6f5f5"/><path d="M146.38,92.47H117.91v2.18H122v24.44h-4.11v2.17h28.63V110.9h-2.2v3.43a4.8,4.8,0,0,1-4.81,4.76H128.75V107h3.45a3.57,3.57,0,0,1,3.53,3.55.17.17,0,0,1,0,.08h0v1.59h2v-12h-2v1.4h0v.07A3.42,3.42,0,0,1,132.2,105h-3.45V94.65h10.8a4.81,4.81,0,0,1,4.79,4.76v3h2.19v-9.9Zm0,0" style="fill:#f6f5f5"/><path d="M183.72,119.18c-2.09-.06-2.58-.7-4.2-2.56L170,104.77l6.3-7.53h0c1.69-1.93,2.15-2.6,4.33-2.64h1.64V92.5H170.66v2.1h2.55a1,1,0,0,1,1,1,1,1,0,0,1-.19.58l-5.59,6.65-4.38-5.46-.92-1.16a1,1,0,0,1,.76-1.6h2.5V92.5H151.86v2.1h.69c1.85.09,2.39.72,3.85,2.39l8.43,10.5-7.59,9.06v0c-1.7,2-2.16,2.6-4.35,2.64h-1.77v2.1h12.43v-2.1h-3.07a1,1,0,0,1-1-1,.91.91,0,0,1,.23-.6l6.74-8.06,5.6,7,.86,1.06a1,1,0,0,1,.22.61,1,1,0,0,1-1,1h-2.7v2.1h15.67v-2.1h-1.4Zm0,0" style="fill:#f6f5f5"/><path d="M46.17,119l-1.9-5.54a10.35,10.35,0,0,0-2.91-4.84,8.13,8.13,0,0,0-3.15-1.48A7.42,7.42,0,0,0,37,92.43H15v2.16H19v24.46H14.88v2.18h15v-2.18H25.73V107.3h3.21l.3,0h.65a10.8,10.8,0,0,1,2.71.41,7.43,7.43,0,0,1,2.06.78,6.5,6.5,0,0,1,2.13,2.24c.17.3.32.61.47.91,1.23,2.31,2,5.5,2.77,9.55h9.41V119ZM32.75,105.11h-7V94.58h7a5.27,5.27,0,1,1,0,10.53Zm0,0" style="fill:#f6f5f5"/></svg>