<svg id="Capa_1" data-name="Capa 1" xmlns="http://www.w3.org/2000/svg" viewBox="0 0 200 150"><title>logos_marcas</title><path id="path7887" d="M151.31,77.94V100h2.79V90.66h3.81c4.19-.09,6.13-1.94,6.13-1.94a6.62,6.62,0,0,0-.47-9.27A8.66,8.66,0,0,0,158.84,78h-7.53Zm8.15,2.39a2.76,2.76,0,0,1,2.26.85,5.39,5.39,0,0,1,1.12,3.16,4.33,4.33,0,0,1-.92,3,5.74,5.74,0,0,1-2.89,1h-4.91v-8h5.19Z" style="fill:#f6f5f5"/><path id="path7879" d="M168.22,77.94V100H171V90.66h3.89a10,10,0,0,0,6-1.94,7.5,7.5,0,0,0,1.57-4.36,6.57,6.57,0,0,0-2.22-4.91A7.62,7.62,0,0,0,175.83,78h-7.61Zm8.12,2.39a3.22,3.22,0,0,1,2.27.85,5.72,5.72,0,0,1,1,3.16,4.08,4.08,0,0,1-1,3,5,5,0,0,1-2.69,1H171v-8h5.19Z" style="fill:#f6f5f5"/><path id="path7883" d="M187.81,87.31h7.79v2.41h-7.79v7.9h8.07l1.49,2.41H184.94V77.94h12.53l-1.39,2.51h-8.27v6.86" style="fill:#f6f5f5"/><path id="path7889" d="M117.63,42.84s.84,0,3.53,2.22c0,0-1.57,2-3.53,2.22l-2.14-.55-1.57-.55s-.65,0-.55.55l.92,1.39a5.47,5.47,0,0,1,1,2.51,2.85,2.85,0,0,1-3.06,2.7,5,5,0,0,1-3.34-1.77l-3-2.59L104,48.42s.1-.93,1.49-.85c0,0,.55-.1,2,.75l2.14.74s1.67,0,1.67-1.19c0,0,0-2.15-2.88-2.15H100V54s0,3,2.22,3c0,0,1.2,0,1.3-1.57l-.85-2.14-.84-2.14s-.1-.65,1-1.4a3.4,3.4,0,0,0,.37,1.77l2.59,3s1.77,1.86,1.77,3.43c0,0,0,2.89-2.69,2.89a4.46,4.46,0,0,1-2.42-.84L101,59s-.47,0-.47.65l.47,1.49.55,2.14s0,.93-2,3.54c0,0-2.14-1.57-2.22-3.54a5.75,5.75,0,0,1,.55-2.14l.47-1.49L97.83,59s-.28,0-1.39.93l-2.52.84a2.7,2.7,0,0,1-2.69-2.89s-.1-1.57,1.94-3.61l2.42-2.79L96,49.71s.93.1,1,1.4l-.85,2.14a6.15,6.15,0,0,0-.84,2.14S95.3,57,96.59,57c0,0,2.14,0,2.22-3V45.72H90.37s-3,0-3,2.15c0,0,0,1.19,1.67,1.19l2.22-.74a4.82,4.82,0,0,1,2-.75s.65-.1,1.49.85l-1.76.47L90.17,51.3s-1.94,2.05-3.61,2.05c0,0-3,0-3-2.7a3.79,3.79,0,0,1,.92-2.51l1-1.39-.64-.55-1.58.55-2,.55s-1,0-3.71-2.22a6.55,6.55,0,0,1,3.71-2.22l2,.65,1.58.54.64-.64-1-1.3a4.09,4.09,0,0,1-.92-2.59,2.6,2.6,0,0,1,3-2.52A5.2,5.2,0,0,1,90,38.58l3.07,2.78,1.76.38s-.17.84-1.49,1l-2-.85a4.94,4.94,0,0,0-2.22-.84s-1.67,0-1.67,1.3c0,0,0,2,3,2h8.44V36.16s-.1-3-2.22-3c0,0-1.29,0-1.29,1.57a5.3,5.3,0,0,0,.84,2.32L97,39.13s0,.64-1,1.39l-.37-1.77L93,35.59s-1.77-1.67-1.77-3.34c0,0,0-3,2.69-3a4.57,4.57,0,0,1,2.52.93l1.39.92.47-.55-.47-1.49L97.28,27s0-1,2.22-3.62a6.14,6.14,0,0,1,2,3.62L101,29.09l-.47,1.49.47.55,1.49-.92a4.32,4.32,0,0,1,2.42-.93,2.73,2.73,0,0,1,2.69,3,5,5,0,0,1-1.77,3.34l-2.59,3.16a3.37,3.37,0,0,0-.37,1.77s-.93-.1-1-1.39a4.74,4.74,0,0,1,.84-2.05l.85-2.32s-.1-1.57-1.3-1.57c0,0-2.22,0-2.22,3v8.27h8.45s2.88,0,2.88-2c0,0,0-1.3-1.67-1.3a3.57,3.57,0,0,0-2.14.84l-2,.85s-.65,0-1.49-1l1.94-.55,3-2.6s1.67-1.67,3.34-1.57c0,0,3-.1,3.06,2.52l-1,2.59-.92,1.3a.53.53,0,0,0,.55.64l1.57-.55a5.43,5.43,0,0,1,2.14-.7" style="fill:#f6f5f5"/><path id="path7891" d="M87,77.94V100h2.88V90.66h3.82c4.08-.09,6-1.94,6-1.94a6.74,6.74,0,0,0,1.66-4.36,6.65,6.65,0,0,0-2.14-4.91A8.4,8.4,0,0,0,94.61,78H87Zm8.15,2.39a2.78,2.78,0,0,1,2.26.85,5.15,5.15,0,0,1,1.2,3.16,4.08,4.08,0,0,1-1,3,5.72,5.72,0,0,1-2.88,1H89.86v-8H95Z" style="fill:#f6f5f5"/><path id="path7895" d="M106.3,87.4h9.93V77.94H119V100h-2.79V89.92H106.3V100h-2.77V77.94h2.78V87.4" style="fill:#f6f5f5"/><path id="path7897" d="M93,111.92,99,122.78V111.92h1.77v14.47H99l-6.6-11.88v11.88H90.6V111.92H93" style="fill:#f6f5f5"/><path id="path7899" d="M88.11,113.49H82.73V118h5.1v1.67h-5.1v5.11h5.38l.92,1.57H81V111.9h8.17l-1,1.59" style="fill:#f6f5f5"/><path id="path7901" d="M105.2,113.49V118h5.2v1.67h-5.2v5.11h5.28l.84,1.57h-8V111.9h9.37L117,124l4.36-12.06h1.77l-5.38,14.47h-1.87l-4.63-12.9h-6" style="fill:#f6f5f5"/><path id="path7903" d="M147.15,77.94V100h-2.69V77.94h2.69" style="fill:#f6f5f5"/><path id="path7905" d="M133,77.94V97.62h9.56V100H130.16V77.94H133" style="fill:#f6f5f5"/><path id="path7907" d="M126,77.94V100h-2.7V77.94H126" style="fill:#f6f5f5"/><path id="path7909" d="M126.17,113.49V118h5.21v1.67h-5.21v5.11h5.48l.85,1.57h-8.08V111.9h8.27l-1,1.57h-5.5" style="fill:#f6f5f5"/><path id="path7911" d="M30.09,80.43V77.92H46.33v2.51H39.55V100H36.76V80.43H30.09" style="fill:#f6f5f5"/><path id="path7913" d="M22.76,77.94,14.12,100H17L19,94.75h9.94l2,5.28h3.16L25.55,77.94ZM24,81.75l4,10.66H20Z" style="fill:#f6f5f5"/><path id="path7917" d="M2.53,77.94V100H5.42V90.66H9.31a9.71,9.71,0,0,0,6-1.94,7,7,0,0,0,1.57-4.36,7.29,7.29,0,0,0-2.22-4.91A8.06,8.06,0,0,0,10.13,78H2.53Zm8.13,2.39a3.34,3.34,0,0,1,2.36.85,5.76,5.76,0,0,1,1,3.16,4.1,4.1,0,0,1-1,3,5.31,5.31,0,0,1-2.69,1H5.42v-8h5.1Z" style="fill:#f6f5f5"/><path id="path7921" d="M65.56,77.94V88.33l9.56-10.39h3.44l-7.25,8L78.74,100H75.5L69.47,88l-3.89,4V100H62.87V77.94h2.69" style="fill:#f6f5f5"/><path id="path7923" d="M59.23,80.43H50.79v6.88h7.8v2.41h-7.8v7.9H59L60.45,100H48V77.94H60.45l-1.22,2.49" style="fill:#f6f5f5"/><path id="path7925" d="M73.08,111.62a6.72,6.72,0,0,1,5.29,2.89l-1.3,1.12a4.86,4.86,0,0,0-4-2.42s-4.83,0-4.83,6.23c0,0,0,5.66,4.64,5.66a5.44,5.44,0,0,0,3.61-1.5v-3.06H72.14v-1.49h6.23v5.2a9.26,9.26,0,0,1-5.66,2.42,6.89,6.89,0,0,1-4.56-2,8.51,8.51,0,0,1-1.94-5.28,9.18,9.18,0,0,1,1.94-5.48,6.89,6.89,0,0,1,4.93-2.24" style="fill:#f6f5f5"/></svg>