<svg id="Capa_1" data-name="Capa 1" xmlns="http://www.w3.org/2000/svg" viewBox="0 0 200 150"><title>logos_marcas</title><g id="g253"><path id="path255" d="M114.56,69.8a45.75,45.75,0,0,1-14.15,2.39V53.33l1.25-1.85h4.49L108,54.21h-4.26V69.89a43,43,0,0,0,12.82-3.13l2.64,3.87c-1,.45-2.13.88-3.21,1.28ZM99.44,72.19A45.68,45.68,0,0,1,85.3,69.8l-1.43,2.08c-1.07-.37-2.15-.8-3.21-1.28l2.65-3.86a43.14,43.14,0,0,0,12.81,3.09V54.15H91.86l1.84-2.73h4.49l1.25,1.91Zm17.47-6.65a42.37,42.37,0,0,1-12.18,3.24V55.17h5.11l-3.15-4.66h-5.54L99.93,52.3,98.7,50.51H93.19L90,55.17h5.11V68.78a42.37,42.37,0,0,1-12.18-3.24l-3.75,5.51a51.59,51.59,0,0,0,5,2L85.66,71a46.93,46.93,0,0,0,13.75,2.19H100A46.69,46.69,0,0,0,114.13,71l1.42,2.1a46,46,0,0,0,5.06-2l-3.7-5.51" style="fill:#f6f5f5"/></g><g id="g257"><path id="path259" d="M49.92,87.8a.67.67,0,0,0-.6-.65l-.48-.09c-.15,0-.26-.11-.26-.25v-.34a.19.19,0,0,1,.2-.2h4.77a.19.19,0,0,1,.2.2v.34a.25.25,0,0,1-.26.25l-.34.06a.67.67,0,0,0-.59.65v1.57a.66.66,0,0,1-.37.56,8,8,0,0,1-4.58,1.45,5.77,5.77,0,0,1,0-11.53,5.63,5.63,0,0,1,2.5.57.44.44,0,0,0,.69-.26c0-.11.14-.17.28-.17h.28a.4.4,0,0,1,.29.17l.77,2.47v.09a.19.19,0,0,1-.15.17l-.74.14h-.11c-.11,0-.2-.11-.25-.2L51,82.52a3.57,3.57,0,0,0-3.49-2c-2,0-2.7,2-2.61,5s.85,4.89,2.86,4.86a3,3,0,0,0,2-.83.53.53,0,0,0,.14-.31V87.8" style="fill:#f6f5f5"/></g><g id="g261"><path id="path263" d="M57.73,80h5.66a.78.78,0,0,1,.68.48L64.64,82s0,0,0,.08a.19.19,0,0,1-.2.2h-.54a.32.32,0,0,1-.26-.17l-.28-.37A1.57,1.57,0,0,0,62.08,81h-2.9a.44.44,0,0,0-.45.43v1.76a.44.44,0,0,0,.45.43h.69a.73.73,0,0,0,.79-.49l.17-.48c0-.11.14-.17.29-.17h.36a.37.37,0,0,1,.29.17l.94,2.93v.08c0,.09-.06.14-.15.17l-.42.09s-.09,0-.12,0-.19-.12-.25-.2l-.29-.54a1.12,1.12,0,0,0-1-.54H59.24a.44.44,0,0,0-.45.42v4.83a.44.44,0,0,0,.45.43h3.24a1.72,1.72,0,0,0,1.36-.68l.37-.51a.32.32,0,0,1,.26-.17H65a.19.19,0,0,1,.2.2.1.1,0,0,1,0,.08l-.71,1.71a.74.74,0,0,1-.68.42H54.84a.19.19,0,0,1-.2-.2v-.48a.26.26,0,0,1,.25-.26l.66-.08a.67.67,0,0,0,.59-.65v-7.9a.68.68,0,0,0-.59-.66L54.89,81a.3.3,0,0,1-.25-.26v-.48a.22.22,0,0,1,.2-.23h2.89" style="fill:#f6f5f5"/></g><g id="g265"><path id="path267" d="M30.82,91.3a.19.19,0,0,1-.2-.2v-.48a.26.26,0,0,1,.25-.26l.66-.08a.68.68,0,0,0,.59-.66V81.75a.67.67,0,0,0-.59-.65L30.87,81a.31.31,0,0,1-.25-.26v-.48a.21.21,0,0,1,.2-.23H39.4a.79.79,0,0,1,.68.48L40.65,82s0,.06,0,.08a.19.19,0,0,1-.19.2h-.57a.32.32,0,0,1-.26-.17l-.28-.37A1.57,1.57,0,0,0,38.06,81h-2.9a.44.44,0,0,0-.45.43v1.76a.44.44,0,0,0,.45.43h.68a.74.74,0,0,0,.8-.48l.17-.49a.26.26,0,0,1,.28-.17h.37a.4.4,0,0,1,.29.17l.94,2.93v.08a.17.17,0,0,1-.15.17l-.42.09H38c-.11,0-.19-.11-.25-.2l-.29-.54a1.12,1.12,0,0,0-1-.54H35.22a.44.44,0,0,0-.45.43v4.83a.44.44,0,0,0,.45.42h3.24a1.72,1.72,0,0,0,1.36-.68l.37-.51a.32.32,0,0,1,.26-.17H41a.19.19,0,0,1,.2.2.09.09,0,0,1,0,.08L40.45,91a.74.74,0,0,1-.68.42h-9" style="fill:#f6f5f5"/></g><g id="g269"><path id="path271" d="M91.62,81.71a.69.69,0,0,1,.6-.66l.65-.08a.31.31,0,0,0,.26-.26v-.48a.23.23,0,0,0-.2-.23h-5.2a.23.23,0,0,0-.2.23v.48a.25.25,0,0,0,.26.26l.65.08a.69.69,0,0,1,.6.66v7.87a.68.68,0,0,1-.6.65l-.65.09a.29.29,0,0,0-.26.25v.48a.19.19,0,0,0,.2.2h8a.74.74,0,0,0,.69-.42l.71-1.71s0-.05,0-.08a.19.19,0,0,0-.19-.2h-.54a.32.32,0,0,0-.26.17l-.37.51a1.72,1.72,0,0,1-1.36.68H92.13a.44.44,0,0,1-.45-.42V81.71" style="fill:#f6f5f5"/></g><g id="g273"><path id="path275" d="M100.7,80h5.65a.76.76,0,0,1,.68.49l.57,1.5s0,.06,0,.09a.19.19,0,0,1-.2.2h-.59a.34.34,0,0,1-.26-.17l-.28-.37A1.54,1.54,0,0,0,105,81h-2.9a.44.44,0,0,0-.45.43v1.76a.44.44,0,0,0,.45.42h.68a.74.74,0,0,0,.8-.48l.17-.48c0-.12.14-.17.28-.17h.37a.37.37,0,0,1,.29.17l.93,2.92v.09a.18.18,0,0,1-.14.17l-.42.08h-.12c-.11,0-.2-.11-.25-.19l-.29-.54a1.12,1.12,0,0,0-1-.54h-1.25a.44.44,0,0,0-.46.42v4.83a.45.45,0,0,0,.46.43h3.24a1.72,1.72,0,0,0,1.36-.68l.37-.52a.34.34,0,0,1,.26-.17h.54a.19.19,0,0,1,.19.2.15.15,0,0,1,0,.09l-.71,1.7a.74.74,0,0,1-.69.43h-9a.19.19,0,0,1-.19-.2v-.48a.25.25,0,0,1,.25-.26l.66-.08a.68.68,0,0,0,.59-.66v-7.9a.67.67,0,0,0-.59-.65L97.8,81a.31.31,0,0,1-.25-.26v-.48a.21.21,0,0,1,.19-.23h3" style="fill:#f6f5f5"/></g><g id="g277"><path id="path279" d="M141.13,86.74s-.25,3.5,2.79,3.5c2.75,0,2.75-3.13,2.75-3.13V81.77c0-.34-.11-.6-.48-.65l-.51-.09a.31.31,0,0,1-.26-.26v-.48a.23.23,0,0,1,.2-.23h3.21a.22.22,0,0,1,.2.23v.46a.25.25,0,0,1-.25.25l-.51.09a.57.57,0,0,0-.49.65v5c0,.6-.05,4.55-4.32,4.55-5.25,0-5-4.52-5-4.52V81.68a.64.64,0,0,0-.59-.65l-.66-.08a.31.31,0,0,1-.25-.26v-.48a.21.21,0,0,1,.2-.23h4.91a.22.22,0,0,1,.2.23v.48A.26.26,0,0,1,142,81l-.51.08a.58.58,0,0,0-.48.65v5.06" style="fill:#f6f5f5"/></g><g id="g281"><path id="path283" d="M154.19,81.71a.67.67,0,0,1,.6-.65l.65-.09a.31.31,0,0,0,.26-.26v-.48a.23.23,0,0,0-.2-.23h-5.2a.22.22,0,0,0-.2.23v.48a.25.25,0,0,0,.25.26l.66.09a.66.66,0,0,1,.59.65v7.9a.67.67,0,0,1-.59.65l-.66.09a.26.26,0,0,0-.25.25v.48a.19.19,0,0,0,.2.2h7.95a.73.73,0,0,0,.68-.42l.71-1.71s0-.05,0-.08a.19.19,0,0,0-.2-.2h-.54a.32.32,0,0,0-.25.17l-.37.51a1.72,1.72,0,0,1-1.36.68H154.7a.44.44,0,0,1-.45-.42v-8.1" style="fill:#f6f5f5"/></g><g id="g285"><path id="path287" d="M165,81.33a.44.44,0,0,1,.45-.43h1.31a2.1,2.1,0,0,1,1.36.8l.37.51a.32.32,0,0,0,.26.17h.54a.19.19,0,0,0,.2-.2.09.09,0,0,0,0-.08l-.71-1.71a.74.74,0,0,0-.68-.42h-8.84a.73.73,0,0,0-.68.42l-.71,1.71s0,.05,0,.08a.19.19,0,0,0,.2.2h.54a.3.3,0,0,0,.25-.17l.37-.51a2.11,2.11,0,0,1,1.37-.8h1.3a.43.43,0,0,1,.46.43v8.24a.67.67,0,0,1-.6.65l-.65.09c-.14,0-.26.14-.26.25v.49a.22.22,0,0,0,.2.22h5.2a.22.22,0,0,0,.2-.22v-.49a.25.25,0,0,0-.26-.25l-.65-.09a.67.67,0,0,1-.6-.65V81.33" style="fill:#f6f5f5"/></g><g id="g289"><path id="path291" d="M24.41,87.38H20.86c-.43,0-.29-.35-.29-.35l1.82-4.68s.11-.4.34-.4.34.4.34.4L24.69,87S24.83,87.38,24.41,87.38Zm5.05,3-.2-.06s-.54-.11-.9-1l-3.13-8.86a.7.7,0,0,0-.68-.46H22.36a.66.66,0,0,0-.68.46l-3.47,8.86a1.34,1.34,0,0,1-1.05,1l-.34.06a.31.31,0,0,0-.23.26v.51a.2.2,0,0,0,.2.2h3.5a.22.22,0,0,0,.22-.2v-.51a.27.27,0,0,0-.19-.26l-.12,0a.7.7,0,0,1-.57-.65c0-.09,0-.14,0-.23l.29-.71a.54.54,0,0,1,.54-.31h4.26a.56.56,0,0,1,.54.31l.25.71a.54.54,0,0,1,0,.23.69.69,0,0,1-.57.65l-.11,0a.28.28,0,0,0-.2.26v.51a.22.22,0,0,0,.23.2h4.54a.19.19,0,0,0,.2-.2v-.51a.27.27,0,0,0-.2-.26" style="fill:#f6f5f5"/></g><g id="g293"><path id="path295" d="M73.11,84.92H70.92a.42.42,0,0,1-.45-.42V81.31a.44.44,0,0,1,.45-.42h2.19s2.16,0,2.16,2S73.11,84.92,73.11,84.92Zm6.17,5.43-.4-.06a1.79,1.79,0,0,1-1.59-1.16,13.29,13.29,0,0,0-2.39-3.36c-.25-.25.06-.31.06-.31,3.15-.77,3-2.81,3-2.81C77.91,80,74.5,80,74.5,80H66.58a.21.21,0,0,0-.2.23v.48a.25.25,0,0,0,.25.25l.66.09a.63.63,0,0,1,.59.6v8a.66.66,0,0,1-.59.65l-.66.09a.3.3,0,0,0-.25.25v.49a.19.19,0,0,0,.2.2h5.2a.19.19,0,0,0,.19-.2v-.49a.25.25,0,0,0-.25-.25l-.65-.09a.66.66,0,0,1-.6-.65V86.37a.44.44,0,0,1,.45-.43h.74a2.37,2.37,0,0,1,2,1.42s.6,1.11,1.25,2.36,1.11,1.54,3,1.54h1.34a.19.19,0,0,0,.19-.2v-.51c0-.09-.08-.17-.19-.2" style="fill:#f6f5f5"/></g><g id="g297"><path id="path299" d="M130.32,90.38c-2,.06-2.81-1.85-2.9-4.83s.57-4.91,2.62-5,2.81,1.76,2.89,4.83S132.39,90.35,130.32,90.38Zm2.36-9.94a5.77,5.77,0,1,0,3.24,5.2,5.76,5.76,0,0,0-3.24-5.2" style="fill:#f6f5f5"/></g><g id="g301"><path id="path303" d="M177,84.93h-2.19a.42.42,0,0,1-.45-.43V81.32a.44.44,0,0,1,.45-.43H177a2.08,2.08,0,0,1,2.16,2C179.17,84.93,177,84.93,177,84.93Zm6.16,5.42-.4,0a1.82,1.82,0,0,1-1.59-1.17,13,13,0,0,0-2.35-3.35c-.26-.26,0-.31,0-.31,3.16-.77,3-2.82,3-2.82,0-2.69-3.41-2.67-3.41-2.67h-8a.23.23,0,0,0-.2.23v.51a.26.26,0,0,0,.26.26l.65.08a.65.65,0,0,1,.6.6v8a.68.68,0,0,1-.6.66l-.65.08a.29.29,0,0,0-.26.26v.48a.19.19,0,0,0,.2.2h5.2a.19.19,0,0,0,.2-.2v-.48a.26.26,0,0,0-.25-.26l-.66-.08a.67.67,0,0,1-.59-.66V86.4a.44.44,0,0,1,.45-.42h.74a2.35,2.35,0,0,1,2,1.42l1.25,2.36c.65,1.28,1.1,1.53,3,1.53h1.33a.19.19,0,0,0,.2-.2v-.51c0-.08-.06-.2-.2-.23" style="fill:#f6f5f5"/></g><g id="g305"><path id="path307" d="M85.71,84.75a.2.2,0,0,0-.2-.2h-5a.2.2,0,0,0-.2.2V86a.19.19,0,0,0,.2.19h5a.19.19,0,0,0,.2-.19v-1.2" style="fill:#f6f5f5"/></g><g id="g311"><g id="g317"><path id="path319" d="M121.87,87.46a5.92,5.92,0,0,1-4.77,2.7c-3.1.08-4.24-3.13-4.35-7.1s.79-7.25,3.89-7.33a5.21,5.21,0,0,1,4.83,2.55.37.37,0,0,0,.26.2h.11l.74-.14a.18.18,0,0,0,.14-.17v-.08l-1-3.16c0-.11-.14-.17-.29-.17H121a.4.4,0,0,0-.28.17c-.11,1-.91.48-.91.48a6.84,6.84,0,0,0-3.21-.76c-4.23,0-7.64,3.75-7.64,8.38s3.41,8.38,7.64,8.38a6.88,6.88,0,0,0,3.55-1s.88-.59,1,.4a.26.26,0,0,0,.28.17h.37a.35.35,0,0,0,.28-.17l1-3.15V87.6a.19.19,0,0,0-.14-.17l-.74-.14h-.12a.31.31,0,0,0-.28.17" style="fill:#f6f5f5"/></g><g id="g321"><path id="path323" d="M188.33,91.3h-4.26a.19.19,0,0,1-.2-.19v-.49a.25.25,0,0,1,.26-.25l.65-.09a.67.67,0,0,0,.6-.65v-7.9a.67.67,0,0,0-.6-.65l-.65-.09a.3.3,0,0,1-.26-.25v-.49a.21.21,0,0,1,.2-.22h8.58a.77.77,0,0,1,.68.48l.57,1.5s0,.06,0,.09a.2.2,0,0,1-.2.2h-.54a.34.34,0,0,1-.26-.17l-.28-.37a1.54,1.54,0,0,0-1.31-.74h-2.9a.44.44,0,0,0-.45.43v1.76a.44.44,0,0,0,.45.42h.69c.45,0,.71-.19.79-.48l.17-.48c0-.12.14-.17.29-.17h.36a.37.37,0,0,1,.29.17l.94,2.92v.09a.19.19,0,0,1-.15.17l-.42.09h-.12c-.11,0-.19-.12-.25-.2l-.29-.54a1.14,1.14,0,0,0-1-.54h-1.25a.44.44,0,0,0-.45.42v4.83a.44.44,0,0,0,.45.43h3a8.38,8.38,0,0,0,3.8-.63c1.22-.54,1.48-1.39,1.22-1.81s-.85-.66-2.1,0a11.56,11.56,0,0,0-3.07,3s-2.21,3-2.92,4-3.27,4.55-10.15,4.55H20.55c-6.82,0-8.33-2.87-9-3.84s-2.92-4-2.92-4a11.07,11.07,0,0,0-3.07-3c-1.25-.68-1.91-.48-2.13,0s-.15,1.08,1.1,1.81a7.08,7.08,0,0,0,3.87.66,5.58,5.58,0,0,0,3.18-1.28C13.19,88.26,13,85.4,13,84.23V77.16a.71.71,0,0,0-.6-.71l-.65-.12a.31.31,0,0,1-.26-.28v-.74a.23.23,0,0,1,.2-.23H18a.21.21,0,0,1,.2.23V76a.32.32,0,0,1-.26.29l-.65.11a.71.71,0,0,0-.6.71v1.62s.06,2.9-.17,5.28c-.28,3-.77,7.16-6.68,8.13a11.64,11.64,0,0,1-7.41-1.34C.29,89.46-.48,87.44.29,86.16S3,84.74,5,86.05a19,19,0,0,1,5,5.23c2.72,3.89,4.34,5.28,8.55,5.62H180.38c4.23-.37,6.93-2.58,9.65-6.48a18.47,18.47,0,0,1,5-5.22c2-1.28,3.9-1.17,4.66.11s0,3.32-2.16,4.63c-2,1.28-4,1.34-7.41,1.34l-1.82,0" style="fill:#f6f5f5"/></g></g></svg>