<?xml version="1.0" encoding="utf-8"?>
<!-- Generator: Adobe Illustrator 22.1.0, SVG Export Plug-In . SVG Version: 6.00 Build 0)  -->
<svg version="1.0" id="Capa_1" xmlns="http://www.w3.org/2000/svg" xmlns:xlink="http://www.w3.org/1999/xlink" x="0px" y="0px"
	 width="300px" height="59.1px" viewBox="0 0 300 59.1" style="enable-background:new 0 0 300 59.1;" xml:space="preserve">
<g>
	<path style="fill:#F6F5F5;" d="M268.1,0c-18.1,0-30.9,13.1-30.9,29.4c-0.3,16.6,12.5,29.7,31.2,29.7c19.1,0,31.6-13.4,31.6-29.4
		C300,14.4,288.8,0,268.1,0z M268.4,50.6c-12.8,0-21.9-9.4-21.9-21.2c0-11.6,9.4-21.3,21.9-21.3c12.5,0,21.9,9.7,21.9,21.3
		C290.3,40.9,280.6,50.6,268.4,50.6z"/>
	<polygon style="fill:#F6F5F5;" points="64.7,10.3 74.4,10.3 74.4,49.4 64.7,49.4 64.7,57.8 128.1,57.8 128.1,38.8 118.4,38.8 
		118.4,49.4 84.1,49.4 84.1,34.4 99.4,34.4 99.4,40 109.1,40 109.1,19.4 99.4,19.4 99.4,25.9 84.1,25.9 84.1,10.3 118.4,10.3 
		118.4,21.6 128.1,21.6 128.1,1.9 64.7,1.9 	"/>
	<path style="fill:#F6F5F5;" d="M47.2,26.3c-1.2-0.3-6.3-0.9-9.1-0.9C30,25.6,22.2,25,16.3,24.4c-3.8-0.6-6.6-2.5-6.6-6.9
		c0-1.9,0.6-3.7,1.9-4.7c3.1-3.1,9.4-4.4,16.6-4.1c7.2,0.3,12.2,2.2,16.3,4.1c3.4,1.6,4.7,3.4,4.7,6.3v2.5h9.7V1.9h-9.7v4.1
		c-3.1-1.9-11.6-5.3-22.5-5.3C15,0.6,8.7,2.8,5,6.6c-2.8,2.5-5,6.9-5,11.3c0,6.6,3.8,11.2,9.1,13.4c5.9,2.2,18.1,2.5,24.1,2.8
		c5.6,0.3,10.6,0,14.1,1.9c2.2,0.9,3.4,3.4,3.4,5.9c0,4.7-4.4,9.1-17.8,9.1c-6.3,0-21.6-2.5-21.6-9.1v-3.8h-10v19.4h9.7v-3.4
		c2.8,1.6,11.2,5,22.2,5s19.1-2.2,22.5-6.6c2.5-3.1,4.4-6.6,4.4-10.9C60,33.7,54.4,27.8,47.2,26.3z"/>
	<polygon style="fill:#F6F5F5;" points="134.4,10.3 143.8,10.3 143.8,49.4 134.4,49.4 134.4,57.8 162.8,57.8 162.8,49.4 153.4,49.4 
		153.4,10.3 162.8,10.3 162.8,1.9 134.4,1.9 	"/>
	<polygon style="fill:#F6F5F5;" points="210,25 229.4,10.3 237.5,10.3 237.5,1.9 209.7,1.9 209.7,10.3 215.6,10.3 187.8,31.9 
		187.8,10.3 197.2,10.3 197.2,1.9 168.4,1.9 168.4,10.3 177.8,10.3 177.8,49.4 168.4,49.4 168.4,57.8 197.2,57.8 197.2,49.4 
		187.8,49.4 187.8,42.2 202.2,30.9 217.5,49.4 209.7,49.4 209.7,57.8 238.4,57.8 238.4,49.4 230.3,49.4 	"/>
</g>
</svg>
