<svg id="Capa_1" data-name="Capa 1" xmlns="http://www.w3.org/2000/svg" viewBox="0 0 200 150"><title>logos_marcas</title><g id="tudor"><path d="M63.59,118.81a9.57,9.57,0,0,0,2.24-.17,5.87,5.87,0,0,0,4.65-5.17v-16a.49.49,0,0,0-.09-.34,1.51,1.51,0,0,0-1.12-.78c-.86-.17-1.63-.34-2.49-.43H65.57v-3H79.34v3h-.77a23.22,23.22,0,0,0-2.5.43,1.72,1.72,0,0,0-1.12.78.54.54,0,0,0-.08.34v16a6.9,6.9,0,0,1-.52,2.67,10.14,10.14,0,0,1-5.68,5.77,14.3,14.3,0,0,1-5.68.86,16.2,16.2,0,0,1-5.68-.86,8.78,8.78,0,0,1-5.42-4.48,7.25,7.25,0,0,1-.78-3.27V97.46a.54.54,0,0,0-.08-.34,1.53,1.53,0,0,0-1.12-.78c-.86-.25-1.81-.34-2.75-.51v-3h14v3a15.8,15.8,0,0,0-2.75.51,1.72,1.72,0,0,0-1.12.78.54.54,0,0,0-.08.34v16.1a5.24,5.24,0,0,0,3.87,5,12.39,12.39,0,0,0,2.49.26" style="fill:#f6f5f5"/><path d="M20,122.08v-3.36h.09c.77,0,1.63-.08,2.41-.08a4.88,4.88,0,0,0,1.54-.26,1.15,1.15,0,0,0,.69-.95V96.17H23.14a9.9,9.9,0,0,0-1.63.09,4,4,0,0,0-2.24,1.29A11.14,11.14,0,0,0,17,102H14v-9.2H41.56V102H38.64a11.16,11.16,0,0,0-2.33-4.47,4,4,0,0,0-2.24-1.29,9.37,9.37,0,0,0-1.63-.09H30.89v21.35a1.12,1.12,0,0,0,.69.94,4.63,4.63,0,0,0,1.55.26c.77,0,1.63.09,2.41.09h.08v3.35L20,122.08Z" style="fill:#f6f5f5"/><path d="M98.88,92.82a23.47,23.47,0,0,1,8.44,1.89A14.26,14.26,0,0,1,114,113.3a16.89,16.89,0,0,1-13.6,8.86H84.94v-2.92c.77,0,1.55-.09,2.41-.17a3.61,3.61,0,0,0,1-.18,1.51,1.51,0,0,0,.6-.17,1.85,1.85,0,0,0,.26-1V97.12A1.38,1.38,0,0,0,88.38,96a3,3,0,0,0-.95-.34,20.3,20.3,0,0,0-2.32-.35V92.73H98.88Zm-3.7,3.27a1.72,1.72,0,0,0-.26.94l-.08,20.66a2.3,2.3,0,0,0,.25,1,1.25,1.25,0,0,0,.61.17c.34.09.6.09.94.18a23.46,23.46,0,0,0,2.41.08,8.34,8.34,0,0,0,7.92-3.87,16,16,0,0,0-.17-14.89,10.16,10.16,0,0,0-7.66-4.65H96.73c-.34,0-.6.09-1,.09s-.43.08-.6.26" style="fill:#f6f5f5"/><path d="M135.46,91.7a15.75,15.75,0,1,1-15.75,15.75A15.75,15.75,0,0,1,135.46,91.7m6.63,24.44a16.22,16.22,0,0,0,2-8.69,16.23,16.23,0,0,0-2-8.7,7.56,7.56,0,0,0-6.63-3.61,7.46,7.46,0,0,0-6.63,3.61,16.23,16.23,0,0,0-2,8.7,16.22,16.22,0,0,0,2,8.69,7.89,7.89,0,0,0,13.26,0" style="fill:#f6f5f5"/><path d="M174.62,105.55a4.6,4.6,0,0,0,3.44-3.78,4.72,4.72,0,0,0-4-5.43h-.26a32.22,32.22,0,0,0-4-.34H164v10.07h7.49a19.67,19.67,0,0,0,3.1-.52m-5.68,3.79H164v8.18a1.06,1.06,0,0,0,.35.77.25.25,0,0,0,.17.09l1,.26,2.33.25v3.19H154.48v-3.27l2.32-.26a2.35,2.35,0,0,0,1-.26.31.31,0,0,0,.17-.09.91.91,0,0,0,.34-.77V97.29a.83.83,0,0,0-.34-.77c-.09-.09-.09-.09-.17-.09a4.18,4.18,0,0,0-1-.34l-2.5-.52V92.73h20.83a7.5,7.5,0,0,1,4.05,1.2,8.59,8.59,0,0,1,3.7,6.46,8.48,8.48,0,0,1-7.83,9l5.76,7.83a2.74,2.74,0,0,0,1.89,1.12c1,.17,2.16.26,3.19.34V122h-8.35Z" style="fill:#f6f5f5"/></g><g id="shield"><path d="M113.68,44.53v-9A16.78,16.78,0,0,1,103,35.24v9.29Zm-16.43,0V35.24a16.85,16.85,0,0,1-10.68.34v8.87H97.25Zm21.17,5.34A32.19,32.19,0,0,1,100.09,78.1,32.3,32.3,0,0,1,81.75,49.87V26.8a12.16,12.16,0,0,0,18.34.86,12.07,12.07,0,0,0,18.33-.86Zm-4.91,0H86.66a27.2,27.2,0,0,0,13.43,22.72,27.19,27.19,0,0,0,13.42-22.72" style="fill:#f6f5f5"/></g></svg>