<svg id="Capa_1" data-name="Capa 1" xmlns="http://www.w3.org/2000/svg" viewBox="0 0 200 150"><title>logos_marcas</title><path d="M199.42,96.28v-2H1.42v2Z" style="fill:#f6f5f5"/><path d="M6.6,100.1v.18c.27,0,.41.09.41.27v7c0,.18-.14.27-.41.27v.19h7.9c.14,0,.23.13.28.4H15v-2.68h-.18c0,.28-.09.41-.28.41H9.28v-5.63c0-.18.14-.23.46-.27v-.18Z" style="fill:#f6f5f5"/><path d="M26.36,108.05v-.19c-.18,0-.27,0-.32-.13l-2.77-6c0-.09.05-.13.18-.18v-.18H20.27v.18c.14,0,.19.09.19.18l-2.64,6-.27.13v.19h2.27v-.19l-.18-.13.41-1h3.54l.45,1-.22.13v.19ZM21.82,103l1.27,2.63H20.55Z" style="fill:#f6f5f5"/><path d="M36.94,106.09a1.52,1.52,0,0,0-1.22-1.59,1.54,1.54,0,0,0,1-1.45,1.45,1.45,0,0,0-.59-1.36,4.51,4.51,0,0,0-2-.32H29.63v.18c.32,0,.5.14.5.27v5.77c0,.18-.18.27-.5.27v.19h4.63C36,108.05,36.94,107.41,36.94,106.09Zm-4.81-2v-1.45H34c.63,0,1,.27,1,.73s-.37.72-1,.72Zm0,1h1.68l.82.13A.65.65,0,0,1,35,106q0,.81-1.23.81H32.13Z" style="fill:#f6f5f5"/><path d="M43.89,101.28a4.69,4.69,0,0,0-2.77.81,3.26,3.26,0,0,0,0,5.23,4.7,4.7,0,0,0,2.77.82,4.64,4.64,0,0,0,2.73-.82,3.25,3.25,0,0,0,0-5.23A4.63,4.63,0,0,0,43.89,101.28Zm0,5.27a2.44,2.44,0,0,1-1.5-.5,1.69,1.69,0,0,1-.59-1.32,1.74,1.74,0,0,1,.59-1.36,2.35,2.35,0,0,1,1.5-.46,2.24,2.24,0,0,1,1.46.46,1.71,1.71,0,0,1,.59,1.36,1.65,1.65,0,0,1-.59,1.32A2.32,2.32,0,0,1,43.89,106.55Z" style="fill:#f6f5f5"/><path d="M57.7,101.91a2.67,2.67,0,0,0-1.77-.54H51.07v.18c.23,0,.32.14.32.27v5.77c0,.18-.09.27-.32.27v.19h2.64v-.19c-.28,0-.41-.09-.41-.27v-2h1.45l.64,1.09a8.19,8.19,0,0,1,.5,1c0,.14-.1.18-.37.18v.19h3.09v-.19a.54.54,0,0,1-.54-.31l-1.37-2a2.16,2.16,0,0,0,1.68-2A1.93,1.93,0,0,0,57.7,101.91Zm-1.22,1.55c0,.54-.32.82-1,.82H53.3v-1.64h2C56.11,102.64,56.48,102.91,56.48,103.46Z" style="fill:#f6f5f5"/><path d="M67.2,101.55v-.18H64v.18c.13,0,.22.09.22.18l-2.63,6c0,.09-.14.13-.32.13v.19h2.27v-.19l-.18-.13.41-1h3.54l.46,1c0,.09-.09.13-.19.13v.19h2.5v-.19c-.18,0-.27,0-.32-.13l-2.81-6C67,101.64,67.06,101.6,67.2,101.55Zm-.37,4h-2.5L65.56,103Z" style="fill:#f6f5f5"/><path d="M77.51,102.91h2.18c.18,0,.27.14.27.37h.18v-2.23H80c0,.23-.09.32-.27.32H73.33c-.18,0-.27-.09-.27-.32h-.19v2.23h.19c0-.23.09-.37.27-.37h2.13v4.68c0,.18-.09.27-.32.27v.19h2.73v-.19c-.23,0-.36-.09-.36-.27Z" style="fill:#f6f5f5"/><path d="M89.54,102.09a4.62,4.62,0,0,0-2.72-.81,4.46,4.46,0,0,0-2.73.81,3.26,3.26,0,0,0,0,5.23,4.47,4.47,0,0,0,2.73.82,4.63,4.63,0,0,0,2.72-.82,3.25,3.25,0,0,0,0-5.23Zm-2.72.82a2.21,2.21,0,0,1,1.45.46,1.71,1.71,0,0,1,.59,1.36,1.65,1.65,0,0,1-.59,1.32,2.29,2.29,0,0,1-1.45.5,2.44,2.44,0,0,1-1.5-.5,1.65,1.65,0,0,1-.59-1.32,1.71,1.71,0,0,1,.59-1.36A2.35,2.35,0,0,1,86.82,102.91Z" style="fill:#f6f5f5"/><path d="M101.35,103.5a1.93,1.93,0,0,0-.68-1.59,2.79,2.79,0,0,0-1.81-.54H94v.18c.22,0,.31.14.31.27v5.77c0,.18-.09.27-.31.27v.19h2.63v-.19c-.27,0-.41-.09-.41-.27v-2h1.45l1.19,2.13c0,.14-.14.18-.37.18v.19h3.05v-.19a.61.61,0,0,1-.55-.31l-1.32-2A2.22,2.22,0,0,0,101.35,103.5Zm-5.13.78v-1.64h2c.77,0,1.18.27,1.18.82s-.37.82-1,.82Z" style="fill:#f6f5f5"/><path d="M107.67,101.37h-3v.18c.32,0,.5.14.5.27v5.77c0,.18-.18.27-.5.27v.19h3v-.19c-.32,0-.5-.09-.5-.27v-5.77c0-.13.18-.22.5-.27Z" style="fill:#f6f5f5"/><path d="M117.52,102.09a4.67,4.67,0,0,0-2.77-.81,4.62,4.62,0,0,0-2.72.81,3.25,3.25,0,0,0,0,5.23,4.63,4.63,0,0,0,2.72.82,4.68,4.68,0,0,0,2.77-.82,3.31,3.31,0,0,0,0-5.23Zm-4.22,1.28a2.21,2.21,0,0,1,1.45-.46,2.35,2.35,0,0,1,1.5.46,1.71,1.71,0,0,1,.59,1.36,1.65,1.65,0,0,1-.59,1.32,2.44,2.44,0,0,1-1.5.5,2.29,2.29,0,0,1-1.45-.5,1.65,1.65,0,0,1-.59-1.32A1.71,1.71,0,0,1,113.3,103.37Z" style="fill:#f6f5f5"/><path d="M135.38,102.37a3.05,3.05,0,0,0-2.41-1h-4.54v.18c.27,0,.36.14.36.27v5.77c0,.18-.09.27-.36.27v.19H133a3,3,0,0,0,2.41-1,3.68,3.68,0,0,0,.77-2.36A3.51,3.51,0,0,0,135.38,102.37Zm-3.41.45a2.46,2.46,0,0,1,1.68.46,1.85,1.85,0,0,1,.5,1.45,1.92,1.92,0,0,1-.5,1.45,2.72,2.72,0,0,1-1.68.41h-1.14v-3.77Z" style="fill:#f6f5f5"/><path d="M141.78,101.82c0-.13.18-.22.5-.27v-.18h-3v.18c.36,0,.5.14.5.27v5.77c0,.18-.14.27-.5.27v.19h3v-.19c-.32,0-.5-.09-.5-.27Z" style="fill:#f6f5f5"/><path d="M152.73,100.1v.18c.27,0,.41.09.41.27v7c0,.18-.14.27-.41.27v.19h3.13v-.19c-.32,0-.45-.09-.45-.27v-7c0-.18.13-.23.45-.27v-.18Z" style="fill:#f6f5f5"/><path d="M164.17,108.05a3,3,0,0,0,2.41-1,3.65,3.65,0,0,0,.73-2.36,3.49,3.49,0,0,0-.73-2.36,3,3,0,0,0-2.41-1h-4.54v.18c.23,0,.37.14.37.27v5.77c0,.18-.14.27-.37.27v.19Zm1.19-3.32a1.8,1.8,0,0,1-.55,1.45,2.64,2.64,0,0,1-1.68.41H162v-3.77h1.09a2.4,2.4,0,0,1,1.68.46A1.73,1.73,0,0,1,165.36,104.73Z" style="fill:#f6f5f5"/><path d="M177.48,103.09h.18v-2h-.18c0,.23-.09.32-.27.32h-6.86v.18c.27,0,.41.14.41.27v5.77c0,.18-.14.27-.41.27v.19h6.77a.42.42,0,0,1,.41.31h.13v-2h-.18c0,.27-.18.41-.36.41H172.8v-1.5h2.87c.18,0,.27.09.27.32h.18v-2h-.18c0,.23-.09.37-.27.37H172.8v-1.23h4.41C177.39,102.73,177.48,102.82,177.48,103.09Z" style="fill:#f6f5f5"/><path d="M186.84,103.59h-.18c0,.23-.09.37-.27.37h-2.87v-1.23h4.41c.18,0,.27.09.27.36h.19v-2h-.19c0,.23-.09.32-.27.32h-6.86v.18c.27,0,.41.14.41.27v5.77c0,.18-.14.27-.41.27v.19h6.77a.42.42,0,0,1,.41.31h.14v-2h-.19c0,.27-.18.41-.36.41h-4.32v-1.5h2.87c.18,0,.27.09.27.32h.18Z" style="fill:#f6f5f5"/><path d="M194.38,107a1,1,0,0,0-.36-.87,1.11,1.11,0,0,0-1.64,0,1,1,0,0,0-.36.87,1.18,1.18,0,0,0,2.36,0Z" style="fill:#f6f5f5"/><path d="M20,41.55c-4.63,0-8.27,1.09-11,3.27A9.33,9.33,0,0,0,9,59.67c2.72,2.18,6.36,3.27,11,3.27s8.27-1.09,11-3.27a9.27,9.27,0,0,0,0-14.85C28.27,42.64,24.59,41.55,20,41.55ZM9.37,52.27a7.64,7.64,0,0,1,2.5-5.77c2-1.77,4.63-2.68,8.13-2.68s6.13.91,8.09,2.68a7.87,7.87,0,0,1,0,11.49c-2,1.77-4.64,2.63-8.09,2.63s-6.18-.86-8.13-2.63A7.62,7.62,0,0,1,9.37,52.27Z" style="fill:#f6f5f5"/><path d="M57.75,53.08V50.81h-14V44.32h16V42.05H39.62V62.44h4.09V53.08Z" style="fill:#f6f5f5"/><path d="M82.37,53.08V50.81H68.29V44.32h16V42.05H64.2V62.44h4.09V53.08Z" style="fill:#f6f5f5"/><path d="M93,42.05H89V62.44h4Z" style="fill:#f6f5f5"/><path d="M121.43,48.18h4.09a7.24,7.24,0,0,0-4.27-5,18.34,18.34,0,0,0-8.36-1.68c-4.54,0-8.13,1-10.76,3.18a9.19,9.19,0,0,0-3.68,7.58,9.15,9.15,0,0,0,3.49,7.54c2.5,2,6,3.09,10.63,3.09a17.21,17.21,0,0,0,9.22-2.18,8.36,8.36,0,0,0,4-6h-4.09a5.83,5.83,0,0,1-2.54,4.18,10.58,10.58,0,0,1-6.32,1.68c-3.45,0-6.09-.81-8-2.49a7.87,7.87,0,0,1-2.45-6.05,7.44,7.44,0,0,1,2.45-5.72c1.86-1.68,4.5-2.54,8-2.54A12.08,12.08,0,0,1,118.43,45,5.12,5.12,0,0,1,121.43,48.18Z" style="fill:#f6f5f5"/><path d="M135.15,42.05h-4.09V62.44h4.09Z" style="fill:#f6f5f5"/><path d="M166.31,42.05h-3.86V58.58h-.09L146.28,42.05h-4.36V62.44h3.86V46.09h.09l16,16.35h4.45Z" style="fill:#f6f5f5"/><path d="M192.93,53.08V50.81H177V44.32h17.08V42.05H172.94V62.44H194.2V60.17H177V53.08Z" style="fill:#f6f5f5"/><path d="M19.05,68.8H5.6V89.19H9.69V80.84h9.36a12.18,12.18,0,0,0,7-1.59,5.29,5.29,0,0,0,0-8.86C24.41,69.3,22.05,68.8,19.05,68.8ZM9.69,71.07h8c4.45,0,6.68,1.23,6.68,3.77s-2.23,3.73-6.68,3.73h-8Z" style="fill:#f6f5f5"/><path d="M45.89,68.8H41.4L29.45,89.19h4.18l3.45-6.13H50l3.36,6.13h4.45Zm-2.36,2.41h.09l5.09,9.54H38.35Z" style="fill:#f6f5f5"/><path d="M67.56,72.8h.09l16,16.39h4.45V68.8H84.23V85.33h-.09L68,68.8H63.7V89.19h3.86Z" style="fill:#f6f5f5"/><path d="M118.66,71.07V68.8H97.54V89.19H118.8V86.88H101.63v-7h15.89V77.57H101.63v-6.5Z" style="fill:#f6f5f5"/><path d="M149.05,77.38a4.61,4.61,0,0,0,1.27-3.22,4.43,4.43,0,0,0-2.5-3.91A13.3,13.3,0,0,0,141,68.8h-14.4V89.19h4.09V80.47h9.9a5.78,5.78,0,0,1,3.91,1.09,5,5,0,0,1,1.22,2.59,21.47,21.47,0,0,1,.37,3,2.68,2.68,0,0,0,.72,2.08h4.59A4.05,4.05,0,0,1,150,86.61l-.37-3a4.86,4.86,0,0,0-1.09-2.68,5.11,5.11,0,0,0-3.49-1.5v-.09A7.33,7.33,0,0,0,149.05,77.38Zm-8.22-6.31a7.12,7.12,0,0,1,4.13,1,2.8,2.8,0,0,1,1.27,2.45c0,2.46-2.36,3.64-7,3.64H130.7V71.07Z" style="fill:#f6f5f5"/><path d="M171.67,68.8h-4.5L155.23,89.19h4.17l3.46-6.13h12.9l3.36,6.13h4.5Zm-2.36,2.41h.09l5.09,9.54H164.13Z" style="fill:#f6f5f5"/><path d="M193.74,68.8h-4.08V89.19h4.08Z" style="fill:#f6f5f5"/></svg>