<svg id="Capa_1" data-name="Capa 1" xmlns="http://www.w3.org/2000/svg" viewBox="0 0 200 150"><title>logos_marcas</title><path d="M135.12,63.9c-2.88-3-3.27-3.91-4-9.11h7.08c.31,0,.68-.22.64.5-.19,3.85,1.35,5.9,5.1,6.89s7.25.84,10.42-1.55a5.15,5.15,0,0,0,2.09-5.13A4.74,4.74,0,0,0,153,51.6a12.33,12.33,0,0,0-2.4-.57c-3.07-.43-6.2-.08-9.25-.79a17.25,17.25,0,0,1-5-1.83,8.41,8.41,0,0,1-.62-14.26,17.44,17.44,0,0,1,8.23-3,27.79,27.79,0,0,1,12.32,1c4.45,1.47,7.17,4.36,7.54,9.21,0,.52.14.71-.5.71-2.4,0-4.79,0-7.21,0,.76-3.37-.58-5.48-4-6.24a19.66,19.66,0,0,0-8.12,0c-2.91.58-4.38,2.14-4.42,4.65,0,2.14,1.77,3.84,4.42,4.58s5.6.29,8.37.76a18.7,18.7,0,0,1,7.28,2.41c3.79,2.43,4.65,5.91,4,10,0,.31-.11.63-.17.94-.19.61,0,1.38-.82,1.7h0A3.76,3.76,0,0,1,160.73,63c-5,4-10.86,4.6-17,4a18.8,18.8,0,0,1-8-2.7A.8.8,0,0,1,135.12,63.9Z" style="fill:#f6f5f5"/><path d="M118.82,66.17a2.22,2.22,0,0,0,.6-1.93q0-15.27,0-30.53a2.53,2.53,0,0,0-.5-1.91H127c-.55,1.49-.48,33.24.1,34.37Z" style="fill:#f6f5f5"/><path d="M74.2,83l3.45-9.38a2.27,2.27,0,0,1,2.63-.85c.26.2.17.51.17.77,0,3.84,0,7.68,0,11.52,0,.76-.33.76-.91.79s-.82-.29-.81-.9c0-2.82,0-5.64,0-8.46a2.71,2.71,0,0,0-.24-1.34c-1.13,3.12-2.25,6.25-3.41,9.37-.2.54-.18,1.34-1.13,1.32s-.81-.81-1-1.28c-1.2-3.11-2.33-6.24-3.72-9.31,0,3.12,0,6.24,0,9.36,0,.5.36,1.24-.73,1.25s-.77-.7-.77-1.22c0-3.56,0-7.13,0-10.69,0-.45-.35-1.28.61-1.2.8.06,1.82-.53,2.29.8C71.75,76.57,72.94,79.61,74.2,83Z" style="fill:#f6f5f5"/><path d="M125.07,76.22c-.73,2.83-1.48,5.66-2.19,8.49-.21.83-.57,1.26-1.5,1.09-.41-.08-.61-.16-.72-.62-1-3.88-2-7.75-3-11.63-.08-.32-.38-.86.39-.88s1.24,0,1.44.84c.54,2.42,1.15,4.82,1.74,7.23.15.62.33,1.22.61,2.24.88-3.33,1.64-6.26,2.42-9.19.14-.54.11-1.17,1-1.14s.81.54,1,1.08c.83,3,1.68,5.91,2.64,9.29.55-2.34,1-4.31,1.48-6.28.21-.94.45-1.88.61-2.83s.59-1.6,1.81-1.08c-1,4.11-2,8.25-3,12.4-.17.7-.64.49-1.06.55-.61.1-.87-.13-1-.74-.79-2.93-1.64-5.84-2.47-8.75Z" style="fill:#f6f5f5"/><path d="M44.82,106.31c-2.25,0-4.06-.72-5-2.88-.15-.32-.63-.75.06-1,.46-.15.93-.52,1.38.25a4,4,0,0,0,5,1.94,2.12,2.12,0,0,0,1.66-2,1.8,1.8,0,0,0-1.45-1.93c-1.23-.4-2.49-.67-3.72-1A3.44,3.44,0,0,1,42.81,93c2.5-.72,5,.08,6.07,2,.16.28.78.75.06,1.09-.49.22-1,.59-1.46-.27A3.36,3.36,0,0,0,43,94.44a1.89,1.89,0,0,0-1.27,1.8,1.68,1.68,0,0,0,1.38,1.68c1.05.33,2.13.55,3.2.83,2.33.62,3.54,1.91,3.45,3.7-.1,2.06-1.66,3.57-4,3.86C45.47,106.34,45.14,106.31,44.82,106.31Z" style="fill:#f6f5f5"/><path d="M15.14,78l-.52-1.4c.22-2.54,1.09-3.62,3.3-4.07a5,5,0,0,1,5.52,2.23c.18.34.71.76-.06,1.07-.51.21-.91.44-1.36-.29a3.32,3.32,0,0,0-4.43-1.36A1.82,1.82,0,0,0,16.4,76a1.67,1.67,0,0,0,1.33,1.57c1.19.34,2.4.62,3.59,1,1.89.52,2.92,1.69,3,3.34a3.76,3.76,0,0,1-2.71,3.75c-2.89,1-6,0-7.16-2.49-.12-.24-.84-.75,0-1,.47-.16.91-.54,1.36.25a3.91,3.91,0,0,0,4.7,2,2.16,2.16,0,0,0,2-2c.09-1.21-.68-1.75-1.66-2.07a16.43,16.43,0,0,0-2.27-.58A5.8,5.8,0,0,1,15.14,78Z" style="fill:#f6f5f5"/><path d="M31.07,78.79C30.43,81,29.84,83,29.34,84.9c-.15.57-.26.91-.94.9s-.74-.35-.85-.85-.33-1-.49-1.58l-2.14-7.15c1.19-.48,1.68-.06,1.95,1.14.41,1.78,1,3.51,1.66,5.6.66-2.27,1.23-4.21,1.76-6.15.13-.48.22-.79.86-.79s.64.36.76.75c.6,2,1.2,3.94,1.9,6.26l1.85-6c.13-.42.1-.93.78-.95s.84.06.63.73c-.82,2.77-1.63,5.55-2.41,8.34-.13.46-.27.67-.81.69s-.79-.31-.93-.78C32.33,83,31.75,81.06,31.07,78.79Z" style="fill:#f6f5f5"/><path d="M160.36,78.25a3.05,3.05,0,0,0-.73,2.29c0,1.48,0,3,0,4.44,0,.55-.07.84-.74.83S158,85.65,158,85c0-3.79,0-7.58,0-11.37,0-.59.08-.93.81-.94s.82.3.81.9c0,1.2,0,2.4,0,3.81,1-.93,1.89-1.74,3.26-1.6a2.92,2.92,0,0,1,2.81,2.71c.08,2.21,0,4.43.05,6.65,0,.59-.24.65-.73.68s-.79-.2-.78-.8c0-1.84.06-3.69,0-5.54-.08-2-1.33-2.88-3-2A1.16,1.16,0,0,1,160.36,78.25Z" style="fill:#f6f5f5"/><path d="M56,75.77a3.88,3.88,0,0,1,3.33,1.34c.23.3.81.77.34,1.13s-1,.63-1.54-.16a2.52,2.52,0,0,0-2.83-.92c-.69.12-1.23.41-1.27,1.22s.46,1.15,1.16,1.29c1,.18,1.91.33,2.85.56a2.75,2.75,0,0,1,.36,5.32c-2,.83-4.7.34-5.86-1.11-.3-.38-.81-.93-.36-1.3a1,1,0,0,1,1.6.32,3.26,3.26,0,0,0,4,.86A1.29,1.29,0,0,0,58.55,83a1.19,1.19,0,0,0-.91-1.1c-.75-.22-1.52-.38-2.28-.53-2.4-.48-3.23-1.33-3-3.14C52.51,76.72,53.91,75.78,56,75.77Z" style="fill:#f6f5f5"/><path d="M177.62,83.56c.49-.92,1.07-.91,1.72-.18a3.46,3.46,0,0,0,4.11.94,1.31,1.31,0,0,0,.85-1.3,1.18,1.18,0,0,0-.91-1.09c-.88-.25-1.79-.41-2.69-.59C179,81,178,80,177.94,78.7a3,3,0,0,1,2.84-2.87c1.65-.2,3.25-.06,4.34,1.46.21.29.65.7.1,1-.39.21-.9.56-1.32-.1a2.57,2.57,0,0,0-2.91-1c-.74.13-1.35.48-1.33,1.31s.56,1.09,1.27,1.21c.95.16,1.91.32,2.84.56a2.74,2.74,0,0,1,.23,5.32,5.71,5.71,0,0,1-5.5-.69A1.17,1.17,0,0,1,177.62,83.56Z" style="fill:#f6f5f5"/><path d="M49.83,77.21c-.24.36.81.76,0,1.11-.54.23-1,.37-1.4-.28a2.56,2.56,0,0,0-3-.84,1.25,1.25,0,0,0-1.13,1.21c0,.74.48,1.08,1.09,1.23.93.24,1.9.34,2.84.57a2.85,2.85,0,0,1,2.43,2.62,3,3,0,0,1-2.21,2.86c-2,.67-4.59.11-5.61-1.26-.28-.38-.82-.93-.35-1.3a1,1,0,0,1,1.61.33,3.22,3.22,0,0,0,3.87.91,1.36,1.36,0,0,0,1-1.35,1.23,1.23,0,0,0-1.06-1.13c-.84-.2-1.7-.37-2.55-.55-1.86-.39-2.81-1.41-2.7-2.93a3,3,0,0,1,3.07-2.62c.55-.05,1.1,0,1.66,0C48.37,75.91,49.45,76,49.83,77.21Z" style="fill:#f6f5f5"/><path d="M57.41,97.72c1.16-1.34,2.42-2.06,4.09-1.45a2.77,2.77,0,0,1,2,2.4c.26,2.25,0,4.52.12,6.78,0,.73-.45.63-.92.67-.62.06-.64-.29-.64-.76,0-1.8,0-3.6,0-5.4,0-1.21-.28-2.22-1.65-2.49A2.7,2.7,0,0,0,57.7,99.2a7.42,7.42,0,0,0-.3,3c0,1,0,2,0,3,0,.63-.13.88-.83.88s-.8-.36-.79-.95c0-2.49,0-5,0-7.48,0-.47-.46-1.2.57-1.39S57.25,97,57.41,97.72Z" style="fill:#f6f5f5"/><path d="M70,106.33c-2.91,0-4.32-1.4-4.81-4.25-.45-2.66,1-5.28,3.17-5.89A3.66,3.66,0,0,1,73,98.64c.13.38.47.82-.2,1-.41.09-1,.31-1.15-.35a2.17,2.17,0,0,0-2.55-1.79c-1.4.24-1.8,1.37-2.11,2.6a5.81,5.81,0,0,0,.24,3.13,2.18,2.18,0,0,0,1.93,1.73,2,2,0,0,0,2.27-1.42c.29-.85.81-1,1.44-.74s.12,1,0,1.39A3.31,3.31,0,0,1,70,106.33Z" style="fill:#f6f5f5"/><path d="M148.47,80.88c0-3.28,1.88-5.33,4.66-5.1a3.64,3.64,0,0,1,3.11,2.56c.1.39.3.88-.34,1-.45.07-.92.32-1.11-.53a2,2,0,0,0-2.25-1.64A2.31,2.31,0,0,0,150.42,79a5.71,5.71,0,0,0,.1,3.93,2.2,2.2,0,0,0,2,1.64,2,2,0,0,0,2.11-1.49c.27-.87.75-1,1.4-.64s.16.85,0,1.25a3.37,3.37,0,0,1-3.21,2.22,3.7,3.7,0,0,1-3.74-2.11A5.86,5.86,0,0,1,148.47,80.88Z" style="fill:#f6f5f5"/><path d="M146.64,86c-1.91,0-2.8-.87-2.86-2.75-.06-1.66,0-3.33,0-5,0-.7-.05-1.19-.94-1-.43.07-.79,0-.78-.6s.32-.72.78-.66c.87.13,1-.35.94-1.05s-.24-1.43.92-1.39.68.94.65,1.41c0,.92.33,1.11,1.13,1,.49-.05,1.05-.13,1,.7s-.6.6-1,.55c-1.05-.15-1.22.33-1.18,1.25.08,1.61,0,3.24,0,4.86,0,.9.45,1.31,1.34,1.42.47.06,1.39-.54,1.32.58S147,85.66,146.64,86Z" style="fill:#f6f5f5"/><path d="M119.25,105.78V95.29c-1.21.82-2.15,1.91-3.49,2.43a1.62,1.62,0,0,1,.94-2.27,7.42,7.42,0,0,0,2.48-2,1.3,1.3,0,0,1,1.46-.49c.66.17.3.78.31,1.16,0,3.52-.06,7,.06,10.55,0,1.23-.41,1.5-1.44,1.41C119.33,106.14,119.22,106,119.25,105.78Z" style="fill:#f6f5f5"/><path d="M38.73,80.8c0-1.34,0-2.68,0-4,0-.63.22-.76.79-.76s.8.19.8.79q0,4.08,0,8.16c0,.71-.29.8-.9.83s-.68-.39-.68-.87C38.73,83.56,38.73,82.18,38.73,80.8Z" style="fill:#f6f5f5"/><path d="M51.73,101.05c0-1.29,0-2.58,0-3.86,0-.64.13-.89.82-.89s.82.32.81.92q0,4,0,8c0,.65-.2.87-.87.9s-.77-.39-.76-.94C51.75,103.82,51.73,102.44,51.73,101.05Z" style="fill:#f6f5f5"/><path d="M53.43,93.79c.17.74-.18.91-.88.91s-1-.17-1-.91.22-.88.87-.86S53.61,92.93,53.43,93.79Z" style="fill:#f6f5f5"/><path d="M39.4,74.38c-.84.16-.67-.43-.73-.93-.09-.75.31-.76.9-.8.86-.05.79.45.83,1C40.45,74.54,39.89,74.39,39.4,74.38Z" style="fill:#f6f5f5"/><path d="M112.42,59.47c0-4.65-1.77-8.21-6.25-10.27a10.27,10.27,0,0,0,5.72-4.06A8.55,8.55,0,0,0,104.43,32c-5.78,0-11.57,0-17.36,0h-6V66.31H88.8a2,2,0,0,1-.57-1.51c0-4.07,0-8.14,0-12.22,0-.78.22-1,1-1,3.61,0,7.22,0,10.83,0a4.11,4.11,0,0,1,4,2.63,9.42,9.42,0,0,1,.8,3.19c.19,2.61.15,5.28,1.38,7.7.21.43.27,1,1,1,2.41,0,4.83,0,7.47,0A10,10,0,0,1,112.42,59.47Zm-11-13.11c-4.11.14-8.23.06-12.34.09-.65,0-.88-.21-.87-.88q0-3.81,0-7.62c0-.73.32-.83.92-.82,2.08,0,4.16,0,6.24,0V37c1.94,0,3.88,0,5.82,0,2.9.08,5,2.06,5,4.67A4.79,4.79,0,0,1,101.43,46.36Z" style="fill:#f6f5f5"/><path d="M71.61,35.94c-8.2-7.38-22-6.9-29.82,1a17,17,0,0,0,.09,24.35A20.45,20.45,0,0,0,56,67.5c5.74,0,9.84-1.15,13.56-3.62C79.63,57.17,80.62,44.05,71.61,35.94ZM70.19,50.11A13.28,13.28,0,0,1,63.77,61c-5.54,3.54-12.6,2-16.69-3.42-5.91-7.88-2-19.43,7.34-21.92,5.94-1.58,12.54,2.06,14.83,8.19A16,16,0,0,1,70.19,50.11Z" style="fill:#f6f5f5"/><path d="M133.46,94.37a5.06,5.06,0,0,0-6.65-.76,4.53,4.53,0,0,0-1,6.28c1.67,2.3,4.83,2.26,7.33-.24a6.26,6.26,0,0,1-.74,3.35c-1.19,2.32-3.7,2.66-5.39.67-.53-.63-1-.39-1.42-.11s-.07.74.13,1c1.49,2.25,5.33,2.39,7.31.28C135.29,102.49,135.5,96.92,133.46,94.37Zm-1,4.26a3.17,3.17,0,0,1-4.23,1.17c-1.46-.77-1.88-2.26-1.14-4h0l.18-.31a3.1,3.1,0,0,1,4.38-.75A2.82,2.82,0,0,1,132.45,98.63Z" style="fill:#f6f5f5"/><path d="M148.2,99.54A8.1,8.1,0,0,0,147,94.81a4.51,4.51,0,0,0-7.57-.13,9.68,9.68,0,0,0,.1,9.72,4.42,4.42,0,0,0,7.37,0A7.9,7.9,0,0,0,148.2,99.54Zm-2.45,3.71A2.59,2.59,0,0,1,143.3,105a2.69,2.69,0,0,1-2.62-1.69,8.77,8.77,0,0,1-.78-3.75,8.91,8.91,0,0,1,.61-3.53,2.74,2.74,0,0,1,5.17-.13A9.12,9.12,0,0,1,145.75,103.25Z" style="fill:#f6f5f5"/><path d="M160.76,102.37c0-.87-.65-.65-1.09-.61-.88.08-1.11-.29-1.06-1.12.07-1.06,0-2.13,0-3.19s0-2,0-3c0-.49.39-1.28-.39-1.4s-1.76-.37-2.28.71a13.23,13.23,0,0,1-1.07,1.61c-1.33,2-2.66,4-4,6a1.57,1.57,0,0,0-.37,1.54c.24.48.83.2,1.26.22.88,0,1.76,0,2.64,0,2.34,0,2.38,0,2.51,2.26,0,.72.34.81.94.82s.84-.22.79-.81c0-.37,0-.74,0-1.11-.12-.89.2-1.29,1.14-1.17C160.22,103.1,160.8,103.24,160.76,102.37Zm-4.68-.62c-1.14,0-2.29,0-3.72,0l2.15-3.45c.7-1.11,1.41-2.21,2.12-3.31l.29.09c0,1.92,0,3.85,0,5.78C156.94,101.48,156.77,101.77,156.08,101.75Z" style="fill:#f6f5f5"/><path d="M141.3,79.43c-.06-2.07-.62-3-2.1-3.46-2-.61-4.56,0-5.48,1.31-.24.36-.68.9-.23,1.17s1,.61,1.48-.28c.62-1.15,2.67-1.5,3.85-.87a1.83,1.83,0,0,1,.94,2c-.12.72-.92.32-1.4.34a9.81,9.81,0,0,0-3.39.56,3.09,3.09,0,0,0-2,3,3,3,0,0,0,2.61,2.64,4.35,4.35,0,0,0,4.33-1.61c-.32,1.77.56,1.69,1.58,1.44A40.84,40.84,0,0,1,141.3,79.43Zm-1.72,3.11a3,3,0,0,1-3.13,2.13,1.57,1.57,0,0,1-1.68-1.36,1.75,1.75,0,0,1,1.27-2,6.72,6.72,0,0,1,2.43-.34C140,80.93,140.07,81.08,139.58,82.54Z" style="fill:#f6f5f5"/><path d="M91.28,85.5c-.54-2-.18-4.14-.26-6.21s-.71-3-2.22-3.38c-2-.57-4.64.14-5.43,1.47-.21.35-.5.85-.1,1.08a.92.92,0,0,0,1.4-.24,3.19,3.19,0,0,1,3.83-1,1.82,1.82,0,0,1,1,2c-.12.83-.91.37-1.37.39a9.26,9.26,0,0,0-3.65.65,2.89,2.89,0,0,0-1.68,3.18,2.77,2.77,0,0,0,2.51,2.38,4.25,4.25,0,0,0,4.34-1.68c-.31,1.48.34,1.74,1.32,1.66C91.21,85.86,91.32,85.75,91.28,85.5Zm-2-2.88a3,3,0,0,1-3,2.06c-.9,0-1.66-.34-1.84-1.33a1.74,1.74,0,0,1,1.22-2,6.05,6.05,0,0,1,2-.36C89.65,80.94,89.81,81.18,89.29,82.62Z" style="fill:#f6f5f5"/><path d="M80.21,96.31c-3.16-1.06-5.95,1.15-6.07,4.8a4.8,4.8,0,0,0,3,5,4.52,4.52,0,0,0,5.19-1.51c.24-.34.8-.84.35-1.15a1,1,0,0,0-1.63.32,2.45,2.45,0,0,1-3,1.13A2.82,2.82,0,0,1,76,102.35c-.12-.66,0-1,.84-1s1.75,0,2.63,0,1.94,0,2.92,0c.31,0,.61,0,.69-.44A4.84,4.84,0,0,0,80.21,96.31Zm1,3.73c-.24.43-.84.16-1.28.17-1.24,0-2.49,0-3.86,0,.47-2.26,1.55-3.14,3.27-2.82a2.13,2.13,0,0,1,1.53,1.07C81.11,99,81.47,99.53,81.18,100Z" style="fill:#f6f5f5"/><path d="M105.63,76c-2.73.9-4,4.42-2.64,7.42a4.45,4.45,0,0,0,7.54.83c.24-.32.91-.77.32-1.19-.43-.3-1.09-.57-1.56.31a2.33,2.33,0,0,1-2.71,1.19,2.78,2.78,0,0,1-2.22-2.22c-.19-.81-.17-1.44,1-1.29a18.55,18.55,0,0,0,2.36,0c1,0,1.94,0,2.91,0,.41,0,.64,0,.68-.58A4.3,4.3,0,0,0,105.63,76Zm3,3.92c-.54,0-1.1,0-1.65,0s-.83,0-1.24,0-1.06.23-1.27-.18.15-1.06.45-1.51a2.5,2.5,0,0,1,4.53.6C109.72,79.63,109.56,80,108.61,79.91Z" style="fill:#f6f5f5"/><path d="M170.14,81c1.75.07,3.51,0,5.27,0,.34,0,.8.25.89-.49a4.37,4.37,0,0,0-8.61-1.41c-.69,2.5.19,5.18,2.06,6.26a4.82,4.82,0,0,0,6-1.29c.4-.26.74-.54.41-1.08a1.57,1.57,0,0,0-2.14.68,2.22,2.22,0,0,1-2.73.73A2.86,2.86,0,0,1,169.31,82C169.2,81.34,169.32,81,170.14,81Zm-.51-2.43A2.6,2.6,0,0,1,172.16,77a2.44,2.44,0,0,1,2.28,1.89c.26.79.1,1.1-.77,1-.55,0-1.1,0-1.65,0a11,11,0,0,0-1.52,0C169.23,80.1,169.21,79.49,169.63,78.61Z" style="fill:#f6f5f5"/><path d="M107.73,106.29a2.6,2.6,0,0,1-2.52-1.12c-.17-.26-.27-.67.06-.87s.59-.09.74.32a1.27,1.27,0,0,0,.52.62,2.69,2.69,0,0,0,2.51,0c.29-.14.56-.41.42-.77-.34-.86-1.19-.74-1.88-.93-1-.27-2.36-.2-2.31-1.8,0-1.05,1.17-1.63,2.84-1.54a2.43,2.43,0,0,1,1.94.89c.15.22.46.58,0,.84a.53.53,0,0,1-.8-.23c-.61-1-1.54-.84-2.46-.62a.74.74,0,0,0-.59.69.64.64,0,0,0,.57.67,17.57,17.57,0,0,0,1.86.49c1,.16,1.89.51,1.83,1.66s-1,1.44-1.94,1.67A3.28,3.28,0,0,1,107.73,106.29Z" style="fill:#f6f5f5"/><path d="M103.17,103.09c0-.74,0-1.47,0-2.21,0-.31-.05-.66.46-.65.33,0,.54.16.54.48q0,2.49,0,5c0,.34-.27.42-.58.43s-.43-.24-.43-.54C103.18,104.75,103.17,103.92,103.17,103.09Z" style="fill:#f6f5f5"/><path d="M112.38,91.46c0-1-.3-1.14-1.17-1.13-3.75,0-7.49,0-11.24,0s-7.67,0-11.51,0c-.77,0-1.14.07-1.14,1,.05,6.66,0,13.32,0,20a1.19,1.19,0,0,0,.7,1.18q5.63,3.23,11.2,6.52a1.44,1.44,0,0,0,1.74,0q5.23-3.21,10.53-6.34a1.63,1.63,0,0,0,.92-1.64Q112.35,101.25,112.38,91.46ZM101.27,109.1c3.14,0,6.29,0,9.44.08.37,0,1.09-.32,1,.45,0,.6-.68.3-1,.3-3.06,0-6.11,0-9.17,0-.42,0-.91-.19-1.31.2.23.66.78.37,1.17.38,3.15.06,6.29.08,9.44.14.31,0,.86-.23.88.33s-.55.33-.85.33c-3.15,0-6.3,0-9.44,0-.38,0-1.11-.35-1.1.37,0,.54.68.29,1.05.29,3,0,6.1,0,9.27,0-.49.85-1.17.8-1.83.8h-7.49c-.39,0-1-.19-1,.36s.63.33,1,.34c2.31,0,4.63,0,7,0a1.81,1.81,0,0,1-1.67.79c-1.58,0-3.15,0-4.72,0-.55,0-1.56-.32-1.56.28s1,.31,1.49.34c1.34.06,2.68,0,4.14,0a2.09,2.09,0,0,1-1.78.79c-1.1,0-2.22,0-3.33,0-.25,0-.63-.09-.61.32s.32.39.61.39c.78,0,1.56,0,2.51,0-.71,1-1.59.6-2.34.69-.26,0-.59-.1-.74.22s0,.5.36.58.14.26,0,.39c-.46.38-.85.13-1.27-.11-3.59-2.06-7.19-4.13-10.79-6.18a1.22,1.22,0,0,1-.69-1.21c0-3.84,0-7.68,0-11.52,0-.92.44-.93,1.11-.93,3.28,0,6.57,0,9.86,0,.4,0,1.15.29,1.15-.32s-.79-.36-1.2-.36c-3.33,0-6.66,0-10,0-.34,0-1,.27-.94-.42s.63-.38,1-.38c3.43,0,6.85,0,10.28,0,.31,0,.88.26.89-.28s-.58-.3-.88-.3c-3.43,0-6.85,0-10.28,0-.35,0-1,.25-1-.4s.62-.38,1-.39c3.19,0,6.38,0,9.58,0,.53,0,1.55.34,1.52-.28s-1-.36-1.6-.37c-3.15,0-6.29,0-9.44,0-.35,0-1,.28-1-.34s.66-.32,1-.32c3.38,0,6.75,0,10.13,0,.35,0,1,.29,1-.36s-.61-.4-1-.4c-3.38,0-6.75,0-10.13,0-.35,0-1.15.49-1-.54h0a14.22,14.22,0,0,1,4-.17c2.73-.07,5.46-.08,8.18-.11l.05-.29-.33-.33H88.77c-.33,0-.84.17-.84-.41s.53-.38.84-.38q6.24,0,12.47,0c3.24,0,6.48,0,9.71-.07.67,0,.86.19.86.86q0,7.84,0,15.68c0,.85-.32,1-1,1-3.05,0-6.11,0-9.16,0a2.37,2.37,0,0,0-1.34.17C100.41,109.38,100.93,109.1,101.27,109.1Z" style="fill:#f6f5f5"/><path d="M100.85,73.42c0-.65-.29-.73-.84-.77s-.74.28-.73.82c0,1.14,0,2.28,0,3.5-2.9-2.06-5.66-1.24-6.56,1.89a7.24,7.24,0,0,0,0,4.1c1,3.16,4.07,4,6.55,1.59.24.56-.11,1.33.86,1.25.54,0,.71-.18.71-.72C100.83,81.19,100.83,77.31,100.85,73.42ZM98.43,83.77a2.19,2.19,0,0,1-3.86-.72A6.19,6.19,0,0,1,94.41,79a2.35,2.35,0,0,1,2.38-1.92,2.58,2.58,0,0,1,2.44,2.23,10.64,10.64,0,0,1,.08,1.38A4,4,0,0,1,98.43,83.77Z" style="fill:#f6f5f5"/><path d="M102,102.13c.39-.67-.21-1.47-1.14-1.71a17.19,17.19,0,0,0-3.58-.17c-.64,0-.61.43-.61.84,0,1.3,0,2.59,0,3.88,0,.43-.31,1.16.56,1.12s.35-.7.41-1.08c.1-.65-.31-1.59,1-1.4,1,.13,2.33-.36,2.29,1.37,0,1,.28,1.4,1.22,1C102.11,104.73,101.12,103.57,102,102.13Zm-1.54.67a5,5,0,0,1-2.45.11c-.63-.09-.26-.76-.33-1.16s0-.74.54-.69c.32,0,.64,0,1,0v0a5.76,5.76,0,0,1,1.1,0,.76.76,0,0,1,.73.69A.89.89,0,0,1,100.42,102.8Z" style="fill:#f6f5f5"/><path d="M92.69,100.22c-2,0-3.38,1.18-3.4,3s1.27,3.06,3.31,3.09a3,3,0,0,0,3.41-3C96,101.44,94.74,100.24,92.69,100.22Zm.08,5.3a2.25,2.25,0,1,1-.16-4.48,2.21,2.21,0,0,1,2.47,2.21A2.28,2.28,0,0,1,92.77,105.52Z" style="fill:#f6f5f5"/></svg>