<svg id="Capa_1" data-name="Capa 1" xmlns="http://www.w3.org/2000/svg" viewBox="0 0 200 150"><title>logos_marcas</title><path id="path2450" d="M42.91,48.88a23.57,23.57,0,0,0-5.65.71S26.75,52.21,15.15,63A63.94,63.94,0,0,0,5.71,75.84S1.64,83.37,1,89.66c0,0-.61,7,3.38,10.67,0,0,4.6,4.23,14.67,3.38a35.25,35.25,0,0,0,13.13-5.07,47.38,47.38,0,0,0,5.45-4.15s-1,3.62.45,6.21a6.69,6.69,0,0,0,4.52,3,11.24,11.24,0,0,0,5.6-.76s2.07-.93,3.46-1.62a47.24,47.24,0,0,0,5.61-3.67,5.54,5.54,0,0,0,.68,4,6.09,6.09,0,0,0,4.15,2.3s7.22.53,17.28-11.82l-7.06,11.37,6.45-.08,5.61-9.67s5.83-10,7-11.21c0,0,3-4,7.53-4.91l3,.23a2.35,2.35,0,0,1,1.22,2l-2.22-.4A2.84,2.84,0,0,0,99,81a4.51,4.51,0,0,0-.31,2.61A2.68,2.68,0,0,0,100,85.06l.69.23,2.22-.31s3.92-1.46,9.3-8.22L111,79l-4.52,7.75-5.29,9.36s-1.53,3.06-.84,4.91a4,4,0,0,0,3,2.22l5-.39A16.07,16.07,0,0,0,113.5,100l3.3-2.7a92.07,92.07,0,0,0,7.61-7.37l-.24.32S121,96,120.5,97.93c0,0-1.22,4.07,1.61,5.68l3.22.32a13.6,13.6,0,0,0,5.37-2.3l4.39-3.76a75.72,75.72,0,0,0,5.76-6.05,18,18,0,0,0-1.22,4s-.77,5.37,4.22,7.53l4.68.39a21.05,21.05,0,0,0,4.68-1.16s6.61-2.14,15.88-10.67c0,0,4.68-4.31,8-8.14L165.4,103.34h5.76l4.3-7.22,5.53-9a27.22,27.22,0,0,1,8.9-8.22A15.47,15.47,0,0,1,194,77.23s1.85-.39,2.22.53A2.71,2.71,0,0,0,193,79.91s-.61,2.69,1.53,3.53a3.52,3.52,0,0,0,2.91-.39,4.5,4.5,0,0,0,1.54-2.46,4.22,4.22,0,0,0-.46-2.77,4.11,4.11,0,0,0-3.06-1.53s-2.38-.08-7.14,3.07a42.47,42.47,0,0,0-5,3.75l3.91-6.68h-5.84a74.71,74.71,0,0,1-15.27,17.41s-9.52,7.75-14.9,8c0,0-5.23.39-5.76-3.62a12.22,12.22,0,0,1,1.08-5.76A20.57,20.57,0,0,0,154,91.37a32.61,32.61,0,0,0,7.45-3.62s3.61-2.46,4.91-5.07c0,0,1.53-2.91-.23-5.37,0,0-3.23-3.14-10.21-.23A33.71,33.71,0,0,0,143.38,87.2L142,89.26l-.15.24L138,93.94l-3.91,3.91s-4.76,4.68-7.13,3.31a2.48,2.48,0,0,1-.93-2.07,6.81,6.81,0,0,1,1.08-3.22l11.13-19.35h-5s-2.77,4.53-6,8.83c0,0-6.29,8.38-13.13,13.21,0,0-4.68,3.62-7.29,2.38a2.05,2.05,0,0,1-1.08-2,8.12,8.12,0,0,1,1.61-3.84l10.91-18.58,6.05-.07.77-.77h-6.13l6.52-11.6-5.52.08s-3.84,6.53-6.76,10.44c0,0-5.37,7.06-9.83,9a4.93,4.93,0,0,0,.84-2.53l-.08-1.22a3.66,3.66,0,0,0-1.84-2.38l-1.38-.39-2.62.23a15.18,15.18,0,0,0-5.91,3.15l2.38-4H89.2A116.61,116.61,0,0,1,77.68,93s-8.51,9.83-13.21,8.67A2.89,2.89,0,0,1,63,99.25a8.68,8.68,0,0,1,1.45-4.07L75.6,76.37l-5.53.08L68.3,79.51l-1.15,2.22a5,5,0,0,0,0-2.14,5,5,0,0,0-3.76-4.15l-2.61-.23s-6.61-.08-14.14,6.52a49.57,49.57,0,0,0-9.06,11.6s-7.83,7.3-16.12,8.91c0,0-7.37,1.53-10.52-1.77A14.55,14.55,0,0,1,7.48,90.8s.08-7.3,5.29-17.2a140.54,140.54,0,0,1,8.9-11.82s8.6-9.44,17.5-11.81c0,0,7.29-1.93,11.36,1.37a12.27,12.27,0,0,1,3.76,8.59l2.08-3.26a49.4,49.4,0,0,1,4.76-6.29,17.67,17.67,0,0,1-4.6,1.22s-3.15.39-4.68-.53A18,18,0,0,0,42.91,48.88ZM61.64,76A5.35,5.35,0,0,1,65,77.08c2.69,2.45.53,7,.53,7A46.92,46.92,0,0,1,55.37,98l-3.68,2.62c-5.76,2.83-8.21.84-8.21.84-2-1.69-1.16-5.52-1.16-5.52A27.71,27.71,0,0,1,45,89.52l4.15-6.06a30.73,30.73,0,0,1,8.06-6.29A9.89,9.89,0,0,1,61.64,76Zm98.77.69h.23a3.42,3.42,0,0,1,1.77.77,3.67,3.67,0,0,1,.39,2.3s-.39,4.07-4.91,7.9c0,0-5.15,4.39-11.13,4.23l1.16-2.38a42.7,42.7,0,0,1,6.45-9S158,76.72,160.41,76.7Z" style="fill:#f6f5f5"/><path id="path2454" d="M137.05,68.11a2.73,2.73,0,0,0,.77,1.77,2.68,2.68,0,0,0,1.77.69,2.63,2.63,0,0,0,1.69-.69,3,3,0,0,0,.69-1.77l-.69-1.77a2.89,2.89,0,0,0-1.69-.69,2.78,2.78,0,0,0-1.77.69,2.56,2.56,0,0,0-.77,1.77" style="fill:#f6f5f5"/></svg>