<?xml version="1.0" encoding="utf-8"?>
<!-- Generator: Adobe Illustrator 22.1.0, SVG Export Plug-In . SVG Version: 6.00 Build 0)  -->
<svg version="1.0" id="Capa_1" xmlns="http://www.w3.org/2000/svg" xmlns:xlink="http://www.w3.org/1999/xlink" x="0px" y="0px"
	 width="178px" height="47px" viewBox="0 0 178 47" style="enable-background:new 0 0 178 47;" xml:space="preserve">
<g>
	<g>
		<path style="fill:#FFFFFF;" d="M41.7,12.5c-0.3-0.5-0.8-0.9-1.3-1.1c-0.5-0.2-1.2-0.3-1.9-0.3h-1.5c-0.1,0-0.2,0-0.2,0.1v11.6
			c0.2,0.1,0.4,0.2,0.6,0.3c0.2,0.1,0.4,0.1,0.6,0.2c0.2,0,0.4,0.1,0.7,0.1c0.2,0,0.5,0,0.9,0c0.7,0,1.3-0.1,1.8-0.2s0.7-0.5,1-0.9
			c0.2-0.4,0.3-1,0.4-1.8c0-0.8,0.1-1.7,0.1-2.9s-0.1-2.2-0.2-3C42.3,13.7,42,13,41.7,12.5z"/>
		<path style="fill:#FFFFFF;" d="M0.7,1v45h51.9V1H0.7z M45.3,22.2C43.9,23.4,42,24,39.5,24c-0.7,0-1.2,0-1.5-0.1
			c-0.4-0.1-0.8-0.2-1.2-0.3V33c0,0.1,0.1,0.1,0.2,0.1h2.8c0,0,0.1,0.1,0.1,0.3c0,0.2,0,0.3-0.1,0.3H29.1c0,0,0,0,0,0c0,0,0,0,0,0
			h-11c0,0-0.1-0.1-0.1-0.3c0-0.2,0-0.3,0.1-0.3h2.8c0,0,0.1,0,0.1,0c0,0,0,0,0,0l-2.2-6.8h-6.8l-2,5.5c-0.2,0.6-0.3,1-0.3,1.1
			s0,0.2,0,0.2h2.7c0,0,0.1,0.1,0.1,0.3c0,0.2,0,0.3-0.1,0.3H6c0,0-0.1-0.1-0.1-0.3c0-0.2,0-0.3,0.1-0.3h2.5c0.2,0,0.3-0.1,0.3-0.2
			c0.1-0.1,0.2-0.5,0.5-1.2L16.9,10c0,0,0.1-0.1,0.3-0.1c0.2,0,0.3,0,0.3,0.1L26,33.1c0.1,0,0.2,0.1,0.2,0.1H29c0,0,0,0,0,0
			c0,0,0,0,0,0h2.8c0.1,0,0.2,0,0.2-0.1V11.2c0-0.1-0.1-0.1-0.2-0.1h-2.8c0,0-0.1-0.1-0.1-0.3c0-0.2,0-0.3,0.1-0.3h9.4
			c1.4,0,2.7,0.2,3.8,0.5c1.1,0.4,2,0.9,2.8,1.5c0.7,0.6,1.3,1.4,1.7,2.2c0.4,0.9,0.6,1.8,0.6,2.8C47.3,19.5,46.6,21.1,45.3,22.2z"
			/>
		<polygon style="fill:#FFFFFF;" points="12.1,25.6 18.5,25.6 15.4,16 		"/>
	</g>
	<path style="fill:#FFFFFF;" d="M90.9,11.1c-0.1,0-0.2,0.1-0.3,0.2c-0.1,0.1-0.3,0.5-0.4,1.2l-7.2,21.8c0,0-0.1,0.1-0.3,0.1
		c-0.2,0-0.3,0-0.3-0.1l-6-17.2l-5.6,17.2c0,0.1-0.2,0.1-0.3,0.1c-0.2,0-0.3,0-0.3-0.1l-8.7-23c0-0.1-0.1-0.1-0.3-0.1h-3
		c0,0-0.1-0.1-0.1-0.3c0-0.2,0-0.3,0.1-0.3h11.1c0,0,0.1,0.1,0.1,0.3c0,0.2,0,0.3-0.1,0.3h-2.7c-0.1,0-0.2,0-0.2,0.1l6.1,16.2
		l3.6-11.3l-1.7-4.9c0,0-0.1-0.1-0.2-0.1h-3.2c0,0-0.1-0.1-0.1-0.3c0-0.2,0-0.3,0.1-0.3h11.6c0,0,0,0.1,0,0.3c0,0.2,0,0.3,0,0.3
		h-3.2c-0.1,0-0.1,0-0.1,0.1l5.6,16.3l4.9-15.2c0.2-0.5,0.3-0.9,0.3-1c0-0.1,0-0.2-0.1-0.2h-2.8c0,0-0.1-0.1-0.1-0.3
		c0-0.2,0-0.3,0.1-0.3h6.7c0,0,0.1,0.1,0.1,0.3c0,0.2,0,0.3-0.1,0.3H90.9z"/>
	<path style="fill:#FFFFFF;" d="M102.8,33.6c-0.5,0.3-1.1,0.4-1.7,0.4c-0.4,0-0.7-0.1-1.1-0.2c-0.4-0.1-0.7-0.3-1-0.5
		c-0.3-0.2-0.5-0.4-0.8-0.7c-0.2-0.3-0.3-0.5-0.4-0.9c-0.2,0.7-0.6,1.2-1.2,1.6c-0.5,0.4-1.3,0.6-2.1,0.6c-0.6,0-1.2-0.1-1.7-0.2
		c-0.6-0.1-1.1-0.3-1.6-0.6c-0.5-0.3-0.9-0.6-1.2-1.1c-0.3-0.4-0.4-1-0.4-1.6c0-0.9,0.2-1.6,0.5-2.1c0.4-0.5,0.8-1,1.3-1.3
		c0.5-0.3,1-0.5,1.6-0.6c0.5-0.1,1-0.2,1.3-0.2c0.9-0.1,1.7-0.2,2.4-0.3c0.7-0.1,1-0.3,1-0.7v-2.5c0-0.7,0-1.2-0.1-1.5
		c-0.1-0.4-0.2-0.7-0.4-0.9c-0.2-0.2-0.4-0.3-0.6-0.4c-0.3,0-0.5-0.1-0.8-0.1c-0.2,0-0.4,0-0.6,0c-0.2,0-0.4,0-0.6,0.1
		c-0.2,0.1-0.3,0.2-0.4,0.3C94.1,20.7,94,21,94,21.3c0,0.3,0,0.5,0.1,0.7c0.1,0.2,0.1,0.4,0.1,0.7c0,0.4-0.1,0.7-0.4,0.9
		c-0.3,0.3-0.7,0.4-1.3,0.4c-0.6,0-1-0.2-1.2-0.5c-0.3-0.3-0.4-0.7-0.4-1.1c0-0.3,0.1-0.7,0.4-1c0.2-0.3,0.6-0.7,1-0.9
		c0.4-0.3,0.9-0.5,1.5-0.7c0.6-0.2,1.2-0.3,1.9-0.3c1.8,0,3.2,0.5,4.2,1.4c1,1,1.6,2.5,1.6,4.5v6.6c0,0.7,0.3,1.1,0.8,1.1
		c0.3,0,0.5-0.1,0.7-0.2c0.2-0.1,0.3-0.3,0.3-0.5c0,0,0.1,0,0.2,0.1c0.1,0.1,0.2,0.2,0.2,0.2C103.7,33.1,103.4,33.4,102.8,33.6z
		 M97.8,26.4c-0.4,0.2-0.9,0.4-1.3,0.4C96,26.9,95.6,26.9,95,27c-0.3,0.1-0.5,0.1-0.7,0.2c-0.2,0.1-0.4,0.3-0.5,0.5
		c-0.1,0.2-0.2,0.6-0.3,1c-0.1,0.5-0.1,1-0.1,1.8c0,0.9,0.1,1.5,0.3,2c0.2,0.5,0.7,0.7,1.5,0.7c0.8,0,1.5-0.3,1.9-1
		c0.5-0.7,0.7-1.5,0.7-2.5V26.4z"/>
	<path style="fill:#FFFFFF;" d="M112.9,33.3c-0.6,0.5-1.5,0.8-2.5,0.8c-1.2,0-2-0.3-2.6-0.8c-0.5-0.5-0.8-1.3-0.8-2.4V20.5
		c0-0.1-0.1-0.1-0.2-0.1h-2.4c0,0-0.1-0.1-0.1-0.3c0-0.2,0-0.3,0.1-0.3h2.4c0.2,0,0.2,0,0.2-0.1v-2.9c0.4,0,0.7-0.1,1.1-0.3
		c0.3-0.2,0.7-0.4,0.9-0.7c0.3-0.3,0.5-0.6,0.7-0.9c0.2-0.3,0.3-0.6,0.4-0.8c0,0,0.2,0,0.6,0v5.6c0,0.1,0.1,0.1,0.3,0.1h2.8
		c0,0,0.1,0.1,0.1,0.3c0,0.2,0,0.3-0.1,0.3H111c-0.2,0-0.3,0-0.3,0.1v11.6c0,0.3,0.1,0.5,0.3,0.7c0.2,0.2,0.5,0.2,0.8,0.2
		c0.5,0,0.9-0.2,1.2-0.6c0.3-0.4,0.6-0.9,0.8-1.6c0,0,0,0,0.2,0.1c0.2,0.1,0.2,0.1,0.2,0.2C113.9,32.1,113.5,32.8,112.9,33.3z"/>
	<path style="fill:#FFFFFF;" d="M126.6,33.2c-1.1,0.6-2.2,0.9-3.5,0.9c-1,0-1.9-0.2-2.8-0.6c-0.9-0.4-1.6-0.9-2.3-1.6
		c-0.6-0.7-1.2-1.4-1.5-2.3c-0.4-0.9-0.6-1.8-0.6-2.8c0-1,0.2-2,0.6-2.8c0.4-0.9,0.9-1.7,1.5-2.3c0.6-0.7,1.4-1.2,2.3-1.6
		c0.9-0.4,1.8-0.6,2.8-0.6c0.8,0,1.5,0.1,2.2,0.4c0.7,0.3,1.3,0.6,1.7,1c0.5,0.4,0.9,0.8,1.2,1.3c0.3,0.5,0.4,0.9,0.4,1.3
		c0,0.5-0.2,0.9-0.5,1.2c-0.3,0.2-0.7,0.4-1.1,0.4c-0.5,0-0.9-0.1-1.1-0.4c-0.3-0.2-0.4-0.5-0.4-0.9c0-0.2,0-0.4,0.1-0.5
		c0-0.1,0.1-0.2,0.1-0.3c0.1-0.1,0.1-0.2,0.1-0.4c0-0.1,0.1-0.3,0.1-0.6c0-0.7-0.3-1.1-0.8-1.4c-0.5-0.3-1.2-0.4-2.1-0.4
		c-0.4,0-0.8,0-1.1,0.1c-0.3,0.1-0.6,0.3-0.9,0.6c-0.2,0.2-0.4,0.5-0.6,0.8c-0.2,0.3-0.3,0.7-0.4,1.2c-0.1,0.5-0.2,1-0.2,1.7
		c0,0.6-0.1,1.4-0.1,2.4c0,0.9,0,1.7,0.1,2.4c0,0.6,0.1,1.2,0.2,1.7c0.1,0.5,0.2,0.8,0.4,1.2c0.2,0.3,0.3,0.6,0.6,0.8
		c0.3,0.3,0.6,0.5,0.9,0.6c0.3,0.1,0.7,0.1,1.1,0.1c1.3,0,2.4-0.3,3.4-0.8c1-0.5,1.8-1.2,2.4-2c0,0,0.1,0,0.2,0.1
		c0.1,0.1,0.1,0.2,0.1,0.2C128.6,31.9,127.7,32.7,126.6,33.2z"/>
	<path style="fill:#FFFFFF;" d="M140.4,33.8c-0.1,0-0.1-0.1-0.1-0.3c0-0.2,0-0.3,0.1-0.3h1.8c0.1,0,0.2,0,0.2-0.1v-9.5
		c0-1.2-0.2-2-0.5-2.6c-0.3-0.5-0.8-0.8-1.4-0.8c-1,0-1.8,0.3-2.4,0.8c-0.6,0.5-1.1,1.3-1.4,2.5V33c0,0.1,0.1,0.1,0.2,0.1h1.9
		c0,0,0.1,0.1,0.1,0.3c0,0.2,0,0.3-0.1,0.3h-8c0,0-0.1-0.1-0.1-0.3c0-0.2,0-0.3,0.1-0.3h1.9c0.2,0,0.2,0,0.2-0.1V10.4
		c0-0.1-0.1-0.1-0.2-0.1h-1.9c0,0-0.1-0.1-0.1-0.3c0-0.2,0-0.3,0.1-0.3h5.9c0.1,0,0.1,0,0.1,0.1V22c0.3-0.9,0.8-1.6,1.6-2
		c0.7-0.4,1.5-0.6,2.3-0.6c1.8,0,3.2,0.5,4.2,1.4c1,1,1.5,2.3,1.5,4.1v8c0,0.1,0.1,0.1,0.2,0.1h1.9c0.1,0,0.1,0.1,0.1,0.3
		c0,0.2,0,0.3-0.1,0.3H140.4z"/>
	<path style="fill:#FFFFFF;" d="M163.8,26h-9.6v0.8c0,0.9,0,1.7,0.1,2.4c0,0.6,0.1,1.2,0.2,1.7c0.1,0.5,0.2,0.8,0.4,1.2
		c0.2,0.3,0.4,0.6,0.6,0.8c0.3,0.3,0.6,0.5,0.9,0.6c0.3,0.1,0.7,0.1,1.2,0.1c1.3,0,2.4-0.3,3.3-0.8c1-0.5,1.7-1.2,2.3-2
		c0,0,0.1,0,0.2,0.1c0.1,0.1,0.2,0.2,0.1,0.2c-0.6,0.9-1.5,1.7-2.6,2.3c-1.1,0.6-2.2,0.9-3.5,0.9c-1,0-1.9-0.2-2.8-0.6
		c-0.9-0.4-1.7-0.9-2.3-1.6c-0.7-0.7-1.2-1.4-1.6-2.3c-0.4-0.9-0.6-1.8-0.6-2.8c0-1,0.2-2,0.6-2.8c0.4-0.9,0.9-1.7,1.6-2.3
		c0.7-0.7,1.4-1.2,2.3-1.6c0.9-0.4,1.8-0.6,2.8-0.6c1.1,0,2,0.2,2.8,0.7c0.8,0.5,1.5,1,2,1.7c0.5,0.7,0.9,1.4,1.2,2.1
		C163.8,24.7,163.9,25.3,163.8,26C163.9,26,163.9,26,163.8,26z M160.2,22.4c-0.2-0.6-0.5-1.2-0.8-1.6c-0.2-0.3-0.5-0.5-0.8-0.6
		c-0.3-0.1-0.6-0.1-1-0.1c-0.4,0-0.8,0-1.2,0.1c-0.3,0.1-0.6,0.3-0.9,0.6c-0.4,0.4-0.7,0.9-0.9,1.6c-0.2,0.6-0.3,1.6-0.3,3h6.3
		C160.5,24,160.4,23,160.2,22.4z"/>
	<path style="fill:#FFFFFF;" d="M176.9,31.1c-0.2,0.6-0.6,1.1-1,1.6c-0.4,0.5-1,0.8-1.6,1.1c-0.6,0.3-1.4,0.4-2.2,0.4
		c-0.5,0-0.9,0-1.3-0.1c-0.3-0.1-0.6-0.2-0.8-0.3c-0.2-0.1-0.4-0.2-0.6-0.3c-0.2-0.1-0.4-0.1-0.7-0.1c-0.3,0-0.6,0.1-0.8,0.2
		c-0.2,0.2-0.4,0.3-0.4,0.4c0,0-0.1,0.1-0.3,0.1c-0.2,0-0.3,0-0.3-0.1l0.2-5.1c0,0,0.1-0.1,0.3-0.1c0.2,0,0.3,0,0.3,0.1
		c0,0.6,0.1,1.2,0.3,1.8c0.2,0.6,0.5,1.1,0.9,1.5c0.4,0.4,0.9,0.8,1.4,1c0.6,0.2,1.2,0.4,1.9,0.4c1,0,1.7-0.2,2.3-0.6
		c0.5-0.4,0.8-1.1,0.8-2.1c0-0.4-0.1-0.7-0.2-1c-0.2-0.3-0.4-0.5-0.7-0.7c-0.3-0.2-0.7-0.4-1.3-0.5c-0.5-0.2-1.1-0.3-1.8-0.5
		c-1.3-0.3-2.3-0.7-3-1.3c-0.7-0.6-1.1-1.5-1.1-2.6c0-0.7,0.1-1.4,0.4-2c0.3-0.6,0.6-1,1-1.4c0.4-0.4,0.9-0.7,1.4-0.9
		c0.5-0.2,1.1-0.3,1.6-0.3c0.4,0,0.8,0,1.1,0.1c0.3,0.1,0.5,0.1,0.7,0.2c0.2,0.1,0.3,0.1,0.5,0.2c0.2,0.1,0.4,0.1,0.6,0.1
		c0.2,0,0.4-0.1,0.5-0.2c0.1-0.2,0.2-0.3,0.2-0.3c0,0,0.2-0.1,0.4-0.1c0.2,0,0.3,0,0.3,0.1v4.1c0,0-0.1,0.1-0.3,0.1
		c-0.2,0-0.3,0-0.3-0.1c0-0.5-0.1-0.9-0.3-1.3c-0.2-0.4-0.5-0.8-0.8-1.1c-0.3-0.3-0.7-0.5-1.1-0.7c-0.4-0.2-0.8-0.3-1.3-0.3
		c-0.7,0-1.3,0.2-1.8,0.5c-0.5,0.3-0.7,0.9-0.7,1.8c0,0.4,0.1,0.7,0.3,1c0.2,0.3,0.4,0.5,0.8,0.7c0.3,0.2,0.7,0.4,1.2,0.5
		c0.5,0.2,1.1,0.3,1.7,0.5c0.5,0.1,1.1,0.3,1.6,0.6c0.5,0.2,1,0.5,1.4,0.9c0.4,0.4,0.7,0.8,1,1.2c0.2,0.5,0.4,1,0.4,1.5
		C177.3,29.9,177.2,30.5,176.9,31.1z"/>
</g>
</svg>
