<svg id="Capa_1" data-name="Capa 1" xmlns="http://www.w3.org/2000/svg" viewBox="0 0 200 150"><title>logos_marcas</title><path id="path7213" d="M100.18,34.86,97.84,42H90.32l6.08,4.42-2.32,7.15,6.08-4.42,6.08,4.42-2.32-7.15L110,42h-7.52Zm0,1.12.1,1.28v7.82l7.44-2.42,1.22-.28-8.62,2.9,5.28,7.39-.84-1-4.6-6.33-4.6,6.33-.82,1L100,45.28l-7.46-2.42-1.18-.5,1.24.3,7.44,2.42V37.26Z" style="fill:#f6f5f5"/><path id="path7239" d="M151.73,97.74l-2.26,6.4h1.18l.58-1.72h2.38l.56,1.72h1.18l-2.26-6.4Zm.68,1h0l.9,2.82h-1.86Z" style="fill:#f6f5f5"/><path id="path7279" d="M61.85,97.74l-2.26,6.4h1.18l.58-1.72h2.38l.56,1.72h1.18l-2.26-6.4Zm.66,1h0l.9,2.82H61.59Z" style="fill:#f6f5f5"/><path id="path7215" d="M109.56,65.35v18l-21.46-18v-.08H84.66V87.59H88.1V69.85l21.16,17.74H113V65.35h-3.42" style="fill:#f6f5f5"/><path id="path7217" d="M138.83,68.77h10.72V87.59H153V68.77h10.72v-3.4H153v0h-3.42v0H138.83v3.4" style="fill:#f6f5f5"/><path id="path7219" d="M129.35,65.35V87.59h-3.44V65.35h3.44" style="fill:#f6f5f5"/><path id="path7221" d="M177.54,65.35h-3.43V87.59h3.43V77.41h19V87.59H200V65.35h-3.42V74h-19V65.35" style="fill:#f6f5f5"/><path id="path7223" d="M186.88,97.74v6.4H188V101.4h.44l.78.12a1,1,0,0,1,.38.44l.24.8.3,1.38h1.16l-.4-1.8-.18-.64-.32-.48a2,2,0,0,0-.68-.3v0a2,2,0,0,0,.9-.42,1.67,1.67,0,0,0,.4-1.06,1.63,1.63,0,0,0-.58-1.32,3.22,3.22,0,0,0-1.54-.36Zm1.12.76h.88a1,1,0,0,1,1,1,1.08,1.08,0,0,1-.22.7,1,1,0,0,1-.52.3l-.7.06H188Z" style="fill:#f6f5f5"/><path id="path7227" d="M181.76,102.18a2.37,2.37,0,0,1-.62,1.56,2.68,2.68,0,0,1-1.68.48,3.07,3.07,0,0,1-1.66-.5,2.05,2.05,0,0,1-.66-1.54V97.72h1.12v4.46a1.82,1.82,0,0,0,.26.92,1.2,1.2,0,0,0,.92.36,1.36,1.36,0,0,0,.9-.36,1.68,1.68,0,0,0,.26-.92V97.72h1.14v4.46" style="fill:#f6f5f5"/><path id="path7229" d="M199.9,98.58h-2.74v1.84h2.62v.82h-2.62v2.08H200v.82h-4v-6.4h3.88v.84" style="fill:#f6f5f5"/><path id="path7231" d="M163.17,99.5a1.85,1.85,0,0,0-.16-.72.87.87,0,0,0-.82-.36,1.31,1.31,0,0,0-.86.38,2,2,0,0,0-.42.9,5.54,5.54,0,0,0-.08,1.06,4.63,4.63,0,0,0,.38,1.9,1.69,1.69,0,0,0,1.4.76,4.09,4.09,0,0,0,1-.2l.56-.28v1l-.72.26-1.08.12a3,3,0,0,1-2.12-.92,4.15,4.15,0,0,1-.68-2.4,5.87,5.87,0,0,1,.26-1.68,2.67,2.67,0,0,1,.86-1.18,2.76,2.76,0,0,1,1.5-.44,3,3,0,0,1,1.7.56,1.92,1.92,0,0,1,.54,1.3h-1.24" style="fill:#f6f5f5"/><path id="path7233" d="M171.09,98.58v5.56H170V98.58h-1.66v-.84h4.46v.84h-1.66" style="fill:#f6f5f5"/><path id="path7235" d="M136.61,97.74v4.44a2.37,2.37,0,0,1-.62,1.56,2.68,2.68,0,0,1-1.68.48,3.07,3.07,0,0,1-1.66-.5,2.05,2.05,0,0,1-.66-1.54V97.72h1.12v4.46a1.82,1.82,0,0,0,.26.92,1.2,1.2,0,0,0,.92.36,1.36,1.36,0,0,0,.9-.36,1.68,1.68,0,0,0,.26-.92V97.72h1.16" style="fill:#f6f5f5"/><path id="path7241" d="M145.51,97.74v.84h-2.64v1.84h2.5v.82h-2.5v2.9h-1.12v-6.4h3.76" style="fill:#f6f5f5"/><path id="path7243" d="M106.8,99.08l-1.8,5h-1.06l-1.8-5h0v5h-1v-6.4h1.54l1.84,5.12h0l1.84-5.12h1.52v6.4h-1v-5h0" style="fill:#f6f5f5"/><path id="path7245" d="M113.78,97.74l-2.26,6.4h1.18l.58-1.72h2.38l.56,1.72h1.18l-2.26-6.4Zm.66,1h0l.9,2.82h-1.86Z" style="fill:#f6f5f5"/><path id="path7247" d="M123.28,97.74l2.53,4.72h0V97.74h1v6.4h-1.26l-2.67-5h0v4.94h-1v-6.4h1.4" style="fill:#f6f5f5"/><path id="path7251" d="M124.46,110.9a1.73,1.73,0,0,0-1,.26,1.33,1.33,0,0,0-.46.72,3.78,3.78,0,0,0-.14,1.12,4.43,4.43,0,0,0,.1,1.06,1.69,1.69,0,0,0,.46.76,2,2,0,0,0,1,.3,1.76,1.76,0,0,0,1.07-.36,1.37,1.37,0,0,0,.38-.92,1.47,1.47,0,0,0-.3-.92,1.27,1.27,0,0,0-.89-.36,1.35,1.35,0,0,0-.6.12,1.17,1.17,0,0,0-.36.26,3.88,3.88,0,0,1,.1-1.08.68.68,0,0,1,.6-.46.59.59,0,0,1,.4.16.44.44,0,0,1,.12.32h.85a1.27,1.27,0,0,0-.32-.68A2.14,2.14,0,0,0,124.46,110.9Zm-.08,2.16h0a.65.65,0,0,1,.52.22,1.1,1.1,0,0,1,.11.54,1,1,0,0,1-.13.56.68.68,0,0,1-.48.24.57.57,0,0,1-.5-.24,1.15,1.15,0,0,1-.16-.56.94.94,0,0,1,.16-.56A.61.61,0,0,1,124.38,113.06Z" style="fill:#f6f5f5"/><path id="path7255" d="M116.8,110.9a1.71,1.71,0,0,0-.94.26,1,1,0,0,0-.44.8,1.06,1.06,0,0,0,.24.68l.46.28a1.32,1.32,0,0,0-.5.28c-.24.18-.26.78-.26.78a1.11,1.11,0,0,0,.4.88,2.45,2.45,0,0,0,1.1.26,2.17,2.17,0,0,0,1.06-.26,1.24,1.24,0,0,0,.42-.9,1.13,1.13,0,0,0-.24-.78,1.66,1.66,0,0,0-.48-.28l.44-.26a1.26,1.26,0,0,0,.22-.68,1,1,0,0,0-.4-.82,2.14,2.14,0,0,0-1-.26A.15.15,0,0,1,116.8,110.9Zm0,.48h0a.62.62,0,0,1,.62.62.64.64,0,0,1-.6.66.74.74,0,0,1-.46-.16.79.79,0,0,1-.16-.48.64.64,0,0,1,.18-.46A.66.66,0,0,1,116.84,111.38Zm0,1.76h0a.65.65,0,0,1,.52.22.87.87,0,0,1,.16.5.94.94,0,0,1-.16.56.72.72,0,0,1-.5.2.71.71,0,0,1-.5-.2,1.17,1.17,0,0,1-.18-.56.74.74,0,0,1,.18-.5A.68.68,0,0,1,116.84,113.14Z" style="fill:#f6f5f5"/><path id="path7261" d="M109.16,111.56l-.88.46v-.62l1-.5h.64V115h-.78v-3.48" style="fill:#f6f5f5"/><path id="path7263" d="M131.33,111.54l-.06,1.2a1.54,1.54,0,0,1,.74-.2,1.6,1.6,0,0,1,1,.36,1.45,1.45,0,0,1,.36,1,1.36,1.36,0,0,1-.46,1,2,2,0,0,1-1.08.28,2.37,2.37,0,0,1-1.18-.34,1.23,1.23,0,0,1-.34-.66h.9l.14.32a.69.69,0,0,0,.48.16.72.72,0,0,0,.7-.78,1.1,1.1,0,0,0-.16-.56.67.67,0,0,0-.56-.24.72.72,0,0,0-.36.1l-.18.2h-.78l.1-2.34H133v.56h-1.68" style="fill:#f6f5f5"/><path id="path7265" d="M.34,68.77H23L.34,84.13v3.42H29.93v-3.4H6.84L29.93,68.51V65.37H.34v3.4" style="fill:#f6f5f5"/><path id="path7267" d="M48.37,65.35H44.93V87.59h3.44v0H70v-3.4H48.37V77.93H69.13V74.55H48.37V68.77H69.83v-3.4l-21.46,0h0" style="fill:#f6f5f5"/><path id="path7269" d="M81.18,99.5a1.85,1.85,0,0,0-.16-.72.87.87,0,0,0-.82-.36,1.38,1.38,0,0,0-.88.38,2.14,2.14,0,0,0-.4.9,5.54,5.54,0,0,0-.08,1.06,4.63,4.63,0,0,0,.38,1.9,1.69,1.69,0,0,0,1.4.76,4.09,4.09,0,0,0,1-.2l.56-.28v1a4.75,4.75,0,0,1-.72.26l-1.08.12a3,3,0,0,1-2.12-.92,4.15,4.15,0,0,1-.68-2.4,5.87,5.87,0,0,1,.26-1.68,2.67,2.67,0,0,1,.86-1.18,2.76,2.76,0,0,1,1.5-.44,3,3,0,0,1,1.7.56,1.92,1.92,0,0,1,.54,1.3H81.18" style="fill:#f6f5f5"/><path id="path7271" d="M73.53,98.58H71.87v5.56H70.73V98.58H69.07v-.84h4.46v.84" style="fill:#f6f5f5"/><path id="path7273" d="M88.1,97.74v2.66h2.4V97.74h1.1v6.4H90.5v-2.92H88.1v2.92H87v-6.4H88.1" style="fill:#f6f5f5"/><path id="path7275" d="M56.61,97.74l-1.26,6.4H54.17l-1.7-4.72h0l-1.68,4.72H49.59l-1.3-6.4h1l.94,4.82h0L52,97.74h.9l1.7,4.82h0l.92-4.82h1.06" style="fill:#f6f5f5"/><path id="path7281" d="M67.71,112.12l.78.42a3.38,3.38,0,0,1,.76.52,1.32,1.32,0,0,1,.36.8,1.3,1.3,0,0,1-.48.94,2.55,2.55,0,0,1-1.24.32l-.82-.08-.46-.12v-.76l.54.26.78.16a1.31,1.31,0,0,0,.66-.2.7.7,0,0,0,.16-.42.8.8,0,0,0-.36-.58,5.34,5.34,0,0,0-.78-.44l-.76-.48a1,1,0,0,1,.1-1.64,2.37,2.37,0,0,1,1.14-.28l.7.06.44.08v.68l-.54-.18-.64-.1a1,1,0,0,0-.5.14.55.55,0,0,0-.2.42.67.67,0,0,0,.36.48" style="fill:#f6f5f5"/><path id="path7283" d="M97.8,111.18H95.88v1.3h1.8V113h-1.8v1.46h2v.56H95.08v-4.42H97.8v.54" style="fill:#f6f5f5"/><path id="path7285" d="M90,111.84a.93.93,0,0,0-.12-.5.61.61,0,0,0-.56-.26.9.9,0,0,0-.62.26,1.54,1.54,0,0,0-.26.62l-.08.74a2.87,2.87,0,0,0,.28,1.3,1.17,1.17,0,0,0,1,.5l.68-.14.4-.18v.68l-.52.16-.76.1a2.18,2.18,0,0,1-1.5-.64,3,3,0,0,1-.46-1.68,3.11,3.11,0,0,1,.42-1.6,1.81,1.81,0,0,1,1.42-.66,2.08,2.08,0,0,1,1.18.4,1.41,1.41,0,0,1,.4.88H90" style="fill:#f6f5f5"/><path id="path7287" d="M80.14,111.62V115h-.72v-4.42h1l1.8,3.26h0v-3.26H83V115H82l-1.86-3.42h0" style="fill:#f6f5f5"/><path id="path7289" d="M74.75,110.62V115H74v-4.42h.8" style="fill:#f6f5f5"/><path id="path7291" d="M27.91,97.82a3.92,3.92,0,0,1,1.14-.17l1,.07.62.1v1l-.74-.26A3.72,3.72,0,0,0,29,98.4a1.46,1.46,0,0,0-.7.18.67.67,0,0,0-.28.6.84.84,0,0,0,.32.6l.78.46s.46.24.94.52a2.91,2.91,0,0,1,.78.68,1.72,1.72,0,0,1,.34,1,1.88,1.88,0,0,1-.68,1.36,3.36,3.36,0,0,1-1.76.46l-1.16-.12-.68-.16v-1.1l.78.38,1.1.22a1.65,1.65,0,0,0,.9-.28,1,1,0,0,0,.26-.6,1.09,1.09,0,0,0-.34-.7,4.4,4.4,0,0,0-.78-.52l-1-.52-.78-.64a1.55,1.55,0,0,1-.34-.9,1.83,1.83,0,0,1,.32-.94,2.13,2.13,0,0,1,.84-.54" style="fill:#f6f5f5"/><path id="path7293" d="M22,97.74v6.4H20.84v-6.4H22" style="fill:#f6f5f5"/><path id="path7295" d="M39.47,98.82a4.55,4.55,0,0,0-.74-.26l-.92-.16a1.46,1.46,0,0,0-.7.18.67.67,0,0,0-.28.6.84.84,0,0,0,.32.6l.78.46.92.52a2.91,2.91,0,0,1,.78.68,1.72,1.72,0,0,1,.34,1,1.88,1.88,0,0,1-.68,1.36,3.36,3.36,0,0,1-1.76.46l-1.16-.12-.68-.16v-1.1l.78.38a3.28,3.28,0,0,0,1.1.22,1.65,1.65,0,0,0,.9-.28,1,1,0,0,0,.26-.6,1.09,1.09,0,0,0-.34-.7,4.4,4.4,0,0,0-.78-.52s-.46-.26-1-.52a3.27,3.27,0,0,1-.78-.64,1.55,1.55,0,0,1-.34-.9,1.83,1.83,0,0,1,.32-.94,2,2,0,0,1,.82-.54,3.72,3.72,0,0,1,1.14-.18l1,.08.62.1v1" style="fill:#f6f5f5"/><path id="path7297" d="M1.18,97.82a3.92,3.92,0,0,1,1.14-.17l1,.07.62.1v1l-.74-.26-.92-.16a1.46,1.46,0,0,0-.7.18.67.67,0,0,0-.28.6.84.84,0,0,0,.32.6,5.1,5.1,0,0,0,.78.46l.92.52a2.91,2.91,0,0,1,.78.68,1.72,1.72,0,0,1,.34,1,1.88,1.88,0,0,1-.68,1.36,3.36,3.36,0,0,1-1.76.46l-1.16-.12L.16,104v-1.1l.78.38,1.1.22a1.65,1.65,0,0,0,.9-.28,1,1,0,0,0,.26-.6,1.09,1.09,0,0,0-.34-.7,4.4,4.4,0,0,0-.78-.52l-1-.52-.78-.64A1.55,1.55,0,0,1,0,99.3a1.83,1.83,0,0,1,.32-.94,2.52,2.52,0,0,1,.86-.54" style="fill:#f6f5f5"/><path id="path7299" d="M16.16,97.74l-1.26,6.4H13.72L12,99.42h0l-1.68,4.72H9.14l-1.3-6.4h1l.94,4.82h0l1.68-4.82h.9l1.7,4.82h0l.92-4.82h1.06" style="fill:#f6f5f5"/></svg>