<svg id="Capa_1" data-name="Capa 1" xmlns="http://www.w3.org/2000/svg" viewBox="0 0 200 150"><title>logos_marcas</title><g id="_c50124ff" data-name="#c50124ff"><path d="M80.71,39.44c8.53-8.12,23.15-8.53,32.29-1.15a18.13,18.13,0,0,1,6.7,16.39c-.74,6.5-4.87,12.18-10.22,15.77,2.71.14,5.41.07,8.12.07,1.09-1.36,1.69-3.79,3.93-3.25-1.15,2.23-2.3,4.47-3.52,6.63-5.49-.06-11,.14-16.39-.13,3.46-3,7-6.23,9.14-10.36,3.93-7.11,4-16.86-1.62-23.15C103.79,34,93.23,33.49,87.2,39.11a17.51,17.51,0,0,0-5.68,13.6,23.72,23.72,0,0,0,6,15.3c1.76,2.1,3.93,3.79,5.89,5.76-5.48.27-10.9.07-16.38.07-1.15-2.24-2.3-4.41-3.45-6.64,2.3-.61,2.84,2,4,3.39h8a24.32,24.32,0,0,1-9.41-12.33A18.1,18.1,0,0,1,80.71,39.44Z" style="fill:#f6f5f5"/><path d="M168.51,81.69c6,11.37,11.58,22.88,17.47,34.19v.2H180.5c-1.09-2.23-2.24-4.47-3.32-6.63H160.05c-1.15,2.23-2.23,4.46-3.38,6.7h-5.62c5.95-11.51,11.71-23,17.46-34.46m-6.16,22.88c4.13.14,8.26.07,12.39.07-2-4.06-4.06-8.13-6.23-12.12C166.48,96.51,164.52,100.58,162.35,104.57Z" style="fill:#f6f5f5"/><path d="M16,92c3.59-7.18,12.73-11,20.31-8.19,8.2,2.5,13.21,11.84,11.11,20.1-1.76,7.65-9.35,13.48-17.2,12.93-8.46-.2-15.84-7.71-16.18-16.11V99.09A18.21,18.21,0,0,1,16,92m11.11-3.72c-7.45,2.23-10.56,12.11-6.16,18.41,3.52,5.82,12.25,7.11,17.46,2.84,5.28-4,6.1-12.39,1.9-17.46A12,12,0,0,0,27.09,88.26Z" style="fill:#f6f5f5"/><path d="M49,116c3.8-11,6.71-22.2,10.63-33.1,3.18,7.31,6.37,14.62,9.35,22,3.25-7.45,6.49-14.83,9.54-22.34,3.66,11.1,7,22.34,10.56,33.44H84c-2.17-6.56-4-13.13-6.17-19.7C75,103.28,72,110.12,69,117c-2.84-6.91-5.82-13.74-8.8-20.58-2,6.57-4.06,13-6,19.56A43.3,43.3,0,0,1,49,116Z" style="fill:#f6f5f5"/><path d="M130.4,83.45c6.7-2,14.08,1.08,18.21,6.57-1.36.94-2.64,1.89-4,2.91a12.24,12.24,0,0,0-14.35-4.47c-5.75,2.1-9,9.07-7.17,14.89a11.82,11.82,0,0,0,12,8.67,12.18,12.18,0,0,0,11.1-8.67c-3.79,0-7.58,0-11.44-.07V98.55h16.65a17.3,17.3,0,0,1-5.21,13.4A16.83,16.83,0,0,1,117.6,99.29,17.43,17.43,0,0,1,130.4,83.45Z" style="fill:#f6f5f5"/><path d="M93.16,83.52H113v4.74c-4.94.06-9.89,0-14.83,0v9.13h14.42v4.74c-4.8-.06-9.61,0-14.42,0v9.14c4.94,0,9.89-.06,14.83,0V116c-6.64.07-13.2.07-19.84,0Z" style="fill:#f6f5f5"/></g></svg>