<svg id="Capa_1" data-name="Capa 1" xmlns="http://www.w3.org/2000/svg" viewBox="0 0 200 150"><title>logos_marcas</title><path d="M55,88.38,54.4,88a3.31,3.31,0,0,1-.76-.64,1.12,1.12,0,0,1-.24-.72,1.34,1.34,0,0,1,.44-1,1.55,1.55,0,0,1,1.13-.4,2.12,2.12,0,0,1,1.2.36v.85a1.85,1.85,0,0,0-1.24-.56,1,1,0,0,0-.61.16.55.55,0,0,0-.24.44.6.6,0,0,0,.16.44,3.56,3.56,0,0,0,.57.44l.56.36a1.73,1.73,0,0,1,1,1.49,1.39,1.39,0,0,1-.44,1,1.48,1.48,0,0,1-1.12.4,2.4,2.4,0,0,1-1.45-.48v-1a1.8,1.8,0,0,0,1.45.8,1,1,0,0,0,.6-.2.57.57,0,0,0,.24-.48c.08-.36-.16-.68-.64-1m9.88-3.1h.76l-2.13,5.34h-.16l-1.73-4.34-1.76,4.34h-.17l-2.12-5.34h.76l1.45,3.65,1.48-3.65H62l1.49,3.65Zm2.22,0h.77v5.31h-.77Zm4.15,3.08L70.66,88a3.4,3.4,0,0,1-.77-.64,1.12,1.12,0,0,1-.24-.72,1.34,1.34,0,0,1,.44-1,1.58,1.58,0,0,1,1.13-.4,2.12,2.12,0,0,1,1.2.36v.85a1.85,1.85,0,0,0-1.24-.56,1,1,0,0,0-.6.16.55.55,0,0,0-.24.44.6.6,0,0,0,.16.44,3.91,3.91,0,0,0,.56.44l.56.36a1.73,1.73,0,0,1,1,1.49,1.39,1.39,0,0,1-.44,1,1.48,1.48,0,0,1-1.12.4,2.43,2.43,0,0,1-1.45-.48v-1A1.8,1.8,0,0,0,71,90a1,1,0,0,0,.6-.2.57.57,0,0,0,.24-.48c.12-.36-.12-.68-.6-1m4.44,0L75.09,88a3.31,3.31,0,0,1-.76-.64,1.12,1.12,0,0,1-.24-.72,1.34,1.34,0,0,1,.44-1,1.55,1.55,0,0,1,1.13-.4,2.12,2.12,0,0,1,1.2.36v.85a1.77,1.77,0,0,0-1.24-.56,1,1,0,0,0-.61.16.55.55,0,0,0-.24.44.84.84,0,0,0,.16.44,3.91,3.91,0,0,0,.56.44l.57.36a1.73,1.73,0,0,1,1,1.49,1.39,1.39,0,0,1-.44,1,1.49,1.49,0,0,1-1.13.4A2.4,2.4,0,0,1,74,90.18v-1a1.8,1.8,0,0,0,1.44.8,1,1,0,0,0,.61-.2.57.57,0,0,0,.24-.48c.08-.36-.16-.68-.64-1m9,0-.85-1.92L83,88.34Zm-1.13-3.09H84l2.37,5.34h-.76L84.93,89H82.68L82,90.59h-.77Zm7.11,0h.76l-2.25,5.34H89l-2.29-5.34h.76L89.06,89ZM95,88.34l-.84-1.92-.8,1.92Zm-1.12-3.09h.52l2.37,5.34H96L95.29,89H93l-.64,1.56h-.76Zm8.62,0h.73v5.3h-.65l-3.53-4.1v4.1h-.72v-5.3h.6l3.57,4.13Zm2.29,0h4.41V86h-1.84v4.62h-.77V86h-1.8Zm4.41,3.24h1.89v.73h-1.89Zm6.54-.55h1.81v2.25a4.8,4.8,0,0,1-1.93.44,2.82,2.82,0,0,1-2.09-.76,2.63,2.63,0,0,1-.8-1.89,2.69,2.69,0,0,1,.8-2,2.88,2.88,0,0,1,2-.8,5.58,5.58,0,0,1,.85.08c.28.08.6.2,1,.36v.76a3.78,3.78,0,0,0-1.89-.56,2.05,2.05,0,0,0-1.48.6,2.08,2.08,0,0,0,0,2.94,2.05,2.05,0,0,0,1.52.56,4,4,0,0,0,1.09-.2l.08,0V88.61h-1.05V88Zm6.26.37-.84-1.92-.81,1.92Zm-1.12-3.09h.52l2.37,5.34H123L122.29,89H120l-.64,1.56h-.76S120.89,85.25,120.89,85.25Zm5.08.69h-.24v1.69H126a3.23,3.23,0,0,0,.8-.08.84.84,0,0,0,.33-.28.87.87,0,0,0,0-.88.56.56,0,0,0-.37-.37,2.12,2.12,0,0,0-.8-.08m-1,4.66V85.3h1.32a1.92,1.92,0,0,1,1.29.4,1.39,1.39,0,0,1,.48,1.09,1.35,1.35,0,0,1-.24.8,1.3,1.3,0,0,1-.68.52c.16.12.32.28.52.44a8.41,8.41,0,0,1,.68,1c.2.32.32.52.44.68l.28.36h-.92l-.24-.36a.14.14,0,0,1,0-.08l-.16-.2-.24-.4-.24-.4c-.17-.2-.33-.41-.45-.53a1.1,1.1,0,0,0-.36-.28,1.57,1.57,0,0,0-.52-.08h-.2v2.29A4.11,4.11,0,0,1,125,90.6Zm7-4.63h-1v4h1a4.42,4.42,0,0,0,.89-.08,1.57,1.57,0,0,0,.52-.21,1.44,1.44,0,0,0,.4-.28,2.09,2.09,0,0,0,0-2.85,3.34,3.34,0,0,0-.48-.32,1.71,1.71,0,0,0-.52-.2,4.44,4.44,0,0,0-.81,0m-1.72,4.62v-5.3H132a4.14,4.14,0,0,1,1.73.32,2.31,2.31,0,0,1,1,1,2.61,2.61,0,0,1,.37,1.37,2.79,2.79,0,0,1-.2,1,2.07,2.07,0,0,1-.61.84,2.28,2.28,0,0,1-.92.57,4.1,4.1,0,0,1-.56.16,5.5,5.5,0,0,1-1,0h-1.64Zm6.71-5.31h3V86h-2.25v1.61h2.17v.68h-2.17V89.9H140v.68h-3.09Zm9.13,3.1L145.5,88a3.19,3.19,0,0,1-.77-.64,1.12,1.12,0,0,1-.24-.72,1.34,1.34,0,0,1,.44-1,1.57,1.57,0,0,1,1.13-.4,2.12,2.12,0,0,1,1.2.36v.85a1.85,1.85,0,0,0-1.24-.56,1,1,0,0,0-.61.16.57.57,0,0,0-.24.48.6.6,0,0,0,.16.44,4.09,4.09,0,0,0,.57.44l.56.36a1.73,1.73,0,0,1,1,1.49,1.39,1.39,0,0,1-.44,1,1.48,1.48,0,0,1-1.12.4,2.4,2.4,0,0,1-1.45-.48v-1a1.8,1.8,0,0,0,1.45.8,1,1,0,0,0,.6-.2.57.57,0,0,0,.24-.48c0-.4-.16-.72-.64-1m3.1-3.08h.77v5.31h-.77Zm7.05,0h.72v5.3h-.64l-3.54-4.1v4.1H152v-5.3h.6l3.58,4.13Zm7.32,4.1v.84a3.85,3.85,0,0,1-1.93.45,3.09,3.09,0,0,1-1.53-.37,2.57,2.57,0,0,1-1-1,2.67,2.67,0,0,1-.36-1.37,2.6,2.6,0,0,1,.84-2,2.9,2.9,0,0,1,2-.81,4.83,4.83,0,0,1,1.85.45v.8a3.61,3.61,0,0,0-1.81-.52,2.25,2.25,0,0,0-1.53.56,2,2,0,0,0-.6,1.44,1.85,1.85,0,0,0,.6,1.45,2.18,2.18,0,0,0,1.53.56,3,3,0,0,0,1.85-.52m1.81-4.1h3V86H166.1v1.61h2.17v.68H166.1V89.9h2.33v.68h-3.09Zm8.77,0h.77v5.31h-.77Zm6,1.45a.7.7,0,0,0-.24-.57.87.87,0,0,0-1.2,0,.76.76,0,0,0-.24.57.79.79,0,0,0,.24.56.87.87,0,0,0,1.2,0,.79.79,0,0,0,.24-.56m.08,2.41v-.08a.74.74,0,0,0-.28-.61.94.94,0,0,0-.68-.24,1,1,0,0,0-.68.24.84.84,0,0,0-.24.61.72.72,0,0,0,.28.6.94.94,0,0,0,.68.24,1,1,0,0,0,.64-.2.61.61,0,0,0,.28-.56m-2.53-2.45a1.34,1.34,0,0,1,.49-1,1.65,1.65,0,0,1,2.24,0,1.31,1.31,0,0,1,.45,1,1.29,1.29,0,0,1-.65,1.16,1.44,1.44,0,0,1,.25,2.33,1.82,1.82,0,0,1-1.21.44,1.77,1.77,0,0,1-1.2-.44,1.41,1.41,0,0,1,.28-2.33,1.64,1.64,0,0,1-.49-.56,1.33,1.33,0,0,1-.16-.6m5.54,1.84a1.23,1.23,0,0,0,0,.4.91.91,0,0,0,.28.72.82.82,0,0,0,.69.29.79.79,0,0,0,.6-.25.81.81,0,0,0,.24-.6.75.75,0,0,0-.24-.6.94.94,0,0,0-.68-.24,1.18,1.18,0,0,0-.4.08.84.84,0,0,0-.45.2m1.25-3.29.08,0,.44.56a7.36,7.36,0,0,0-1,.84,2.94,2.94,0,0,0-.61,1.09,1.68,1.68,0,0,1,.85-.2,1.45,1.45,0,0,1,1,.44A1.48,1.48,0,0,1,185.7,89a1.54,1.54,0,0,1-.48,1.13,1.51,1.51,0,0,1-1.12.48,1.47,1.47,0,0,1-1.21-.52,2,2,0,0,1-.48-1.37,3.62,3.62,0,0,1,.24-1.28,5,5,0,0,1,.68-1.21,10.41,10.41,0,0,1,1.13-1m4.39.68h0a.76.76,0,0,0-.73.53,3.6,3.6,0,0,0-.24,1.44,3.73,3.73,0,0,0,.24,1.49.75.75,0,0,0,.69.52.74.74,0,0,0,.68-.52,3.65,3.65,0,0,0,.24-1.45,3.81,3.81,0,0,0-.24-1.48c-.16-.37-.36-.53-.64-.53m0-.72a1.37,1.37,0,0,1,1.2.76,4.28,4.28,0,0,1,0,3.94,1.39,1.39,0,0,1-1.24.76,1.43,1.43,0,0,1-1.25-.72,3.59,3.59,0,0,1-.48-2,3.71,3.71,0,0,1,.48-2,1.42,1.42,0,0,1,1.29-.8M106.7,78.81c-3.9.88-8.88,1.13-12.49-.52a9.77,9.77,0,0,1-5.38-7.71A10.06,10.06,0,0,1,93,61.06c3.62-2.57,9.36-2.49,13.3-.68v3.93c-3-1.36-7.47-2.16-10.32,0a6.37,6.37,0,0,0-2.17,6.59,6.25,6.25,0,0,0,4,4.38,10.37,10.37,0,0,0,4.46.36V72.43h-2V68.57h6.47V78.81Zm-47.65.26V63H66.2V59.23H46.88V63H54V79.07ZM79.13,59.22H73.35L65.24,79.05h5.34l1.52-3.89H81l1.65,3.89H88ZM73.47,71.54l2.85-7.42,3.09,7.42Zm52.71-3.75H114.93V59.23h-3V79.07h3V70.44h11.25v8.63h3V59.23h-3Zm36.41,5.7a5.39,5.39,0,0,1-5,3.37c-3.53,0-4.06-2.73-4.06-4.34V61.92h-3V72.08c0,6.87,5.18,7.39,6.75,7.39a7.65,7.65,0,0,0,5.34-2v1.65h3V61.88h-3ZM200,63.72a6.6,6.6,0,0,0-4.34-2.17c-2.13,0-4.17,2.05-5.38,3.46V61.83h-3V79.06h3V68.78c.8-1.32,3-4.34,4.78-4.34,1.53,0,3.09,1.73,3.13,1.73Zm-64.88,4.06a4.52,4.52,0,0,1,4.74-3.37c3.61,0,4.62,2.17,4.9,3.37Zm4.74-6.22c-4.74,0-8.32,3.53-8.32,8.91a8.82,8.82,0,0,0,9.2,9,11,11,0,0,0,6.95-2.41l.16-.16V73.36l-.92.89a9.57,9.57,0,0,1-6,2.41c-3.69,0-6.26-2.17-6.26-6.19v0h13.49v-.56c0-4.22-2.61-8.31-8.35-8.31m31.86,6.22a4.51,4.51,0,0,1,4.73-3.37c3.62,0,4.62,2.17,4.9,3.37Zm4.73-6.22c-4.73,0-8.31,3.53-8.31,8.91a8.82,8.82,0,0,0,9.2,9,11.05,11.05,0,0,0,6.95-2.41l.16-.16V73.36l-.93.89a9.57,9.57,0,0,1-5.94,2.41c-3.7,0-6.27-2.17-6.27-6.15v0h13.5v-.56c0-4.26-2.65-8.35-8.36-8.35M8.1,74h-1a0,0,0,0,0,0,0v2.5L4.65,76V74a0,0,0,0,0,0,0H3.56v4.5s0,0,0,0l1,.57h0l0,0V77l2.4.6v2.85c-.08,0-.08,0,0,.08l1,.57h0l0,0V74A0,0,0,0,0,8.1,74Zm5.7,1.15a0,0,0,0,0,0,0v-1s0,0,0,0H10.19s0,0,0,0v8.19s0,0,0,0l3.57,2.05h0l0,0V83.08s0,0,0,0l-2.45-1.33v-3l2.21.56a.14.14,0,0,0,0-.08V78a0,0,0,0,0,0,0l-2.21-.48V75.13ZM4.1,62.65v1.61H7.44v6.12H9.81V64.26h3.34V62.65Zm15,0h-2.7l-3.94,7.73h2.41l.81-1.53h4.14l.85,1.53h2.41Zm-2.78,4.63,1.45-2.74,1.33,2.74Zm12.59-1v1.49h.93V69a7.27,7.27,0,0,1-2.09-.16,2.77,2.77,0,0,1-1.85-1.73,2.25,2.25,0,0,1,1-2.58c1.33-.84,3.42-.36,4.83.16V63a8,8,0,0,0-6.24.28A3.68,3.68,0,0,0,23.57,67a3.9,3.9,0,0,0,2.54,3,11.72,11.72,0,0,0,5.83.24v-4Zm0,0v1.49h.93V69a7.27,7.27,0,0,1-2.09-.16,2.77,2.77,0,0,1-1.85-1.73,2.25,2.25,0,0,1,1-2.58c1.33-.84,3.42-.36,4.83.16V63a8,8,0,0,0-6.24.28A3.68,3.68,0,0,0,23.57,67a3.9,3.9,0,0,0,2.54,3,11.72,11.72,0,0,0,5.83.24v-4Zm-9.81-3.62h-2.7l-3.94,7.73h2.41l.81-1.53h4.14l.85,1.53h2.41Zm-2.78,4.63,1.45-2.74,1.33,2.74ZM4.1,62.65v1.61H7.44v6.12H9.81V64.26h3.34V62.65Zm0,0v1.61H7.44v6.12H9.81V64.26h3.34V62.65Zm15,0h-2.7l-3.94,7.73h2.41l.81-1.53h4.14l.85,1.53h2.41Zm-2.78,4.63,1.45-2.74,1.33,2.74Zm12.59-1v1.49h.93V69a7.27,7.27,0,0,1-2.09-.16,2.77,2.77,0,0,1-1.85-1.73,2.25,2.25,0,0,1,1-2.58c1.33-.84,3.42-.36,4.83.16V63a8,8,0,0,0-6.24.28A3.68,3.68,0,0,0,23.57,67a3.9,3.9,0,0,0,2.54,3,11.72,11.72,0,0,0,5.83.24v-4Zm0,0v1.49h.93V69a7.27,7.27,0,0,1-2.09-.16,2.77,2.77,0,0,1-1.85-1.73,2.25,2.25,0,0,1,1-2.58c1.33-.84,3.42-.36,4.83.16V63a8,8,0,0,0-6.24.28A3.68,3.68,0,0,0,23.57,67a3.9,3.9,0,0,0,2.54,3,11.72,11.72,0,0,0,5.83.24v-4Zm-9.81-3.62h-2.7l-3.94,7.73h2.41l.81-1.53h4.14l.85,1.53h2.41Zm-2.78,4.63,1.45-2.74,1.33,2.74ZM4.1,62.65v1.61H7.44v6.12H9.81V64.26h3.34V62.65Zm0,0v1.61H7.44v6.12H9.81V64.26h3.34V62.65Zm15,0h-2.7l-3.94,7.73h2.41l.81-1.53h4.14l.85,1.53h2.41Zm-2.78,4.63,1.45-2.74,1.33,2.74Zm12.59-1v1.49h.93V69a7.27,7.27,0,0,1-2.09-.16,2.77,2.77,0,0,1-1.85-1.73,2.25,2.25,0,0,1,1-2.58c1.33-.84,3.42-.36,4.83.16V63a8,8,0,0,0-6.24.28A3.68,3.68,0,0,0,23.57,67a3.9,3.9,0,0,0,2.54,3,11.72,11.72,0,0,0,5.83.24v-4Zm0,0v1.49h.93V69a7.27,7.27,0,0,1-2.09-.16,2.77,2.77,0,0,1-1.85-1.73,2.25,2.25,0,0,1,1-2.58c1.33-.84,3.42-.36,4.83.16V63a8,8,0,0,0-6.24.28A3.68,3.68,0,0,0,23.57,67a3.9,3.9,0,0,0,2.54,3,11.72,11.72,0,0,0,5.83.24v-4ZM16.41,62.65l-3.94,7.73h2.41l.81-1.53h4.14l.85,1.53h2.41l-4-7.73Zm-.08,4.63,1.45-2.74,1.33,2.74Zm-3.18-4.63h-9v1.61H7.44v6.12H9.81V64.26h3.34Zm-12-2.22V79.79l17.13,9.86,17.13-9.86V60.43Zm1,.93h32.2v10.3H2.16Zm32.2,17.91-16.1,9.24L2.15,79.27v-6.5H34.36ZM28.92,67.76h.93V69a7.27,7.27,0,0,1-2.09-.16,2.77,2.77,0,0,1-1.85-1.73,2.25,2.25,0,0,1,1-2.58c1.33-.84,3.42-.36,4.83.16V63a8,8,0,0,0-6.24.28A3.68,3.68,0,0,0,23.57,67a3.9,3.9,0,0,0,2.54,3,11.72,11.72,0,0,0,5.83.24v-4h-3ZM16.41,62.65l-3.94,7.73h2.41l.81-1.53h4.14l.85,1.53h2.41l-4-7.73Zm-.08,4.63,1.45-2.74,1.33,2.74Zm-3.18-4.63h-9v1.61H7.44v6.12H9.81V64.26h3.34Zm-9,0v1.61H7.44v6.12H9.81V64.26h3.34V62.65Zm15,0h-2.7l-3.94,7.73h2.41l.81-1.53h4.14l.85,1.53h2.41Zm-2.78,4.63,1.45-2.74,1.33,2.74Zm12.59-1v1.49h.93V69a7.27,7.27,0,0,1-2.09-.16,2.77,2.77,0,0,1-1.85-1.73,2.25,2.25,0,0,1,1-2.58c1.33-.84,3.42-.36,4.83.16V63a8,8,0,0,0-6.24.28A3.68,3.68,0,0,0,23.57,67a3.9,3.9,0,0,0,2.54,3,11.72,11.72,0,0,0,5.83.24v-4Zm0,0v1.49h.93V69a7.27,7.27,0,0,1-2.09-.16,2.77,2.77,0,0,1-1.85-1.73,2.25,2.25,0,0,1,1-2.58c1.33-.84,3.42-.36,4.83.16V63a8,8,0,0,0-6.24.28A3.68,3.68,0,0,0,23.57,67a3.9,3.9,0,0,0,2.54,3,11.72,11.72,0,0,0,5.83.24v-4Zm-9.81-3.62h-2.7l-3.94,7.73h2.41l.81-1.53h4.14l.85,1.53h2.41Zm-2.78,4.63,1.45-2.74,1.33,2.74ZM4.1,62.65v1.61H7.44v6.12H9.81V64.26h3.34V62.65Zm0,0v1.61H7.44v6.12H9.81V64.26h3.34V62.65Zm15,0h-2.7l-3.94,7.73h2.41l.81-1.53h4.14l.85,1.53h2.41Zm-2.78,4.63,1.45-2.74,1.33,2.74Zm12.59-1v1.49h.93V69a7.27,7.27,0,0,1-2.09-.16,2.77,2.77,0,0,1-1.85-1.73,2.25,2.25,0,0,1,1-2.58c1.33-.84,3.42-.36,4.83.16V63a8,8,0,0,0-6.24.28A3.68,3.68,0,0,0,23.57,67a3.9,3.9,0,0,0,2.54,3,11.72,11.72,0,0,0,5.83.24v-4Zm0,0v1.49h.93V69a7.27,7.27,0,0,1-2.09-.16,2.77,2.77,0,0,1-1.85-1.73,2.25,2.25,0,0,1,1-2.58c1.33-.84,3.42-.36,4.83.16V63a8,8,0,0,0-6.24.28A3.68,3.68,0,0,0,23.57,67a3.9,3.9,0,0,0,2.54,3,11.72,11.72,0,0,0,5.83.24v-4Zm-9.81-3.62h-2.7l-3.94,7.73h2.41l.81-1.53h4.14l.85,1.53h2.41Zm-2.78,4.63,1.45-2.74,1.33,2.74ZM4.1,62.65v1.61H7.44v6.12H9.81V64.26h3.34V62.65Zm0,0v1.61H7.44v6.12H9.81V64.26h3.34V62.65Zm15,0h-2.7l-3.94,7.73h2.41l.81-1.53h4.14l.85,1.53h2.41Zm-2.78,4.63,1.45-2.74,1.33,2.74Zm12.59-1v1.49h.93V69a7.27,7.27,0,0,1-2.09-.16,2.77,2.77,0,0,1-1.85-1.73,2.25,2.25,0,0,1,1-2.58c1.33-.84,3.42-.36,4.83.16V63a8,8,0,0,0-6.24.28A3.68,3.68,0,0,0,23.57,67a3.9,3.9,0,0,0,2.54,3,11.72,11.72,0,0,0,5.83.24v-4Zm0,0v1.49h.93V69a7.27,7.27,0,0,1-2.09-.16,2.77,2.77,0,0,1-1.85-1.73,2.25,2.25,0,0,1,1-2.58c1.33-.84,3.42-.36,4.83.16V63a8,8,0,0,0-6.24.28A3.68,3.68,0,0,0,23.57,67a3.9,3.9,0,0,0,2.54,3,11.72,11.72,0,0,0,5.83.24v-4Zm-9.81-3.62h-2.7l-3.94,7.73h2.41l.81-1.53h4.14l.85,1.53h2.41Zm-2.78,4.63,1.45-2.74,1.33,2.74ZM4.1,62.65v1.61H7.44v6.12H9.81V64.26h3.34V62.65Zm0,0v1.61H7.44v6.12H9.81V64.26h3.34V62.65Zm15,0h-2.7l-3.94,7.73h2.41l.81-1.53h4.14l.85,1.53h2.41Zm-2.78,4.63,1.45-2.74,1.33,2.74Zm12.59-1v1.49h.93V69a7.27,7.27,0,0,1-2.09-.16,2.77,2.77,0,0,1-1.85-1.73,2.25,2.25,0,0,1,1-2.58c1.33-.84,3.42-.36,4.83.16V63a8,8,0,0,0-6.24.28A3.68,3.68,0,0,0,23.57,67a3.9,3.9,0,0,0,2.54,3,11.72,11.72,0,0,0,5.83.24v-4Zm0,0v1.49h.93V69a7.27,7.27,0,0,1-2.09-.16,2.77,2.77,0,0,1-1.85-1.73,2.25,2.25,0,0,1,1-2.58c1.33-.84,3.42-.36,4.83.16V63a8,8,0,0,0-6.24.28A3.68,3.68,0,0,0,23.57,67a3.9,3.9,0,0,0,2.54,3,11.72,11.72,0,0,0,5.83.24v-4ZM16.41,62.65l-3.94,7.73h2.41l.81-1.53h4.14l.85,1.53h2.41l-4-7.73Zm-.08,4.63,1.45-2.74,1.33,2.74Zm-3.18-4.63h-9v1.61H7.44v6.12H9.81V64.26h3.34Zm-12-2.22V79.79l17.13,9.86,17.13-9.86V60.43Zm1,.93h32.2v10.3H2.16Zm32.2,17.91-16.1,9.24L2.15,79.27v-6.5H34.36ZM28.92,67.76h.93V69a7.27,7.27,0,0,1-2.09-.16,2.77,2.77,0,0,1-1.85-1.73,2.25,2.25,0,0,1,1-2.58c1.33-.84,3.42-.36,4.83.16V63a8,8,0,0,0-6.24.28A3.68,3.68,0,0,0,23.57,67a3.9,3.9,0,0,0,2.54,3,11.72,11.72,0,0,0,5.83.24v-4h-3ZM16.41,62.65l-3.94,7.73h2.41l.81-1.53h4.14l.85,1.53h2.41l-4-7.73Zm-.08,4.63,1.45-2.74,1.33,2.74Zm-3.18-4.63h-9v1.61H7.44v6.12H9.81V64.26h3.34Zm-9,0v1.61H7.44v6.12H9.81V64.26h3.34V62.65Zm15,0h-2.7l-3.94,7.73h2.41l.81-1.53h4.14l.85,1.53h2.41Zm-2.78,4.63,1.45-2.74,1.33,2.74Zm12.59-1v1.49h.93V69a7.27,7.27,0,0,1-2.09-.16,2.77,2.77,0,0,1-1.85-1.73,2.25,2.25,0,0,1,1-2.58c1.33-.84,3.42-.36,4.83.16V63a8,8,0,0,0-6.24.28A3.68,3.68,0,0,0,23.57,67a3.9,3.9,0,0,0,2.54,3,11.72,11.72,0,0,0,5.83.24v-4Zm0,0v1.49h.93V69a7.27,7.27,0,0,1-2.09-.16,2.77,2.77,0,0,1-1.85-1.73,2.25,2.25,0,0,1,1-2.58c1.33-.84,3.42-.36,4.83.16V63a8,8,0,0,0-6.24.28A3.68,3.68,0,0,0,23.57,67a3.9,3.9,0,0,0,2.54,3,11.72,11.72,0,0,0,5.83.24v-4Zm-9.81-3.62h-2.7l-3.94,7.73h2.41l.81-1.53h4.14l.85,1.53h2.41Zm-2.78,4.63,1.45-2.74,1.33,2.74ZM4.1,62.65v1.61H7.44v6.12H9.81V64.26h3.34V62.65Zm0,0v1.61H7.44v6.12H9.81V64.26h3.34V62.65Zm15,0h-2.7l-3.94,7.73h2.41l.81-1.53h4.14l.85,1.53h2.41Zm-2.78,4.63,1.45-2.74,1.33,2.74Zm12.59-1v1.49h.93V69a7.27,7.27,0,0,1-2.09-.16,2.77,2.77,0,0,1-1.85-1.73,2.25,2.25,0,0,1,1-2.58c1.33-.84,3.42-.36,4.83.16V63a8,8,0,0,0-6.24.28A3.68,3.68,0,0,0,23.57,67a3.9,3.9,0,0,0,2.54,3,11.72,11.72,0,0,0,5.83.24v-4Zm0,0v1.49h.93V69a7.27,7.27,0,0,1-2.09-.16,2.77,2.77,0,0,1-1.85-1.73,2.25,2.25,0,0,1,1-2.58c1.33-.84,3.42-.36,4.83.16V63a8,8,0,0,0-6.24.28A3.68,3.68,0,0,0,23.57,67a3.9,3.9,0,0,0,2.54,3,11.72,11.72,0,0,0,5.83.24v-4Zm-9.81-3.62h-2.7l-3.94,7.73h2.41l.81-1.53h4.14l.85,1.53h2.41Zm-2.78,4.63,1.45-2.74,1.33,2.74ZM4.1,62.65v1.61H7.44v6.12H9.81V64.26h3.34V62.65Zm0,0v1.61H7.44v6.12H9.81V64.26h3.34V62.65Zm15,0h-2.7l-3.94,7.73h2.41l.81-1.53h4.14l.85,1.53h2.41Zm-2.78,4.63,1.45-2.74,1.33,2.74Zm12.59-1v1.49h.93V69a7.27,7.27,0,0,1-2.09-.16,2.77,2.77,0,0,1-1.85-1.73,2.25,2.25,0,0,1,1-2.58c1.33-.84,3.42-.36,4.83.16V63a8,8,0,0,0-6.24.28A3.68,3.68,0,0,0,23.57,67a3.9,3.9,0,0,0,2.54,3,11.72,11.72,0,0,0,5.83.24v-4Zm0,0v1.49h.93V69a7.27,7.27,0,0,1-2.09-.16,2.77,2.77,0,0,1-1.85-1.73,2.25,2.25,0,0,1,1-2.58c1.33-.84,3.42-.36,4.83.16V63a8,8,0,0,0-6.24.28A3.68,3.68,0,0,0,23.57,67a3.9,3.9,0,0,0,2.54,3,11.72,11.72,0,0,0,5.83.24v-4Zm-9.81-3.62h-2.7l-3.94,7.73h2.41l.81-1.53h4.14l.85,1.53h2.41Zm-2.78,4.63,1.45-2.74,1.33,2.74ZM4.1,62.65v1.61H7.44v6.12H9.81V64.26h3.34V62.65Zm0,0v1.61H7.44v6.12H9.81V64.26h3.34V62.65Zm15,0h-2.7l-3.94,7.73h2.41l.81-1.53h4.14l.85,1.53h2.41Zm-2.78,4.63,1.45-2.74,1.33,2.74Zm12.59-1v1.49h.93V69a7.27,7.27,0,0,1-2.09-.16,2.77,2.77,0,0,1-1.85-1.73,2.25,2.25,0,0,1,1-2.58c1.33-.84,3.42-.36,4.83.16V63a8,8,0,0,0-6.24.28A3.68,3.68,0,0,0,23.57,67a3.9,3.9,0,0,0,2.54,3,11.72,11.72,0,0,0,5.83.24v-4Zm0,0v1.49h.93V69a7.27,7.27,0,0,1-2.09-.16,2.77,2.77,0,0,1-1.85-1.73,2.25,2.25,0,0,1,1-2.58c1.33-.84,3.42-.36,4.83.16V63a8,8,0,0,0-6.24.28A3.68,3.68,0,0,0,23.57,67a3.9,3.9,0,0,0,2.54,3,11.72,11.72,0,0,0,5.83.24v-4ZM16.41,62.65l-3.94,7.73h2.41l.81-1.53h4.14l.85,1.53h2.41l-4-7.73Zm-.08,4.63,1.45-2.74,1.33,2.74Zm-3.18-4.63h-9v1.61H7.44v6.12H9.81V64.26h3.34Zm-12-2.22V79.79l17.13,9.86,17.13-9.86V60.43Zm1,.93h32.2v10.3H2.16Zm32.2,17.91-16.1,9.24L2.15,79.27v-6.5H34.36ZM28.92,67.76h.93V69a7.27,7.27,0,0,1-2.09-.16,2.77,2.77,0,0,1-1.85-1.73,2.25,2.25,0,0,1,1-2.58c1.33-.84,3.42-.36,4.83.16V63a8,8,0,0,0-6.24.28A3.68,3.68,0,0,0,23.57,67a3.9,3.9,0,0,0,2.54,3,11.72,11.72,0,0,0,5.83.24v-4h-3ZM16.41,62.65l-3.94,7.73h2.41l.81-1.53h4.14l.85,1.53h2.41l-4-7.73Zm-.08,4.63,1.45-2.74,1.33,2.74Zm-3.18-4.63h-9v1.61H7.44v6.12H9.81V64.26h3.34Zm-9,0v1.61H7.44v6.12H9.81V64.26h3.34V62.65Zm15,0h-2.7l-3.94,7.73h2.41l.81-1.53h4.14l.85,1.53h2.41Zm-2.78,4.63,1.45-2.74,1.33,2.74Zm12.59-1v1.49h.93V69a7.27,7.27,0,0,1-2.09-.16,2.77,2.77,0,0,1-1.85-1.73,2.25,2.25,0,0,1,1-2.58c1.33-.84,3.42-.36,4.83.16V63a8,8,0,0,0-6.24.28A3.68,3.68,0,0,0,23.57,67a3.9,3.9,0,0,0,2.54,3,11.72,11.72,0,0,0,5.83.24v-4Zm0,0v1.49h.93V69a7.27,7.27,0,0,1-2.09-.16,2.77,2.77,0,0,1-1.85-1.73,2.25,2.25,0,0,1,1-2.58c1.33-.84,3.42-.36,4.83.16V63a8,8,0,0,0-6.24.28A3.68,3.68,0,0,0,23.57,67a3.9,3.9,0,0,0,2.54,3,11.72,11.72,0,0,0,5.83.24v-4Zm-9.81-3.62h-2.7l-3.94,7.73h2.41l.81-1.53h4.14l.85,1.53h2.41Zm-2.78,4.63,1.45-2.74,1.33,2.74ZM4.1,62.65v1.61H7.44v6.12H9.81V64.26h3.34V62.65Zm0,0v1.61H7.44v6.12H9.81V64.26h3.34V62.65Zm15,0h-2.7l-3.94,7.73h2.41l.81-1.53h4.14l.85,1.53h2.41Zm-2.78,4.63,1.45-2.74,1.33,2.74Zm12.59-1v1.49h.93V69a7.27,7.27,0,0,1-2.09-.16,2.77,2.77,0,0,1-1.85-1.73,2.25,2.25,0,0,1,1-2.58c1.33-.84,3.42-.36,4.83.16V63a8,8,0,0,0-6.24.28A3.68,3.68,0,0,0,23.57,67a3.9,3.9,0,0,0,2.54,3,11.72,11.72,0,0,0,5.83.24v-4Zm0,0v1.49h.93V69a7.27,7.27,0,0,1-2.09-.16,2.77,2.77,0,0,1-1.85-1.73,2.25,2.25,0,0,1,1-2.58c1.33-.84,3.42-.36,4.83.16V63a8,8,0,0,0-6.24.28A3.68,3.68,0,0,0,23.57,67a3.9,3.9,0,0,0,2.54,3,11.72,11.72,0,0,0,5.83.24v-4ZM16.41,62.65l-3.94,7.73h2.41l.81-1.53h4.14l.85,1.53h2.41l-4-7.73Zm-.08,4.63,1.45-2.74,1.33,2.74Zm-3.18-4.63h-9v1.61H7.44v6.12H9.81V64.26h3.34Zm-12-2.22V79.79l17.13,9.86,17.13-9.86V60.43Zm1,.93h32.2v10.3H2.16Zm32.2,17.91-16.1,9.24L2.15,79.27v-6.5H34.36ZM28.92,67.76h.93V69a7.27,7.27,0,0,1-2.09-.16,2.77,2.77,0,0,1-1.85-1.73,2.25,2.25,0,0,1,1-2.58c1.33-.84,3.42-.36,4.83.16V63a8,8,0,0,0-6.24.28A3.68,3.68,0,0,0,23.57,67a3.9,3.9,0,0,0,2.54,3,11.72,11.72,0,0,0,5.83.24v-4h-3ZM16.41,62.65l-3.94,7.73h2.41l.81-1.53h4.14l.85,1.53h2.41l-4-7.73Zm-.08,4.63,1.45-2.74,1.33,2.74Zm-3.18-4.63h-9v1.61H7.44v6.12H9.81V64.26h3.34Zm-9,0v1.61H7.44v6.12H9.81V64.26h3.34V62.65Zm15,0h-2.7l-3.94,7.73h2.41l.81-1.53h4.14l.85,1.53h2.41Zm-2.78,4.63,1.45-2.74,1.33,2.74Zm12.59-1v1.49h.93V69a7.27,7.27,0,0,1-2.09-.16,2.77,2.77,0,0,1-1.85-1.73,2.25,2.25,0,0,1,1-2.58c1.33-.84,3.42-.36,4.83.16V63a8,8,0,0,0-6.24.28A3.68,3.68,0,0,0,23.57,67a3.9,3.9,0,0,0,2.54,3,11.72,11.72,0,0,0,5.83.24v-4Zm0,0v1.49h.93V69a7.27,7.27,0,0,1-2.09-.16,2.77,2.77,0,0,1-1.85-1.73,2.25,2.25,0,0,1,1-2.58c1.33-.84,3.42-.36,4.83.16V63a8,8,0,0,0-6.24.28A3.68,3.68,0,0,0,23.57,67a3.9,3.9,0,0,0,2.54,3,11.72,11.72,0,0,0,5.83.24v-4Zm-9.81-3.62h-2.7l-3.94,7.73h2.41l.81-1.53h4.14l.85,1.53h2.41Zm-2.78,4.63,1.45-2.74,1.33,2.74ZM4.1,62.65v1.61H7.44v6.12H9.81V64.26h3.34V62.65Zm0,0v1.61H7.44v6.12H9.81V64.26h3.34V62.65Zm15,0h-2.7l-3.94,7.73h2.41l.81-1.53h4.14l.85,1.53h2.41Zm-2.78,4.63,1.45-2.74,1.33,2.74Zm12.59-1v1.49h.93V69a7.27,7.27,0,0,1-2.09-.16,2.77,2.77,0,0,1-1.85-1.73,2.25,2.25,0,0,1,1-2.58c1.33-.84,3.42-.36,4.83.16V63a8,8,0,0,0-6.24.28A3.68,3.68,0,0,0,23.57,67a3.9,3.9,0,0,0,2.54,3,11.72,11.72,0,0,0,5.83.24v-4Zm0,0v1.49h.93V69a7.27,7.27,0,0,1-2.09-.16,2.77,2.77,0,0,1-1.85-1.73,2.25,2.25,0,0,1,1-2.58c1.33-.84,3.42-.36,4.83.16V63a8,8,0,0,0-6.24.28A3.68,3.68,0,0,0,23.57,67a3.9,3.9,0,0,0,2.54,3,11.72,11.72,0,0,0,5.83.24v-4ZM16.41,62.65l-3.94,7.73h2.41l.81-1.53h4.14l.85,1.53h2.41l-4-7.73Zm-.08,4.63,1.45-2.74,1.33,2.74Zm-3.18-4.63h-9v1.61H7.44v6.12H9.81V64.26h3.34Zm-12-2.22V79.79l17.13,9.86,17.13-9.86V60.43Zm1,.93h32.2v10.3H2.16Zm32.2,17.91-16.1,9.24L2.15,79.27v-6.5H34.36ZM28.92,67.76h.93V69a7.27,7.27,0,0,1-2.09-.16,2.77,2.77,0,0,1-1.85-1.73,2.25,2.25,0,0,1,1-2.58c1.33-.84,3.42-.36,4.83.16V63a8,8,0,0,0-6.24.28A3.68,3.68,0,0,0,23.57,67a3.9,3.9,0,0,0,2.54,3,11.72,11.72,0,0,0,5.83.24v-4h-3ZM16.41,62.65l-3.94,7.73h2.41l.81-1.53h4.14l.85,1.53h2.41l-4-7.73Zm-.08,4.63,1.45-2.74,1.33,2.74Zm-3.18-4.63h-9v1.61H7.44v6.12H9.81V64.26h3.34Zm-12-2.22V79.79l17.13,9.86,17.13-9.86V60.43Zm1,.93h32.2v10.3H2.16Zm32.2,17.91-16.1,9.24L2.15,79.27v-6.5H34.36ZM28.92,67.76h.93V69a7.27,7.27,0,0,1-2.09-.16,2.77,2.77,0,0,1-1.85-1.73,2.25,2.25,0,0,1,1-2.58c1.33-.84,3.42-.36,4.83.16V63a8,8,0,0,0-6.24.28A3.68,3.68,0,0,0,23.57,67a3.9,3.9,0,0,0,2.54,3,11.72,11.72,0,0,0,5.83.24v-4h-3ZM16.41,62.65l-3.94,7.73h2.41l.81-1.53h4.14l.85,1.53h2.41l-4-7.73Zm-.08,4.63,1.45-2.74,1.33,2.74Zm-3.18-4.63h-9v1.61H7.44v6.12H9.81V64.26h3.34ZM0,59.28V80.45L18.23,90.93,36.51,80.45V59.28ZM35.79,80l-17.45,10h-.15L.73,80V60H35.79Zm-.4-.23V60.43H1.13V79.79l17.13,9.86ZM2.16,61.36h32.2v10.3H2.16Zm0,17.91v-6.5H34.36v6.5l-16.1,9.24ZM28.92,67.76h.93V69a7.27,7.27,0,0,1-2.09-.16,2.77,2.77,0,0,1-1.85-1.73,2.25,2.25,0,0,1,1-2.58c1.33-.84,3.42-.36,4.83.16V63a8,8,0,0,0-6.24.28A3.68,3.68,0,0,0,23.57,67a3.9,3.9,0,0,0,2.54,3,11.72,11.72,0,0,0,5.83.24v-4h-3ZM16.41,62.65l-3.94,7.73h2.41l.81-1.53h4.14l.85,1.53h2.41l-4-7.73Zm-.08,4.63,1.45-2.74,1.33,2.74Zm-3.18-4.63h-9v1.61H7.44v6.12H9.81V64.26h3.34Zm-9,0v1.61H7.44v6.12H9.81V64.26h3.34V62.65Zm15,0h-2.7l-3.94,7.73h2.41l.81-1.53h4.14l.85,1.53h2.41Zm-2.78,4.63,1.45-2.74,1.33,2.74Zm12.59-1v1.49h.93V69a7.27,7.27,0,0,1-2.09-.16,2.77,2.77,0,0,1-1.85-1.73,2.25,2.25,0,0,1,1-2.58c1.33-.84,3.42-.36,4.83.16V63a8,8,0,0,0-6.24.28A3.68,3.68,0,0,0,23.57,67a3.9,3.9,0,0,0,2.54,3,11.72,11.72,0,0,0,5.83.24v-4Zm0,0v1.49h.93V69a7.27,7.27,0,0,1-2.09-.16,2.77,2.77,0,0,1-1.85-1.73,2.25,2.25,0,0,1,1-2.58c1.33-.84,3.42-.36,4.83.16V63a8,8,0,0,0-6.24.28A3.68,3.68,0,0,0,23.57,67a3.9,3.9,0,0,0,2.54,3,11.72,11.72,0,0,0,5.83.24v-4ZM16.41,62.65l-3.94,7.73h2.41l.81-1.53h4.14l.85,1.53h2.41l-4-7.73Zm-.08,4.63,1.45-2.74,1.33,2.74Zm-3.18-4.63h-9v1.61H7.44v6.12H9.81V64.26h3.34Zm-12-2.22V79.79l17.13,9.86,17.13-9.86V60.43Zm1,.93h32.2v10.3H2.16Zm32.2,17.91-16.1,9.24L2.15,79.27v-6.5H34.36ZM28.92,67.76h.93V69a7.27,7.27,0,0,1-2.09-.16,2.77,2.77,0,0,1-1.85-1.73,2.25,2.25,0,0,1,1-2.58c1.33-.84,3.42-.36,4.83.16V63a8,8,0,0,0-6.24.28A3.68,3.68,0,0,0,23.57,67a3.9,3.9,0,0,0,2.54,3,11.72,11.72,0,0,0,5.83.24v-4h-3ZM16.41,62.65l-3.94,7.73h2.41l.81-1.53h4.14l.85,1.53h2.41l-4-7.73Zm-.08,4.63,1.45-2.74,1.33,2.74Zm-3.18-4.63h-9v1.61H7.44v6.12H9.81V64.26h3.34Zm-9,0v1.61H7.44v6.12H9.81V64.26h3.34V62.65Zm15,0h-2.7l-3.94,7.73h2.41l.81-1.53h4.14l.85,1.53h2.41Zm-2.78,4.63,1.45-2.74,1.33,2.74Zm12.59-1v1.49h.93V69a7.27,7.27,0,0,1-2.09-.16,2.77,2.77,0,0,1-1.85-1.73,2.25,2.25,0,0,1,1-2.58c1.33-.84,3.42-.36,4.83.16V63a8,8,0,0,0-6.24.28A3.68,3.68,0,0,0,23.57,67a3.9,3.9,0,0,0,2.54,3,11.72,11.72,0,0,0,5.83.24v-4Zm0,0v1.49h.93V69a7.27,7.27,0,0,1-2.09-.16,2.77,2.77,0,0,1-1.85-1.73,2.25,2.25,0,0,1,1-2.58c1.33-.84,3.42-.36,4.83.16V63a8,8,0,0,0-6.24.28A3.68,3.68,0,0,0,23.57,67a3.9,3.9,0,0,0,2.54,3,11.72,11.72,0,0,0,5.83.24v-4ZM16.41,62.65l-3.94,7.73h2.41l.81-1.53h4.14l.85,1.53h2.41l-4-7.73Zm-.08,4.63,1.45-2.74,1.33,2.74Zm-3.18-4.63h-9v1.61H7.44v6.12H9.81V64.26h3.34Zm-12-2.22V79.79l17.13,9.86,17.13-9.86V60.43Zm1,.93h32.2v10.3H2.16Zm32.2,17.91-16.1,9.24L2.15,79.27v-6.5H34.36ZM28.92,67.76h.93V69a7.27,7.27,0,0,1-2.09-.16,2.77,2.77,0,0,1-1.85-1.73,2.25,2.25,0,0,1,1-2.58c1.33-.84,3.42-.36,4.83.16V63a8,8,0,0,0-6.24.28A3.68,3.68,0,0,0,23.57,67a3.9,3.9,0,0,0,2.54,3,11.72,11.72,0,0,0,5.83.24v-4h-3ZM16.41,62.65l-3.94,7.73h2.41l.81-1.53h4.14l.85,1.53h2.41l-4-7.73Zm-.08,4.63,1.45-2.74,1.33,2.74Zm-3.18-4.63h-9v1.61H7.44v6.12H9.81V64.26h3.34Zm-9,0v1.61H7.44v6.12H9.81V64.26h3.34V62.65Zm15,0h-2.7l-3.94,7.73h2.41l.81-1.53h4.14l.85,1.53h2.41Zm-2.78,4.63,1.45-2.74,1.33,2.74Zm12.59-1v1.49h.93V69a7.27,7.27,0,0,1-2.09-.16,2.77,2.77,0,0,1-1.85-1.73,2.25,2.25,0,0,1,1-2.58c1.33-.84,3.42-.36,4.83.16V63a8,8,0,0,0-6.24.28A3.68,3.68,0,0,0,23.57,67a3.9,3.9,0,0,0,2.54,3,11.72,11.72,0,0,0,5.83.24v-4Zm0,0v1.49h.93V69a7.27,7.27,0,0,1-2.09-.16,2.77,2.77,0,0,1-1.85-1.73,2.25,2.25,0,0,1,1-2.58c1.33-.84,3.42-.36,4.83.16V63a8,8,0,0,0-6.24.28A3.68,3.68,0,0,0,23.57,67a3.9,3.9,0,0,0,2.54,3,11.72,11.72,0,0,0,5.83.24v-4Zm-9.81-3.62h-2.7l-3.94,7.73h2.41l.81-1.53h4.14l.85,1.53h2.41Zm-2.78,4.63,1.45-2.74,1.33,2.74ZM4.1,62.65v1.61H7.44v6.12H9.81V64.26h3.34V62.65Zm0,0v1.61H7.44v6.12H9.81V64.26h3.34V62.65Zm15,0h-2.7l-3.94,7.73h2.41l.81-1.53h4.14l.85,1.53h2.41Zm-2.78,4.63,1.45-2.74,1.33,2.74Zm12.59-1v1.49h.93V69a7.27,7.27,0,0,1-2.09-.16,2.77,2.77,0,0,1-1.85-1.73,2.25,2.25,0,0,1,1-2.58c1.33-.84,3.42-.36,4.83.16V63a8,8,0,0,0-6.24.28A3.68,3.68,0,0,0,23.57,67a3.9,3.9,0,0,0,2.54,3,11.72,11.72,0,0,0,5.83.24v-4Zm0,0v1.49h.93V69a7.27,7.27,0,0,1-2.09-.16,2.77,2.77,0,0,1-1.85-1.73,2.25,2.25,0,0,1,1-2.58c1.33-.84,3.42-.36,4.83.16V63a8,8,0,0,0-6.24.28A3.68,3.68,0,0,0,23.57,67a3.9,3.9,0,0,0,2.54,3,11.72,11.72,0,0,0,5.83.24v-4Zm-9.81-3.62h-2.7l-3.94,7.73h2.41l.81-1.53h4.14l.85,1.53h2.41Zm-2.78,4.63,1.45-2.74,1.33,2.74ZM4.1,62.65v1.61H7.44v6.12H9.81V64.26h3.34V62.65Zm0,0v1.61H7.44v6.12H9.81V64.26h3.34V62.65Zm15,0h-2.7l-3.94,7.73h2.41l.81-1.53h4.14l.85,1.53h2.41Zm-2.78,4.63,1.45-2.74,1.33,2.74Zm12.59-1v1.49h.93V69a7.27,7.27,0,0,1-2.09-.16,2.77,2.77,0,0,1-1.85-1.73,2.25,2.25,0,0,1,1-2.58c1.33-.84,3.42-.36,4.83.16V63a8,8,0,0,0-6.24.28A3.68,3.68,0,0,0,23.57,67a3.9,3.9,0,0,0,2.54,3,11.72,11.72,0,0,0,5.83.24v-4Zm0,0v1.49h.93V69a7.27,7.27,0,0,1-2.09-.16,2.77,2.77,0,0,1-1.85-1.73,2.25,2.25,0,0,1,1-2.58c1.33-.84,3.42-.36,4.83.16V63a8,8,0,0,0-6.24.28A3.68,3.68,0,0,0,23.57,67a3.9,3.9,0,0,0,2.54,3,11.72,11.72,0,0,0,5.83.24v-4ZM16.41,62.65l-3.94,7.73h2.41l.81-1.53h4.14l.85,1.53h2.41l-4-7.73Zm-.08,4.63,1.45-2.74,1.33,2.74Zm-3.18-4.63h-9v1.61H7.44v6.12H9.81V64.26h3.34Zm-12-2.22V79.79l17.13,9.86,17.13-9.86V60.43Zm1,.93h32.2v10.3H2.16Zm32.2,17.91-16.1,9.24L2.15,79.27v-6.5H34.36ZM28.92,67.76h.93V69a7.27,7.27,0,0,1-2.09-.16,2.77,2.77,0,0,1-1.85-1.73,2.25,2.25,0,0,1,1-2.58c1.33-.84,3.42-.36,4.83.16V63a8,8,0,0,0-6.24.28A3.68,3.68,0,0,0,23.57,67a3.9,3.9,0,0,0,2.54,3,11.72,11.72,0,0,0,5.83.24v-4h-3ZM16.41,62.65l-3.94,7.73h2.41l.81-1.53h4.14l.85,1.53h2.41l-4-7.73Zm-.08,4.63,1.45-2.74,1.33,2.74Zm-3.18-4.63h-9v1.61H7.44v6.12H9.81V64.26h3.34Zm-9,0v1.61H7.44v6.12H9.81V64.26h3.34V62.65Zm15,0h-2.7l-3.94,7.73h2.41l.81-1.53h4.14l.85,1.53h2.41Zm-2.78,4.63,1.45-2.74,1.33,2.74Zm12.59-1v1.49h.93V69a7.27,7.27,0,0,1-2.09-.16,2.77,2.77,0,0,1-1.85-1.73,2.25,2.25,0,0,1,1-2.58c1.33-.84,3.42-.36,4.83.16V63a8,8,0,0,0-6.24.28A3.68,3.68,0,0,0,23.57,67a3.9,3.9,0,0,0,2.54,3,11.72,11.72,0,0,0,5.83.24v-4Zm0,0v1.49h.93V69a7.27,7.27,0,0,1-2.09-.16,2.77,2.77,0,0,1-1.85-1.73,2.25,2.25,0,0,1,1-2.58c1.33-.84,3.42-.36,4.83.16V63a8,8,0,0,0-6.24.28A3.68,3.68,0,0,0,23.57,67a3.9,3.9,0,0,0,2.54,3,11.72,11.72,0,0,0,5.83.24v-4Zm-9.81-3.62h-2.7l-3.94,7.73h2.41l.81-1.53h4.14l.85,1.53h2.41Zm-2.78,4.63,1.45-2.74,1.33,2.74ZM4.1,62.65v1.61H7.44v6.12H9.81V64.26h3.34V62.65Zm0,0v1.61H7.44v6.12H9.81V64.26h3.34V62.65Zm15,0h-2.7l-3.94,7.73h2.41l.81-1.53h4.14l.85,1.53h2.41Zm-2.78,4.63,1.45-2.74,1.33,2.74Zm12.59-1v1.49h.93V69a7.27,7.27,0,0,1-2.09-.16,2.77,2.77,0,0,1-1.85-1.73,2.25,2.25,0,0,1,1-2.58c1.33-.84,3.42-.36,4.83.16V63a8,8,0,0,0-6.24.28A3.68,3.68,0,0,0,23.57,67a3.9,3.9,0,0,0,2.54,3,11.72,11.72,0,0,0,5.83.24v-4Zm0,0v1.49h.93V69a7.27,7.27,0,0,1-2.09-.16,2.77,2.77,0,0,1-1.85-1.73,2.25,2.25,0,0,1,1-2.58c1.33-.84,3.42-.36,4.83.16V63a8,8,0,0,0-6.24.28A3.68,3.68,0,0,0,23.57,67a3.9,3.9,0,0,0,2.54,3,11.72,11.72,0,0,0,5.83.24v-4Zm-9.81-3.62h-2.7l-3.94,7.73h2.41l.81-1.53h4.14l.85,1.53h2.41Zm-2.78,4.63,1.45-2.74,1.33,2.74ZM4.1,62.65v1.61H7.44v6.12H9.81V64.26h3.34V62.65Zm0,0v1.61H7.44v6.12H9.81V64.26h3.34V62.65Zm15,0h-2.7l-3.94,7.73h2.41l.81-1.53h4.14l.85,1.53h2.41Zm-2.78,4.63,1.45-2.74,1.33,2.74Zm12.59-1v1.49h.93V69a7.27,7.27,0,0,1-2.09-.16,2.77,2.77,0,0,1-1.85-1.73,2.25,2.25,0,0,1,1-2.58c1.33-.84,3.42-.36,4.83.16V63a8,8,0,0,0-6.24.28A3.68,3.68,0,0,0,23.57,67a3.9,3.9,0,0,0,2.54,3,11.72,11.72,0,0,0,5.83.24v-4Zm0,0v1.49h.93V69a7.27,7.27,0,0,1-2.09-.16,2.77,2.77,0,0,1-1.85-1.73,2.25,2.25,0,0,1,1-2.58c1.33-.84,3.42-.36,4.83.16V63a8,8,0,0,0-6.24.28A3.68,3.68,0,0,0,23.57,67a3.9,3.9,0,0,0,2.54,3,11.72,11.72,0,0,0,5.83.24v-4ZM16.41,62.65l-3.94,7.73h2.41l.81-1.53h4.14l.85,1.53h2.41l-4-7.73Zm-.08,4.63,1.45-2.74,1.33,2.74Zm-3.18-4.63h-9v1.61H7.44v6.12H9.81V64.26h3.34Zm-12-2.22V79.79l17.13,9.86,17.13-9.86V60.43Zm1,.93h32.2v10.3H2.16Zm32.2,17.91-16.1,9.24L2.15,79.27v-6.5H34.36ZM28.92,67.76h.93V69a7.27,7.27,0,0,1-2.09-.16,2.77,2.77,0,0,1-1.85-1.73,2.25,2.25,0,0,1,1-2.58c1.33-.84,3.42-.36,4.83.16V63a8,8,0,0,0-6.24.28A3.68,3.68,0,0,0,23.57,67a3.9,3.9,0,0,0,2.54,3,11.72,11.72,0,0,0,5.83.24v-4h-3ZM16.41,62.65l-3.94,7.73h2.41l.81-1.53h4.14l.85,1.53h2.41l-4-7.73Zm-.08,4.63,1.45-2.74,1.33,2.74Zm-3.18-4.63h-9v1.61H7.44v6.12H9.81V64.26h3.34Zm-9,0v1.61H7.44v6.12H9.81V64.26h3.34V62.65Zm15,0h-2.7l-3.94,7.73h2.41l.81-1.53h4.14l.85,1.53h2.41Zm-2.78,4.63,1.45-2.74,1.33,2.74Zm12.59-1v1.49h.93V69a7.27,7.27,0,0,1-2.09-.16,2.77,2.77,0,0,1-1.85-1.73,2.25,2.25,0,0,1,1-2.58c1.33-.84,3.42-.36,4.83.16V63a8,8,0,0,0-6.24.28A3.68,3.68,0,0,0,23.57,67a3.9,3.9,0,0,0,2.54,3,11.72,11.72,0,0,0,5.83.24v-4Zm0,0v1.49h.93V69a7.27,7.27,0,0,1-2.09-.16,2.77,2.77,0,0,1-1.85-1.73,2.25,2.25,0,0,1,1-2.58c1.33-.84,3.42-.36,4.83.16V63a8,8,0,0,0-6.24.28A3.68,3.68,0,0,0,23.57,67a3.9,3.9,0,0,0,2.54,3,11.72,11.72,0,0,0,5.83.24v-4Zm-9.81-3.62h-2.7l-3.94,7.73h2.41l.81-1.53h4.14l.85,1.53h2.41Zm-2.78,4.63,1.45-2.74,1.33,2.74ZM4.1,62.65v1.61H7.44v6.12H9.81V64.26h3.34V62.65Zm0,0v1.61H7.44v6.12H9.81V64.26h3.34V62.65Zm15,0h-2.7l-3.94,7.73h2.41l.81-1.53h4.14l.85,1.53h2.41Zm-2.78,4.63,1.45-2.74,1.33,2.74Zm12.59-1v1.49h.93V69a7.27,7.27,0,0,1-2.09-.16,2.77,2.77,0,0,1-1.85-1.73,2.25,2.25,0,0,1,1-2.58c1.33-.84,3.42-.36,4.83.16V63a8,8,0,0,0-6.24.28A3.68,3.68,0,0,0,23.57,67a3.9,3.9,0,0,0,2.54,3,11.72,11.72,0,0,0,5.83.24v-4Zm0,0v1.49h.93V69a7.27,7.27,0,0,1-2.09-.16,2.77,2.77,0,0,1-1.85-1.73,2.25,2.25,0,0,1,1-2.58c1.33-.84,3.42-.36,4.83.16V63a8,8,0,0,0-6.24.28A3.68,3.68,0,0,0,23.57,67a3.9,3.9,0,0,0,2.54,3,11.72,11.72,0,0,0,5.83.24v-4Zm-9.81-3.62h-2.7l-3.94,7.73h2.41l.81-1.53h4.14l.85,1.53h2.41Zm-2.78,4.63,1.45-2.74,1.33,2.74ZM4.1,62.65v1.61H7.44v6.12H9.81V64.26h3.34V62.65Zm0,0v1.61H7.44v6.12H9.81V64.26h3.34V62.65Zm15,0h-2.7l-3.94,7.73h2.41l.81-1.53h4.14l.85,1.53h2.41Zm-2.78,4.63,1.45-2.74,1.33,2.74Zm12.59-1v1.49h.93V69a7.27,7.27,0,0,1-2.09-.16,2.77,2.77,0,0,1-1.85-1.73,2.25,2.25,0,0,1,1-2.58c1.33-.84,3.42-.36,4.83.16V63a8,8,0,0,0-6.24.28A3.68,3.68,0,0,0,23.57,67a3.9,3.9,0,0,0,2.54,3,11.72,11.72,0,0,0,5.83.24v-4Zm0,0v1.49h.93V69a7.27,7.27,0,0,1-2.09-.16,2.77,2.77,0,0,1-1.85-1.73,2.25,2.25,0,0,1,1-2.58c1.33-.84,3.42-.36,4.83.16V63a8,8,0,0,0-6.24.28A3.68,3.68,0,0,0,23.57,67a3.9,3.9,0,0,0,2.54,3,11.72,11.72,0,0,0,5.83.24v-4Zm-9.81-3.62h-2.7l-3.94,7.73h2.41l.81-1.53h4.14l.85,1.53h2.41Zm-2.78,4.63,1.45-2.74,1.33,2.74ZM4.1,62.65v1.61H7.44v6.12H9.81V64.26h3.34V62.65ZM8.1,74h-1a0,0,0,0,0,0,0v2.5L4.65,76V74a0,0,0,0,0,0,0H3.56v4.5s0,0,0,0l1,.57h0l0,0V77l2.4.6v2.85c-.08,0-.08,0,0,.08l1,.57h0l0,0V74A0,0,0,0,0,8.1,74Zm5.7,1.15a0,0,0,0,0,0,0v-1s0,0,0,0H10.19s0,0,0,0v8.19s0,0,0,0l3.57,2.05h0l0,0V83.08s0,0,0,0l-2.45-1.33v-3l2.21.56a.14.14,0,0,0,0-.08V78a0,0,0,0,0,0,0l-2.21-.48V75.13ZM4.1,62.65v1.61H7.44v6.12H9.81V64.26h3.34V62.65Zm15,0h-2.7l-3.94,7.73h2.41l.81-1.53h4.14l.85,1.53h2.41Zm-2.78,4.63,1.45-2.74,1.33,2.74Zm12.59-1v1.49h.93V69a7.27,7.27,0,0,1-2.09-.16,2.77,2.77,0,0,1-1.85-1.73,2.25,2.25,0,0,1,1-2.58c1.33-.84,3.42-.36,4.83.16V63a8,8,0,0,0-6.24.28A3.68,3.68,0,0,0,23.57,67a3.9,3.9,0,0,0,2.54,3,11.72,11.72,0,0,0,5.83.24v-4Zm0,0v1.49h.93V69a7.27,7.27,0,0,1-2.09-.16,2.77,2.77,0,0,1-1.85-1.73,2.25,2.25,0,0,1,1-2.58c1.33-.84,3.42-.36,4.83.16V63a8,8,0,0,0-6.24.28A3.68,3.68,0,0,0,23.57,67a3.9,3.9,0,0,0,2.54,3,11.72,11.72,0,0,0,5.83.24v-4Zm-9.81-3.62h-2.7l-3.94,7.73h2.41l.81-1.53h4.14l.85,1.53h2.41Zm-2.78,4.63,1.45-2.74,1.33,2.74ZM4.1,62.65v1.61H7.44v6.12H9.81V64.26h3.34V62.65Zm0,0v1.61H7.44v6.12H9.81V64.26h3.34V62.65Zm15,0h-2.7l-3.94,7.73h2.41l.81-1.53h4.14l.85,1.53h2.41Zm-2.78,4.63,1.45-2.74,1.33,2.74Zm12.59-1v1.49h.93V69a7.27,7.27,0,0,1-2.09-.16,2.77,2.77,0,0,1-1.85-1.73,2.25,2.25,0,0,1,1-2.58c1.33-.84,3.42-.36,4.83.16V63a8,8,0,0,0-6.24.28A3.68,3.68,0,0,0,23.57,67a3.9,3.9,0,0,0,2.54,3,11.72,11.72,0,0,0,5.83.24v-4Zm0,0v1.49h.93V69a7.27,7.27,0,0,1-2.09-.16,2.77,2.77,0,0,1-1.85-1.73,2.25,2.25,0,0,1,1-2.58c1.33-.84,3.42-.36,4.83.16V63a8,8,0,0,0-6.24.28A3.68,3.68,0,0,0,23.57,67a3.9,3.9,0,0,0,2.54,3,11.72,11.72,0,0,0,5.83.24v-4Zm-9.81-3.62h-2.7l-3.94,7.73h2.41l.81-1.53h4.14l.85,1.53h2.41Zm-2.78,4.63,1.45-2.74,1.33,2.74ZM4.1,62.65v1.61H7.44v6.12H9.81V64.26h3.34V62.65Zm0,0v1.61H7.44v6.12H9.81V64.26h3.34V62.65Zm15,0h-2.7l-3.94,7.73h2.41l.81-1.53h4.14l.85,1.53h2.41Zm-2.78,4.63,1.45-2.74,1.33,2.74Zm12.59-1v1.49h.93V69a7.27,7.27,0,0,1-2.09-.16,2.77,2.77,0,0,1-1.85-1.73,2.25,2.25,0,0,1,1-2.58c1.33-.84,3.42-.36,4.83.16V63a8,8,0,0,0-6.24.28A3.68,3.68,0,0,0,23.57,67a3.9,3.9,0,0,0,2.54,3,11.72,11.72,0,0,0,5.83.24v-4Zm0,0v1.49h.93V69a7.27,7.27,0,0,1-2.09-.16,2.77,2.77,0,0,1-1.85-1.73,2.25,2.25,0,0,1,1-2.58c1.33-.84,3.42-.36,4.83.16V63a8,8,0,0,0-6.24.28A3.68,3.68,0,0,0,23.57,67a3.9,3.9,0,0,0,2.54,3,11.72,11.72,0,0,0,5.83.24v-4ZM16.41,62.65l-3.94,7.73h2.41l.81-1.53h4.14l.85,1.53h2.41l-4-7.73Zm-.08,4.63,1.45-2.74,1.33,2.74Zm-3.18-4.63h-9v1.61H7.44v6.12H9.81V64.26h3.34Zm-12-2.22V79.79l17.13,9.86,17.13-9.86V60.43Zm1,.93h32.2v10.3H2.16Zm32.2,17.91-16.1,9.24L2.15,79.27v-6.5H34.36ZM28.92,67.76h.93V69a7.27,7.27,0,0,1-2.09-.16,2.77,2.77,0,0,1-1.85-1.73,2.25,2.25,0,0,1,1-2.58c1.33-.84,3.42-.36,4.83.16V63a8,8,0,0,0-6.24.28A3.68,3.68,0,0,0,23.57,67a3.9,3.9,0,0,0,2.54,3,11.72,11.72,0,0,0,5.83.24v-4h-3ZM16.41,62.65l-3.94,7.73h2.41l.81-1.53h4.14l.85,1.53h2.41l-4-7.73Zm-.08,4.63,1.45-2.74,1.33,2.74Zm-3.18-4.63h-9v1.61H7.44v6.12H9.81V64.26h3.34Zm-9,0v1.61H7.44v6.12H9.81V64.26h3.34V62.65Zm15,0h-2.7l-3.94,7.73h2.41l.81-1.53h4.14l.85,1.53h2.41Zm-2.78,4.63,1.45-2.74,1.33,2.74Zm12.59-1v1.49h.93V69a7.27,7.27,0,0,1-2.09-.16,2.77,2.77,0,0,1-1.85-1.73,2.25,2.25,0,0,1,1-2.58c1.33-.84,3.42-.36,4.83.16V63a8,8,0,0,0-6.24.28A3.68,3.68,0,0,0,23.57,67a3.9,3.9,0,0,0,2.54,3,11.72,11.72,0,0,0,5.83.24v-4Zm0,0v1.49h.93V69a7.27,7.27,0,0,1-2.09-.16,2.77,2.77,0,0,1-1.85-1.73,2.25,2.25,0,0,1,1-2.58c1.33-.84,3.42-.36,4.83.16V63a8,8,0,0,0-6.24.28A3.68,3.68,0,0,0,23.57,67a3.9,3.9,0,0,0,2.54,3,11.72,11.72,0,0,0,5.83.24v-4Zm-9.81-3.62h-2.7l-3.94,7.73h2.41l.81-1.53h4.14l.85,1.53h2.41Zm-2.78,4.63,1.45-2.74,1.33,2.74ZM4.1,62.65v1.61H7.44v6.12H9.81V64.26h3.34V62.65Zm0,0v1.61H7.44v6.12H9.81V64.26h3.34V62.65Zm15,0h-2.7l-3.94,7.73h2.41l.81-1.53h4.14l.85,1.53h2.41Zm-2.78,4.63,1.45-2.74,1.33,2.74Zm12.59-1v1.49h.93V69a7.27,7.27,0,0,1-2.09-.16,2.77,2.77,0,0,1-1.85-1.73,2.25,2.25,0,0,1,1-2.58c1.33-.84,3.42-.36,4.83.16V63a8,8,0,0,0-6.24.28A3.68,3.68,0,0,0,23.57,67a3.9,3.9,0,0,0,2.54,3,11.72,11.72,0,0,0,5.83.24v-4Zm0,0v1.49h.93V69a7.27,7.27,0,0,1-2.09-.16,2.77,2.77,0,0,1-1.85-1.73,2.25,2.25,0,0,1,1-2.58c1.33-.84,3.42-.36,4.83.16V63a8,8,0,0,0-6.24.28A3.68,3.68,0,0,0,23.57,67a3.9,3.9,0,0,0,2.54,3,11.72,11.72,0,0,0,5.83.24v-4Zm-9.81-3.62h-2.7l-3.94,7.73h2.41l.81-1.53h4.14l.85,1.53h2.41Zm-2.78,4.63,1.45-2.74,1.33,2.74ZM4.1,62.65v1.61H7.44v6.12H9.81V64.26h3.34V62.65Zm0,0v1.61H7.44v6.12H9.81V64.26h3.34V62.65Zm15,0h-2.7l-3.94,7.73h2.41l.81-1.53h4.14l.85,1.53h2.41Zm-2.78,4.63,1.45-2.74,1.33,2.74Zm12.59-1v1.49h.93V69a7.27,7.27,0,0,1-2.09-.16,2.77,2.77,0,0,1-1.85-1.73,2.25,2.25,0,0,1,1-2.58c1.33-.84,3.42-.36,4.83.16V63a8,8,0,0,0-6.24.28A3.68,3.68,0,0,0,23.57,67a3.9,3.9,0,0,0,2.54,3,11.72,11.72,0,0,0,5.83.24v-4Zm0,0v1.49h.93V69a7.27,7.27,0,0,1-2.09-.16,2.77,2.77,0,0,1-1.85-1.73,2.25,2.25,0,0,1,1-2.58c1.33-.84,3.42-.36,4.83.16V63a8,8,0,0,0-6.24.28A3.68,3.68,0,0,0,23.57,67a3.9,3.9,0,0,0,2.54,3,11.72,11.72,0,0,0,5.83.24v-4Zm-9.81-3.62h-2.7l-3.94,7.73h2.41l.81-1.53h4.14l.85,1.53h2.41Zm-2.78,4.63,1.45-2.74,1.33,2.74ZM4.1,62.65v1.61H7.44v6.12H9.81V64.26h3.34V62.65Zm9.7,12.48a0,0,0,0,0,0,0v-1s0,0,0,0H10.19s0,0,0,0v8.19s0,0,0,0l3.57,2.05h0l0,0V83.08s0,0,0,0l-2.45-1.33v-3l2.21.56a.14.14,0,0,0,0-.08V78a0,0,0,0,0,0,0l-2.21-.48V75.13ZM8.1,74h-1a0,0,0,0,0,0,0v2.5L4.65,76V74a0,0,0,0,0,0,0H3.56v4.5s0,0,0,0l1,.57h0l0,0V77l2.4.6v2.85c-.08,0-.08,0,0,.08l1,.57h0l0,0V74A0,0,0,0,0,8.1,74ZM20.89,85.39V74a0,0,0,0,0,0,0H19.69a0,0,0,0,0,0,0V84.67l-1.33.72L17,84.67V74a0,0,0,0,0,0,0H15.71V85.39s0,0,0,0l2.57,1.49h0l2.57-1.49c-.08,0,0,0,0,0M13.8,75.13a0,0,0,0,0,0,0v-1s0,0,0,0H10.19s0,0,0,0v8.19s0,0,0,0l3.57,2.05h0l0,0V83.08s0,0,0,0l-2.45-1.33v-3l2.21.56a.14.14,0,0,0,0-.08V78a0,0,0,0,0,0,0l-2.21-.48V75.13Zm12.87,6.94V81s0,0,0,0h0l-2.41,1.32V78.94l2.25-.56a0,0,0,0,0,0,0V77.25a0,0,0,0,0,0,0h0l-2.25.48V75.08h2.45a0,0,0,0,0,0,0V74a0,0,0,0,0,0,0H23a0,0,0,0,0,0,0V84.2s0,0,0,0h0l3.62-2.09s0,0,0-.08M8.1,74h-1a0,0,0,0,0,0,0v2.5L4.65,76V74a0,0,0,0,0,0,0H3.56v4.5s0,0,0,0l1,.57h0l0,0V77l2.4.6v2.85c-.08,0-.08,0,0,.08l1,.57h0l0,0V74A0,0,0,0,0,8.1,74Zm21.54,1.11h2.09a.17.17,0,0,1,.16.16v.52a.22.22,0,0,1-.16.24l-2.09.45ZM28.55,81h.08l1.05-.6h0V77.58l.6-.16L32.05,79s0,0,.08,0l.88-.53,0,0v0l-1.56-1.32,1.08-.28c.36-.08.4-.28.4-.65v-1.8a.46.46,0,0,0-.52-.4h-3.9a.09.09,0,0,0-.08.08v6.9s0,.08.08.08" style="fill:#f6f5f5"/></svg>